<?xml version="1.0" encoding="UTF-8"?>
<!DOCTYPE svg
        PUBLIC "-//W3C//DTD SVG 1.1//EN"
        "http://www.w3.org/Graphics/SVG/1.1/DTD/svg11.dtd">
<svg xmlns="http://www.w3.org/2000/svg" xml:space="preserve" width="108.763mm" height="30.6093mm" version="1.1" style="shape-rendering:geometricPrecision; text-rendering:geometricPrecision; image-rendering:optimizeQuality; fill-rule:evenodd; clip-rule:evenodd"
viewBox="0 0 10664.81 3001.4">
 <defs>
  <style type="text/css">
   <![CDATA[
    .fil4 {fill:none}
    .fil3 {fill:#072369}
    .fil5 {fill:#0C152B}
<!--    .fil0 {fill:#242940;fill-rule:nonzero}-->
    .fil0 {fill:#ffffff;fill-rule:nonzero}
    .fil6 {fill:#072369}
    .fil1 {fill:url(#id6)}
    .fil2 {fill:url(#id7)}
   ]]>
  </style>
   <mask id="id0">
  <linearGradient id="id1" gradientUnits="userSpaceOnUse" x1="2630.63" y1="921.36" x2="105.13" y2="-198.74">
   <stop offset="0" style="stop-opacity:0; stop-color:white"/>
   <stop offset="1" style="stop-opacity:1; stop-color:white"/>
  </linearGradient>
    <rect style="fill:url(#id1)" x="973.61" y="72.47" width="2018.88" height="1201.84"/>
   </mask>
   <mask id="id2">
  <linearGradient id="id3" gradientUnits="userSpaceOnUse" x1="1516.28" y1="2363.62" x2="-1329.71" y2="-636.77">
   <stop offset="0" style="stop-opacity:0; stop-color:white"/>
   <stop offset="1" style="stop-opacity:1; stop-color:white"/>
  </linearGradient>
    <rect style="fill:url(#id3)" x="339.42" y="458.6" width="1635.88" height="1906.47"/>
   </mask>
   <mask id="id4">
  <linearGradient id="id5" gradientUnits="userSpaceOnUse" x1="116.7" y1="1678.85" x2="4735.9" y2="3171.57">
   <stop offset="0" style="stop-opacity:0; stop-color:white"/>
   <stop offset="1" style="stop-opacity:1; stop-color:white"/>
  </linearGradient>
    <rect style="fill:url(#id5)" x="116.7" y="620.98" width="2158.48" height="2115.75"/>
   </mask>
  <linearGradient id="id6" gradientUnits="userSpaceOnUse" x1="339.43" y1="1182.55" x2="2992.49" y2="1182.55">
   <stop offset="0" style="stop-opacity:1; stop-color:#FEF758"/>
   <stop offset="1" style="stop-opacity:1; stop-color:#FF10DB"/>
  </linearGradient>
  <linearGradient id="id7" gradientUnits="userSpaceOnUse" x1="0.01" y1="1753.5" x2="2885.42" y2="1753.5">
   <stop offset="0" style="stop-opacity:1; stop-color:#9C68FF"/>
   <stop offset="1" style="stop-opacity:1; stop-color:#5A00FF"/>
  </linearGradient>
 </defs>
 <g id="Слой_x0020_1">
  <metadata id="CorelCorpID_0Corel-Layer"/>
  <path class="fil0" d="M4214.93 1496.69c55.83,17.87 103.01,52.76 141.53,104.68 38.53,51.93 57.78,110.83 57.78,176.71 0,112.78 -41.6,199.6 -124.79,260.45 -83.19,60.86 -194.57,91.29 -334.15,91.29l-425.43 0 0 -1205.96 390.26 0c133.99,0 242.31,29.03 324.95,87.09 82.63,58.07 123.94,141.82 123.94,251.25 0,54.71 -14.51,102.73 -43.55,144.04 -29.03,41.32 -65.88,71.46 -110.55,90.45zm-438.84 -70.34l154.09 0c40.2,0 72.58,-3.35 97.14,-10.05 53.61,-20.1 80.41,-64.21 80.41,-132.33 0,-49.13 -15.36,-87.09 -46.07,-113.89 -30.71,-26.8 -72.3,-40.2 -124.79,-40.2l-160.79 0 0 296.47zm0 174.2l0 323.27 190.94 0c53.6,0 97.43,-14.24 131.48,-42.71 34.05,-28.48 51.09,-68.39 51.09,-119.76 0,-51.36 -15.63,-91.01 -46.9,-118.92 -31.26,-27.92 -70.9,-41.87 -118.92,-41.87l-207.69 0zm3742.16 529.28l-388.58 0 0 -1205.96 385.24 0c203.22,0 365.7,55.83 487.4,167.49 121.72,111.67 182.57,256.83 182.57,435.49 0,178.66 -60.57,323.82 -181.73,435.48 -121.16,111.67 -282.79,167.5 -484.9,167.5zm-6.7 -989.9l-123.94 0 0 773.83 127.3 0c126.18,0 226.12,-36.29 299.81,-108.87 73.7,-72.59 110.55,-165.26 110.55,-278.05 0,-111.67 -37.13,-204.06 -111.39,-277.2 -74.25,-73.14 -175.03,-109.71 -302.32,-109.71zm692.26 989.9l584.56 -1224.39 10.05 0 586.23 1224.39 -269.67 0 -97.14 -212.72 -450.56 0 -93.8 212.72 -269.66 0zm442.19 -393.61l294.78 0c-65.87,-150.75 -114.45,-270.22 -145.72,-358.44 -2.23,5.59 -22.61,55.56 -61.14,149.91 -38.52,94.36 -67.83,163.87 -87.93,208.53zm755.9 -209.37c0,-175.31 60.02,-323.54 180.06,-444.7 120.04,-121.16 270.51,-181.74 451.4,-181.74 179.78,0 329.97,60.58 450.56,181.74 120.6,121.16 180.89,269.39 180.89,444.7 0,177.54 -60.02,326.34 -180.06,446.38 -120.04,120.03 -270.51,180.05 -451.4,180.05 -180.89,0 -331.36,-60.02 -451.4,-180.05 -120.04,-120.04 -180.06,-268.84 -180.06,-446.38zm259.62 0c0,109.43 35.17,201.83 105.52,277.2 70.35,75.38 159.12,113.06 266.32,113.06 107.19,0 195.97,-37.68 266.32,-113.06 70.34,-75.38 105.53,-167.77 105.53,-277.2 0,-108.31 -35.18,-200.43 -105.53,-276.37 -70.34,-75.93 -159.12,-113.89 -266.32,-113.89 -107.19,0 -195.96,37.96 -266.32,113.89 -70.34,75.93 -105.52,168.06 -105.52,276.37zm-5049.13 23.45l0 -224.44c81.51,-37.97 183.69,-56.95 306.51,-56.95 127.3,0 223.61,29.03 288.93,87.1 65.32,58.06 97.99,140.13 97.99,246.22l0 527.61 -226.12 0 -5.03 -77.05 3.35 -58.62 -3.35 0c-15.63,35.73 -45.78,71.19 -90.45,106.36 -44.66,35.17 -101.06,52.75 -169.16,52.75 -75.93,0 -139.31,-22.05 -190.11,-66.16 -50.81,-44.11 -76.21,-106.92 -76.21,-188.43 0,-101.61 46.9,-176.15 140.69,-223.61 93.8,-47.46 216.63,-60.58 368.49,-39.36l0 -20.1c0,-91.56 -59.74,-137.35 -179.22,-137.35 -101.61,0 -190.39,24.01 -266.32,72.02zm267.99 412.04c48.02,0 88.49,-19.26 121.44,-57.78 32.94,-38.53 49.41,-84.58 49.41,-138.18 -88.22,-14.52 -154.65,-10.89 -199.32,10.88 -44.67,21.78 -67,53.88 -67,96.31 0,26.8 8.65,48.29 25.97,64.48 17.31,16.2 40.48,24.29 69.5,24.29zm1409.14 -669.98l-283.07 356.77 301.49 480.71 -283.07 0 -209.38 -353.41 -98.82 115.57 0 237.84 -246.22 0 0 -1205.96 251.25 0 0 715.21 278.04 -346.72 289.77 0zm471.16 596.28c0,-21.21 -10.88,-37.97 -32.66,-50.24 -21.77,-12.29 -59.46,-26.24 -113.06,-41.88 -87.09,-24.56 -153.26,-56.94 -198.48,-97.14 -45.22,-40.2 -67.83,-98.26 -67.83,-174.2 0,-78.16 28.76,-140.42 86.26,-186.76 57.51,-46.34 134.84,-69.51 231.98,-69.51 100.5,0 190.95,17.31 271.35,51.92l0 214.4c-67,-34.61 -137.9,-55.27 -212.72,-61.97 -31.27,-2.24 -56.95,-1.12 -77.05,3.34 -46.89,8.93 -70.34,29.03 -70.34,60.3 0,20.1 10.05,36.56 30.15,49.41 20.1,12.84 53.6,26.51 100.5,41.04 99.38,27.92 171.13,61.97 215.23,102.17 44.11,40.19 66.16,96.58 66.16,169.16 0,80.4 -30.71,142.94 -92.12,187.6 -61.41,44.66 -145.72,66.99 -252.91,66.99 -107.19,0 -202.11,-18.42 -284.74,-55.27l0 -219.42c40.2,21.22 87.09,39.37 140.7,54.44 53.6,15.07 100.5,22.61 140.69,22.61 79.29,0 118.92,-22.34 118.92,-67z"/>
  <path class="fil1" d="M1064.78 589.76c482.71,-632.6 1715.7,71.67 1927.71,684.55 -39.85,-528.5 -602.5,-1321.78 -1476.21,-1272.08 -1689.62,96.1 -1443.85,2429.1 0,2361.39 258.52,0.03 459.45,-227.05 460.42,-463.87 1.27,-310 -245.76,-435.51 -460.42,-458.47 -333.61,-35.67 -539.92,-273.6 -545.42,-545.42 -1.94,-96.26 5.83,-160.37 93.93,-306.1z"/>
  <path class="fil2" d="M1516.28 505.96c-242.15,0.24 -388.87,196.26 -389.25,389.91 -0.26,136.99 110.54,362.59 389.25,389.25 851.31,81.44 781.66,1204.78 0,1247.02 -836.12,45.17 -1640.8,-839.45 -1223.53,-1911.15 -801.48,1212.28 187.73,2424.71 1223.53,2379.17 1399.21,-61.51 1369.88,-1926.38 70.16,-2056.96 -67.43,-6.78 -71.21,-41.78 -70.16,-70.9 1.33,-36.91 23.18,-70.72 70.16,-70.9 233.13,-0.97 515.37,72.44 797.66,356.11 343.84,345.52 462.8,943.74 94.44,1512.86 1097.49,-1405.78 -300.64,-2184.02 -962.26,-2164.39z"/>
  <path class="fil3" style="mask:url(#id0)" d="M1064.78 589.76c482.71,-632.6 1715.7,71.67 1927.71,684.55 -26.28,-348.57 -279.85,-806.6 -700.07,-1062.7 -596.12,-275.53 -1291.13,-175.1 -1318.81,603.49 7.13,-61.14 29.42,-123.18 91.17,-225.34z"/>
  <path class="fil4" d="M1586.44 943.19c-245.81,-39.59 -177.29,-253.66 27.43,-251.2 938.01,11.28 1535.38,983.32 864.67,1978.35"/>
  <path class="fil3" style="mask:url(#id2)" d="M1975.29 1932.49c-856.96,86.94 -1588.66,-496.31 -1404.49,-1473.89 -531.7,701.71 -118.26,1954.91 945.48,1905.02 246.58,0.03 440.76,-206.55 459.02,-431.13z"/>
  <path class="fil5" style="mask:url(#id4)" d="M1516.28 2532.13c-836.12,45.17 -1640.8,-839.45 -1223.53,-1911.15 -365.99,709.25 -164.37,1698.07 633.6,2019.08 505.51,203.33 1201,110.11 1334.61,-512.88 71.63,-334.01 -126.77,-707.29 -609.74,-818.82 706.27,181.14 602.75,1183.9 -134.94,1223.77z"/>
  <path class="fil6" d="M2384.1 1157.49c343.84,345.52 462.8,943.74 94.44,1512.86 670.71,-995.04 73.34,-1967.08 -864.67,-1978.35 -195.78,-2.35 -266.99,193.33 -57.84,245.05 -38.21,-12.96 -40.6,-40.84 -39.74,-64.76 1.33,-36.91 23.18,-70.72 70.16,-70.9 233.13,-0.97 515.37,72.44 797.66,356.11z"/>
 </g>
</svg>
