<?xml version="1.0" encoding="utf-8"?>
<!-- Generator: Adobe Illustrator 24.3.0, SVG Export Plug-In . SVG Version: 6.00 Build 0)  -->
<svg version="1.1" id="Слой_1" xmlns="http://www.w3.org/2000/svg" xmlns:xlink="http://www.w3.org/1999/xlink" x="0px" y="0px"
	 viewBox="0 0 555.7 497.3" style="enable-background:new 0 0 555.7 497.3;" xml:space="preserve">
<style type="text/css">
	.st0{fill:#9D93CF;}
	.st1{fill-rule:evenodd;clip-rule:evenodd;fill:#9D93CF;}
</style>
<g>
	<path class="st0" d="M99.2,224.8c3.8-0.3,6.4,2.4,9.1,5c24.2,24.2,48.5,48.5,72.7,72.7c6.4,6.4,7.6,6.4,13.9,0.1
		c24-24,48-48,71.9-71.9c8.3-8.3,12-8.2,20.4,0.2c23.5,23.4,46.9,46.9,70.4,70.4c9.5,9.5,9.5,9.5,19.1-0.2
		c23.6-23.6,47.2-47.2,70.8-70.8c7.6-7.6,11.7-7.6,19.2-0.2c6.3,6.3,12.7,12.5,18.8,18.9c7.5,7.8,7.4,10.9-0.1,18.4
		c-36.2,36.2-72.3,72.3-108.5,108.5c-8.3,8.3-11.2,8.4-19.6,0c-21.9-21.8-43.8-43.7-65.7-65.6c-2.1-2.1-4.2-4.2-6.3-6.3
		c-6.7-6.6-7.9-6.7-14.4-0.2c-23.1,23.1-46.1,46.1-69.2,69.2c-12.3,12.3-13.1,12.3-25.1,0.3c-35.4-35.4-70.8-70.8-106.1-106.2
		c-7.9-7.9-7.9-10.2,0-18.2c6.7-6.7,13.4-13.4,20.1-20C92.9,226.6,95.3,224.7,99.2,224.8z"/>
	<path class="st0" d="M274.5,115.7c42.3-1.2,76.6,11.8,108,33.6c10.2,7,19.6,15.2,27.9,24.5c4.7,5.3,4.8,10.1-0.2,15.2
		c-8.1,8.4-16.6,16.5-24.7,24.8c-3.7,3.8-6.8,3.5-10.3-0.2c-9.6-10.1-20-19.4-32-26.3c-13.4-7.7-27.6-13.4-43.1-16.4
		c-12.1-2.4-24.1-2.4-35.9-1.5c-14.6,1-28.3,6.4-41.5,12.8c-15.5,7.5-28.7,18-40.6,30.4c-6.7,6.9-8,6.8-14.8,0.1
		c-7.7-7.7-15.5-15.4-23.2-23.2c-5.1-5.3-5.1-8.4-0.1-13.8c24.1-25.9,52.9-44.3,86.9-53.9C246.2,117.4,261.7,113.6,274.5,115.7z"/>
</g>
</svg>
