<?xml version="1.0" encoding="utf-8"?>
<!-- Generator: Adobe Illustrator 24.3.0, SVG Export Plug-In . SVG Version: 6.00 Build 0)  -->
<svg version="1.1" id="Слой_1" xmlns="http://www.w3.org/2000/svg" xmlns:xlink="http://www.w3.org/1999/xlink" x="0px" y="0px"
	 viewBox="0 0 555.7 497.3" style="enable-background:new 0 0 555.7 497.3;" xml:space="preserve">
<style type="text/css">
	.st0{fill:#9D93CF;}
	.st1{fill-rule:evenodd;clip-rule:evenodd;fill:#9D93CF;}
</style>
<g id="Слой_x0020_1">
	<path class="st1" d="M268.7,34.2l2.9,110.9c1,0,2.1,0,3.1,0c2.4,0,4.8,0.1,7.1,0.2L288.5,37c-4.3-2.2-8.8-3.5-13.7-3.5
		C272.7,33.5,270.7,33.7,268.7,34.2L268.7,34.2z M352.8,200.6l-77.6,160h-1.3l-77.8-160h36.8l20.6,45.5c11,24.7,17.9,41,20.8,49
		c6.1-14.9,13.2-31.2,21.3-49l20.6-45.5L352.8,200.6L352.8,200.6z M233.7,61.5l17.5,85.8c3.3-0.7,6.7-1.2,10.1-1.6L249.9,45
		C244.4,49.9,239.1,55.8,233.7,61.5L233.7,61.5z M204.1,83.6l27.5,69.6c3.2-1.2,6.4-2.4,9.7-3.3l-22.1-74.4
		C214.5,79.2,209.5,82.1,204.1,83.6L204.1,83.6z M170.8,93.4l42.4,69c2.9-1.8,5.9-3.5,9-5l-34.6-69.2
		C181.8,89.9,176.2,91.6,170.8,93.4z M136.2,106.4l60.5,68.2c2.6-2.3,5.2-4.4,8-6.5l-51-68.8C147.5,101.6,141.7,103.9,136.2,106.4z
		 M102.7,126.1l79.8,63.4c2.1-2.7,4.4-5.3,6.7-7.7l-70.4-66.7C112.8,118.6,107.4,122.2,102.7,126.1L102.7,126.1z M80.6,157.5
		l90.6,49.1c1.6-3,3.4-5.9,5.3-8.8l-87.2-57.6c-0.7,1-1.4,2.1-2.1,3.2C84.5,147.9,82.3,152.6,80.6,157.5z M76.7,196.6l86.3,28.8
		c1.1-3.3,2.3-6.5,3.7-9.6l-90.2-39.1C75.9,183.2,76,189.9,76.7,196.6L76.7,196.6z M85.3,234.5l73,10.9c0.5-3.4,1.2-6.8,1.9-10.1
		l-80.1-19.2C81.5,222.2,83.3,228.4,85.3,234.5L85.3,234.5z M97.5,267.4l59.6-1.6c0-1,0-2.1,0-3.1c0-2.4,0.1-4.8,0.2-7.1l-65.9-4
		C93.4,256.9,95.4,262.2,97.5,267.4L97.5,267.4z M108.1,296.6l51.2-10.4c-0.7-3.3-1.2-6.7-1.6-10.1l-54.5,6.2
		C105.1,287.3,106.8,292.1,108.1,296.6L108.1,296.6z M112.8,326.5l52.4-20.6c-1.3-3.2-2.4-6.4-3.3-9.7l-50.5,15
		C112.1,316.1,112.5,321.2,112.8,326.5L112.8,326.5z M112.8,361.9l61.6-37.7c-1.8-2.9-3.5-5.9-5-9l-56.2,28
		C113.1,349.4,113,355.7,112.8,361.9z M113.5,405.3l73.1-64.6c-2.3-2.6-4.4-5.2-6.5-8l-67.7,50.1C112.4,390.5,112.7,398,113.5,405.3
		z M129.3,445.5l72.2-90.7c-2.7-2.1-5.3-4.4-7.8-6.7l-75.2,79.2C121,433.9,124.5,440.1,129.3,445.5L129.3,445.5z M165.5,463.8
		l53.1-97.7c-3-1.6-6-3.4-8.8-5.3l-64.4,97.3c2.9,1.5,6,3,9.3,4.2C157.9,463.5,161.5,463.9,165.5,463.8z M211.8,450.8l25.6-76.5
		c-3.3-1.1-6.5-2.3-9.6-3.7l-38.3,88.1C196.5,456.5,204,453.7,211.8,450.8z M248.5,438.5l8.9-59.4c-3.4-0.5-6.8-1.2-10.1-1.9
		l-16,66.7C237,441.8,242.8,440,248.5,438.5z M279.3,433.5l-1.4-53.3c-1,0-2.1,0-3.1,0c-2.4,0-4.8-0.1-7.1-0.2l-3.3,54.9
		C269.4,434.1,274.4,433.6,279.3,433.5z M309.9,434.8L298.3,378c-3.3,0.7-6.7,1.2-10.1,1.6l6.2,54.2
		C299.4,434,304.6,434.3,309.9,434.8z M344,438.1l-26.1-66c-3.2,1.2-6.4,2.4-9.7,3.3l18.1,60.8C332.2,436.9,338.1,437.5,344,438.1
		L344,438.1z M384.9,442L336.4,363c-2.9,1.8-5.9,3.5-9,5l36.1,72.2C370.7,440.9,377.9,441.5,384.9,442L384.9,442z M433,441.2
		l-80.2-90.5c-2.6,2.3-5.2,4.4-8,6.5l63.6,85.8C417.5,443,425.8,442.5,433,441.2z M466,414.5L367,335.9c-2.1,2.7-4.4,5.3-6.7,7.7
		l93.9,89C459.7,427.8,463.4,421.7,466,414.5z M471.2,369.1l-92.9-50.3c-1.6,3-3.4,5.9-5.3,8.8l97.5,64.4
		C471.2,384.8,471.3,377.2,471.2,369.1L471.2,369.1z M470.1,327.9L386.5,300c-1.1,3.3-2.3,6.5-3.7,9.6l87.8,38.1
		C470.4,341.2,470.2,334.6,470.1,327.9z M476,292.6L391.3,280c-0.5,3.4-1.2,6.8-1.9,10.1l80.9,19.4C470.8,303.6,473,298.1,476,292.6
		L476,292.6z M500.9,256.7l-108.4,2.9c0,1,0,2.1,0,3.1c0,2.4-0.1,4.8-0.2,7.1l95.4,5.8C492.5,269.3,497.3,263.1,500.9,256.7z
		 M498.2,217.2l-108,22c0.7,3.3,1.2,6.7,1.6,10.1l114.6-13.1c-0.1-0.9-0.2-1.9-0.3-2.8C505.1,227,502.2,221.8,498.2,217.2
		L498.2,217.2z M460.9,189.4l-76.5,30.1c1.3,3.2,2.4,6.4,3.4,9.7l91.7-27.2C473.2,198,466.7,193.9,460.9,189.4z M442.2,160.1
		l-67,41.1c1.8,2.9,3.5,5.9,5,9l68.2-34c-0.4-0.6-0.8-1.2-1.1-1.8C444.9,170,443.3,165.2,442.2,160.1L442.2,160.1z M438.2,118.1
		L363,184.7c2.3,2.6,4.4,5.2,6.5,8l70.5-52.1C439.4,133,439.2,125.3,438.2,118.1z M416.5,84.6l-68.4,86c2.7,2.1,5.3,4.4,7.8,6.7
		l76-80c-1.6-2.7-3.6-5.1-6-7.2C422.9,87.6,419.8,85.8,416.5,84.6L416.5,84.6z M370.9,85.7l-39.9,73.5c3,1.6,6,3.4,8.8,5.3
		l54.1-81.7C386.4,83.5,378.6,84.9,370.9,85.7L370.9,85.7z M336,79.8l-23.9,71.3c3.3,1.1,6.5,2.3,9.6,3.7l30-69
		c-2.7-0.4-5.3-1.1-7.9-2C341.1,82.7,338.5,81.4,336,79.8L336,79.8z M306.3,51.2l-14.2,95.1c3.4,0.5,6.8,1.2,10.1,1.9l19.4-80.7
		C316.4,62.3,311.4,56.5,306.3,51.2z"/>
</g>
</svg>
