<?xml version="1.0" encoding="utf-8"?>
<!-- Generator: Adobe Illustrator 24.3.0, SVG Export Plug-In . SVG Version: 6.00 Build 0)  -->
<svg version="1.1" id="Слой_1" xmlns="http://www.w3.org/2000/svg" xmlns:xlink="http://www.w3.org/1999/xlink" x="0px" y="0px"
	 viewBox="0 0 555.7 497.3" style="enable-background:new 0 0 555.7 497.3;" xml:space="preserve">
<style type="text/css">
	.st0{fill:#9D93CF;}
	.st1{fill-rule:evenodd;clip-rule:evenodd;fill:#9D93CF;}
</style>
<g>
	<g>
		<path class="st0" d="M500.4,248.8c-0.5,0.1-0.7,0.5-0.9,0.8c-15.2,15.2-30.3,30.3-45.5,45.5c-0.7,0.7-1.1,0.7-1.8,0
			c-15.2-15.2-30.4-30.4-45.6-45.6c-0.6-0.6-0.7-0.9,0-1.5c15.3-15.2,30.5-30.5,45.8-45.8c0.7-0.7,1-0.5,1.6,0.1
			c15.3,15.3,30.6,30.6,45.9,45.9c0.2,0.2,0.4,0.3,0.5,0.5C500.4,248.6,500.4,248.7,500.4,248.8z"/>
		<path class="st0" d="M291.1,457.7c-0.2-0.1-0.3-0.2-0.4-0.3c-0.2-0.2-0.4-0.4-0.6-0.6c-42.2-42.2-84.5-84.5-126.7-126.7
			c-0.8-0.8-0.8-1.1,0-1.9c15.2-15.1,30.4-30.3,45.6-45.5c0.7-0.7,1-0.6,1.6,0c26.5,26.5,53,53,79.5,79.5c1,1,1,1,2,0
			c26.5-26.5,53-53,79.4-79.5c0.7-0.7,1-0.8,1.8,0c15.2,15.3,30.5,30.5,45.7,45.7c0.6,0.6,0.5,0.9,0,1.5
			c-42.4,42.4-84.8,84.8-127.2,127.1C291.6,457.3,291.4,457.5,291.1,457.7z"/>
		<path class="st0" d="M210,215.2c-0.2-0.2-0.4-0.3-0.4-0.3c-0.2-0.2-0.3-0.3-0.5-0.5c-15.2-15.2-30.4-30.4-45.6-45.6
			c-0.6-0.6-0.7-0.9,0-1.6c42.3-42.3,84.6-84.6,126.9-126.9c0.7-0.7,1-0.7,1.7,0c42.3,42.3,84.6,84.6,126.9,126.9
			c0.7,0.7,0.6,1,0,1.7c-15.2,15.2-30.4,30.4-45.6,45.6c-0.7,0.7-1,0.8-1.8,0c-26.5-26.5-53-53-79.5-79.5c-0.8-0.8-1.1-0.8-1.9,0
			c-26.5,26.5-53,53-79.4,79.5C210.5,214.6,210.2,214.9,210,215.2z"/>
		<path class="st0" d="M339.1,248.5c-0.1,0.1-0.2,0.3-0.3,0.4c-0.2,0.2-0.4,0.4-0.6,0.6c-15.4,15.4-30.8,30.8-46.1,46.2
			c-0.8,0.8-1.2,0.7-1.9,0c-15.4-15.4-30.8-30.8-46.2-46.2c-0.7-0.7-0.7-1,0-1.7c15.5-15.4,30.9-30.9,46.4-46.4c0.7-0.7,1-0.6,1.7,0
			c15.4,15.5,30.9,30.9,46.4,46.4C338.6,248,338.8,248.3,339.1,248.5z"/>
		<path class="st0" d="M129.3,295.7c-0.4-0.1-0.6-0.4-0.8-0.6c-4.7-4.7-9.4-9.4-14.1-14c-10.6-10.6-21.1-21.1-31.7-31.6
			c-0.7-0.7-0.7-1.1,0-1.8c15.2-15.2,30.4-30.4,45.6-45.6c0.7-0.7,1-0.7,1.7,0c15.2,15.2,30.4,30.4,45.6,45.6c0.7,0.7,0.7,1,0,1.7
			c-15.2,15.2-30.4,30.4-45.6,45.6C129.7,295.3,129.5,295.5,129.3,295.7z"/>
	</g>
</g>
</svg>
