<?xml version="1.0" encoding="utf-8"?>
<!-- Generator: Adobe Illustrator 24.3.0, SVG Export Plug-In . SVG Version: 6.00 Build 0)  -->
<svg version="1.1" id="Слой_1" xmlns="http://www.w3.org/2000/svg" xmlns:xlink="http://www.w3.org/1999/xlink" x="0px" y="0px"
	 viewBox="0 0 555.7 497.3" style="enable-background:new 0 0 555.7 497.3;" xml:space="preserve">
<style type="text/css">
	.st0{fill:#9D93CF;}
	.st1{fill-rule:evenodd;clip-rule:evenodd;fill:#9D93CF;}
</style>
<g>
	<g>
		<path class="st0" d="M437.3,149.5c-1.2,28.8-1.9,57.7-3.8,86.5c-1.8,26.6-4.9,53-10.4,79.2c-8.4,39.8-29.4,69.6-65.9,88.5
			c-24.2,12.5-48,25.7-70.3,41.6c-5.9,4.2-12.6,4.2-18.4,0c-22.1-16-46-29.3-70.2-41.7c-38.8-19.9-59-52.4-66.9-94
			c-4.6-24.3-7.2-48.7-8.9-73.4c-2-29.5-3.1-59.1-3.4-88.7c0-2.5-0.3-5.1-0.6-7.6c-1.3-11.3,6.2-20,17.6-20c23.1,0,46-1.8,68.3-8.4
			c22.3-6.5,42.5-16.8,60.6-31.3c9.5-7.6,15.8-7.7,25.3-0.1c27.3,21.8,58.5,33.9,93,37.8c11.9,1.3,23.9,1.9,35.9,2
			c11.5,0,17.7,6.5,17.7,18.1c0,3.8,0,7.6,0,11.5C437.1,149.5,437.2,149.5,437.3,149.5z M152.3,166.9c1.5,26.4,1.8,52.9,4.2,79.4
			c1.9,21.3,4.3,42.5,9,63.5c6,27,19,48.7,44.2,62.2c22.2,12,44.6,23.6,65.6,37.8c2,1.3,3.7,1,5.5-0.2
			c21.8-14.8,45.6-26.4,68.4-39.5c20.2-11.6,32.4-28.9,38.7-51.1c8.2-29,10.8-58.8,12.8-88.6c1.6-24.1,2-48.2,3-72.3
			c0.1-3.2-0.7-4.9-4.5-5.1c-6.5-0.3-13-1.2-19.5-1.9c-35.5-3.9-68.2-15.5-97.6-35.8c-3.2-2.2-5.5-2.2-8.7,0
			c-32.8,22.5-69.4,33.9-109,37c-14.8,1.2-11.9-2-12.2,12.6C152.2,165.5,152.3,166.2,152.3,166.9z"/>
	</g>
</g>
</svg>
