<?xml version="1.0" encoding="utf-8"?>
<!-- Generator: Adobe Illustrator 24.3.0, SVG Export Plug-In . SVG Version: 6.00 Build 0)  -->
<svg version="1.1" id="Слой_1" xmlns="http://www.w3.org/2000/svg" xmlns:xlink="http://www.w3.org/1999/xlink" x="0px" y="0px"
	 viewBox="0 0 119.44 119.94" style="enable-background:new 0 0 119.44 119.94;" xml:space="preserve">
<style type="text/css">
	.st0{fill:url(#SVGID_1_);}
	.st1{fill:url(#SVGID_2_);}
</style>
<g>
	<linearGradient id="SVGID_1_" gradientUnits="userSpaceOnUse" x1="32.4886" y1="59.9711" x2="86.9549" y2="59.9711">
		<stop  offset="0" style="stop-color:#E68E16"/>
		<stop  offset="1" style="stop-color:#7E217D"/>
	</linearGradient>
	<path class="st0" d="M72.77,70.13c10.6-5.77,16.21-18.16,13.51-29.73C82.87,25.81,69.25,16.86,54.5,19.55
		c-4.31,0.79-8.19,2.61-11.64,5.32c-0.92,0.72,1.24,2.52,1.86,2.04c5.53-4.21,11.75-5.83,18.63-4.84
		c14.3,2.05,23.79,16.47,19.98,30.42c-1.98,7.25-6.4,12.54-13.15,15.86c-0.89,0.44-1.3,1.01-1.24,2c0.05,0.88-0.03,1.78,0.02,2.66
		c0.04,0.63-0.21,0.78-0.79,0.76c-1.07-0.04-2.14-0.05-3.21,0c-0.71,0.04-0.87-0.23-0.86-0.89c0.02-2.62,0.02-5.23,0.02-7.85h-2.76
		c0,0.83,0,1.66,0,2.49c0,1.83-0.02,3.67,0.01,5.5c0.01,0.55-0.17,0.73-0.73,0.75c-2.62,0.09-2.62,0.1-2.62-2.51
		c0-2.07,0-4.15,0-6.22h-2.75c0,2.67-0.01,5.35,0,8.02c0,0.5-0.14,0.72-0.67,0.71c-1.19-0.03-2.39-0.02-3.58,0
		c-0.49,0.01-0.64-0.18-0.62-0.65c0.03-0.89-0.05-1.78,0.02-2.66c0.09-1.11-0.4-1.69-1.38-2.19c-8.12-4.17-12.79-10.8-13.7-19.91
		c-0.64-6.4,1.21-12.14,5.11-17.24c0.27-0.35,3.15-3.44,4.26-4.21c1.68-1.17-0.65-2.01-1.03-2.31c-0.66-0.51-4.74,4.01-5.39,4.83
		c-10.2,12.81-6.55,32.16,7.67,40.29c1.39,0.79,1.92,1.61,1.72,3.11c-0.07,0.54-0.03,0.96-0.73,1.12c-0.53,0.12-0.79,0.64-0.78,1.22
		c0,0.54,0.23,1.06,0.72,1.16c0.8,0.17,0.78,0.66,0.78,1.27c-0.01,5.11,0,10.22-0.01,15.33c0,0.75,0.08,1.48,0.89,1.72
		c0.58,0.17,0.66,0.5,0.71,0.98c0.17,1.64,0.96,2.94,2.21,3.98c0.77,0.64,1.71,0.9,2.61,1.27h11.2c2.85-0.85,4.64-2.61,4.92-5.67
		c0.02-0.25,0.1-0.37,0.36-0.43c0.95-0.23,1.17-0.92,1.16-1.81c-0.02-5.17,0-10.34-0.02-15.51c0-0.53,0-0.9,0.68-1.05
		c0.58-0.13,0.85-0.66,0.83-1.28c-0.02-0.62-0.32-1.09-0.92-1.22c-0.52-0.12-0.62-0.39-0.58-0.84c0.03-0.36,0.05-0.74,0-1.1
		C71.57,71.04,71.95,70.57,72.77,70.13z M67.38,95.57c-0.35,1.44-1.5,2.51-2.98,2.53c-3.15,0.04-6.29,0.04-9.44,0
		c-1.48-0.02-2.66-1.16-2.94-2.56c-0.11-0.57,0-0.75,0.61-0.75c2.35,0.03,4.7,0.01,7.06,0.01c2.35,0,4.7,0.02,7.06-0.01
		C67.36,94.78,67.53,94.94,67.38,95.57z M68.13,92.06c-2.81-0.06-5.63-0.02-8.44-0.02c-2.81,0-5.63-0.04-8.44,0.02
		c-0.86,0.02-0.8-0.4-0.84-0.99c-0.04-0.69,0.17-0.87,0.86-0.87c5.63,0.03,11.26,0.03,16.88,0c0.74,0,0.85,0.25,0.83,0.89
		C68.97,91.71,68.95,92.08,68.13,92.06z M68.15,82.92c-2.81-0.05-5.62-0.02-8.43-0.02c-2.84,0-5.68-0.02-8.52,0.02
		c-0.69,0.01-0.83-0.25-0.78-0.85c0.04-0.5-0.12-1,0.74-1c5.68,0.04,11.36,0.04,17.04,0c0.82-0.01,0.74,0.42,0.78,0.96
		C69.02,82.67,68.88,82.93,68.15,82.92z M68.24,87.48c-5.69-0.03-11.38-0.03-17.07,0c-0.72,0-0.79-0.3-0.75-0.87
		c0.03-0.5-0.13-1.01,0.74-0.99c2.87,0.05,5.75,0.02,8.62,0.02c2.81,0,5.63,0.03,8.44-0.02c0.85-0.02,0.73,0.45,0.75,0.97
		C68.99,87.13,69,87.49,68.24,87.48z M68.1,78.35c-5.6-0.03-11.19-0.03-16.79,0c-0.74,0-0.9-0.22-0.91-0.93
		c-0.01-0.75,0.24-0.91,0.94-0.91c2.81,0.03,5.63,0.01,8.44,0.01c2.78,0,5.57,0.03,8.35-0.02c0.83-0.02,0.82,0.37,0.86,0.98
		C69.02,78.21,68.77,78.35,68.1,78.35z"/>
</g>
<g>
	<linearGradient id="SVGID_2_" gradientUnits="userSpaceOnUse" x1="51.799" y1="44.2525" x2="67.4092" y2="44.2525">
		<stop  offset="0" style="stop-color:#E68E16"/>
		<stop  offset="1" style="stop-color:#7E217D"/>
	</linearGradient>
	<path class="st1" d="M58.16,61.41v-4.19c-2.43-0.04-4.9-0.8-6.36-1.84l1-2.8c1.47,0.96,3.64,1.8,5.98,1.8
		c2.97,0,4.98-1.72,4.98-4.1c0-2.3-1.63-3.73-4.73-4.98c-4.27-1.67-6.91-3.64-6.91-7.28c0-3.47,2.47-6.11,6.28-6.74v-4.19h2.64v4.06
		c2.47,0.08,4.19,0.75,5.44,1.46l-1.05,2.76c-0.88-0.5-2.59-1.46-5.27-1.46c-3.22,0-4.44,1.93-4.44,3.64c0,2.13,1.55,3.22,5.19,4.77
		c4.31,1.76,6.49,3.89,6.49,7.62c0,3.35-2.3,6.45-6.61,7.11v4.35H58.16z"/>
</g>
</svg>
