<svg xmlns="http://www.w3.org/2000/svg" xml:space="preserve" width="35mm" height="35mm" version="1.1" style="shape-rendering:geometricPrecision; text-rendering:geometricPrecision; image-rendering:optimizeQuality; fill-rule:evenodd; clip-rule:evenodd"
viewBox="0 0 940.19 940.19">
 <g>
  <path fill="#9D93CF" d="M473.83 59.89l-361.73 602.9 723.47 0 -361.74 -602.9zm-3.73 345.17c36.68,0 66.4,29.11 66.4,65.03 0,35.91 -29.73,65.03 -66.4,65.03 -36.68,0 -66.4,-29.12 -66.4,-65.03 0,-35.92 29.73,-65.03 66.4,-65.03zm261.5 296.59l70.2 65.19c1.76,-15.32 2.2,-31.55 3.39,-47.43l-22.81 -17.76 -50.78 0zm-78.34 0l103.34 136.66c6.9,-2.4 13.39,-5.98 19.36,-11.09 5.3,-4.55 9.54,-9.76 12.93,-15.52l-99.49 -110.05 -36.14 0zm-60.24 0l68.26 133.96c15.98,1.53 32.23,4.45 47.89,6l-87.65 -139.96 -28.5 0zm-50.5 0l45.34 149.7c6.73,-4.77 13.76,-8.71 21.23,-11.47 3.95,-1.45 7.99,-2.55 12.11,-3.36l-54.31 -134.87 -24.38 0zm-45.48 0l24.92 213.51c11.79,-10.6 22.99,-23.27 34.5,-35.35l-37.08 -178.17 -22.33 0zm-43.68 0l-14.34 230.97c8.99,4.78 18.7,7.63 29.51,7.57 4.5,-0.03 8.84,-0.56 13.04,-1.54l-6.42 -237 -21.79 0zm-44.63 0l-40.12 163.9c11.35,10.73 21.82,23.16 32.48,34.76l30.24 -198.66 -22.61 0zm-48.57 0l-59.65 134.49c11.25,0.26 22.08,1.77 32.13,5.46 1.41,0.52 2.81,1.08 4.18,1.68l48.34 -141.63 -25 0zm-56.63 0l-95.29 141.09c15.51,0.47 32.11,-1.62 48.77,-3.58l76.18 -137.51 -29.66 0zm-71.58 0l-91 93.98c3.78,12.21 9.93,23.04 20.15,31.59 1.45,1.21 2.94,2.35 4.46,3.39l104.67 -128.96 -38.28 0zm-97.4 45.25l52.19 -45.25 -55.13 0c2.03,14.68 2.33,30.13 2.94,45.25zm795.1 -181.31l-123.81 -29.06 23.31 38.84 66.21 21.67c13.64,-9.26 25.98,-19.16 34.29,-31.45zm-4.75 -81.07l-155.83 -9.28 17.09 28.47 154.04 22.49c-1.12,-14.43 -7.13,-28.18 -15.3,-41.69zm-49.04 -72.77l-135.77 15.19 13.79 22.98 144.14 -3.74c-8.23,-11.27 -16.14,-22.66 -22.16,-34.43zm-7.33 -70.59l-153.21 44.5 12.01 20.02 137.98 -27.54c-1.18,-12.13 0.38,-24.53 3.22,-36.98zm22.49 -90.29l-198.4 96.96 11.19 18.66 177.45 -68.52c5.02,-16.11 9.35,-31.94 9.75,-47.1zm-47.13 -65.73l-173.43 125.76 11.1 18.49 197.73 -118.75c-8.7,-11.93 -21.11,-19.73 -35.4,-25.5zm-87.48 -25.1l-108.95 112.51 11.7 19.5 138.63 -120.2c-14.16,-3.38 -28.36,-6.85 -41.39,-11.81zm-54.15 -48.78l-80.27 118.85 13.17 21.94 89.57 -110.34c-9.28,-8.35 -16.4,-18.89 -22.47,-30.45zm-41.81 -86.59l-68.74 154.96 15.93 26.56 76.13 -137.43c-6.64,-16.23 -13.59,-31.83 -23.33,-44.1zm-81.59 -18.08l-26.36 107.69 21.1 35.17 50.54 -148.1c-14.9,-3.11 -30.01,-0.3 -45.28,5.24zm-71.09 33.13l19.41 32.35 6.78 -44.56c-8.7,4.38 -17.44,8.63 -26.2,12.21zm-88.28 -2.54l3.57 30.63 14.13 -23.56c-5.94,-1.96 -11.84,-4.38 -17.71,-7.07zm-89.48 -37.18l44.86 148.12 21.75 -36.25 -20.15 -96.8c-15.55,-7.78 -30.99,-14.08 -46.46,-15.08zm-69.08 49.96l79.38 155.78 16.1 -26.83 -67.08 -166.59c-12.01,9.2 -20.8,22.59 -28.4,37.65zm-39.57 80.51l91.5 121.01 13.08 -21.81 -84.77 -135.36c-5.79,12.95 -12.03,25.45 -19.81,36.16zm-63.53 38.34l131.41 122.04 11.48 -19.13 -105.78 -117c-11.17,6.46 -23.9,10.69 -37.11,14.09zm-88.81 29.77l198.45 128.54 10.75 -17.92 -166.64 -129.71c-16.04,4.2 -30.92,9.66 -42.56,19.09zm-19.07 80.69l196.16 83.45 10.71 -17.86 -209.16 -111.12c-2.98,14.33 -1.28,29.69 2.29,45.52zm20.84 84.7l153.02 35.92 11.35 -18.93 -172.6 -56.49c3.77,13.29 7.03,26.56 8.23,39.5zm-20.2 68.48l148.38 8.84 12.85 -21.43 -144.15 -21.04c-3.64,11.78 -9.83,22.88 -17.08,33.63zm-50.59 77.33l169.24 -18.94 15.68 -26.13 -161.5 4.19c-9.92,13.32 -18.76,26.72 -23.42,40.87zm26.17 76.04l104.24 -30.28 20.94 -34.89 -151.28 30.19c4.89,13.68 14.38,24.89 26.09,34.98zm78.98 11.83l-40.63 15.69c7.49,4.99 14.96,10.03 22.01,15.33l18.62 -31.02zm368.67 -360.52l-201.52 335.88 403.04 0 -201.52 -335.88z"/>
 </g>
</svg>
