<?xml version="1.0" encoding="utf-8"?>
<!-- Generator: Adobe Illustrator 24.3.0, SVG Export Plug-In . SVG Version: 6.00 Build 0)  -->
<svg version="1.1" id="Слой_1" xmlns="http://www.w3.org/2000/svg" xmlns:xlink="http://www.w3.org/1999/xlink" x="0px" y="0px"
	 viewBox="0 0 555.7 497.3" style="enable-background:new 0 0 555.7 497.3;" xml:space="preserve">
<style type="text/css">
	.st0{fill:#9D93CF;}
	.st1{fill-rule:evenodd;clip-rule:evenodd;fill:#9D93CF;}
</style>
<g>
	<path class="st0" d="M265.1,30.2c8.5,0,17,0,25.4,0c0.5,0.7,1.2,0.6,1.9,0.6c2.4,0.1,4.9-0.1,7.2,0.4c4.9,1.1,9.9,1,14.7,2.2
		c3.3,0.8,6.7,1.1,10,1.9c6.6,1.6,13.2,3.3,19.7,5.5c5.6,1.9,11.2,3.9,16.7,6.2c6.1,2.6,12.1,5.6,18,8.8c5.9,3.3,11.8,6.7,17.4,10.5
		c9.5,6.5,18.5,13.6,26.9,21.5c9.5,9,18.2,18.7,25.9,29.2c7.3,10,13.7,20.6,19.2,31.6c2.7,5.5,5.1,11.1,7.3,16.8
		c1.6,4,3.1,8.1,4.3,12.2c1.3,4.3,2.5,8.6,3.6,13c1.5,5.9,2.8,11.9,3.7,17.8c0.9,6.4,2.2,12.7,2.1,19.2c0,0.6,0,1.3,0.6,1.7
		c0,8.5,0,17,0,25.4c-0.7,0.5-0.6,1.2-0.6,1.9c-0.1,2.4,0.1,4.8-0.3,7c-1.2,6.4-1.7,12.9-3.1,19.2c-0.9,4.3-1.8,8.6-2.9,12.8
		c-1.1,4.3-2.4,8.5-3.8,12.7c-1.8,5.6-3.9,11.1-6.1,16.5c-3.5,8.5-7.7,16.6-12.4,24.5c-7.5,12.5-16,24.3-25.8,35
		C428,392,421,399,413.3,405.3c-9.2,7.5-18.8,14.4-29.2,20.3c-5,2.8-10,5.6-15.2,8.1c-5.1,2.4-10.4,4.6-15.7,6.7
		c-4.4,1.7-8.8,3.2-13.2,4.6c-4.7,1.4-9.4,2.6-14.2,3.8c-4.7,1.1-9.5,2.2-14.3,2.9c-6.4,0.9-12.7,2.2-19.2,2.1c-0.6,0-1.3,0-1.7,0.6
		c-8.5,0-17,0-25.4,0c-0.5-0.8-1.4-0.6-2.1-0.6c-2.4-0.1-4.8,0.1-7-0.4c-4.9-1.1-9.9-1-14.8-2.2c-3.3-0.8-6.7-1.1-10-1.9
		c-6.6-1.6-13.2-3.3-19.7-5.5c-5.6-1.9-11.2-3.9-16.7-6.2c-8.5-3.5-16.6-7.7-24.5-12.4c-12.4-7.4-24.2-15.9-34.9-25.7
		c-7.5-6.8-14.5-14.1-21-21.9c-4.9-5.9-9.4-12-13.6-18.4c-5-7.6-9.5-15.5-13.6-23.7c-2.7-5.4-5-10.9-7.2-16.4
		c-1.6-4-3.1-8.1-4.3-12.2c-1.3-4.3-2.5-8.6-3.6-13c-1.5-5.9-2.9-11.9-3.7-17.8c-0.9-6.4-2.2-12.7-2.1-19.2c0-0.6,0-1.3-0.6-1.7
		c0-8.5,0-17,0-25.4c0.8-0.5,0.6-1.4,0.6-2.1c0.1-2.3-0.1-4.8,0.4-7c1.1-4.9,1-10,2.2-14.9c0.8-3.2,1.1-6.6,1.9-9.8
		c1.6-6.6,3.3-13.2,5.5-19.7c1.9-5.6,3.9-11.2,6.2-16.7c3.8-8.8,8.1-17.3,13.1-25.5c7.3-12.2,15.7-23.6,25.3-34.1
		c9.3-10.1,19.3-19.4,30.3-27.5c9.2-6.8,18.9-12.8,29-18.1c8.2-4.3,16.7-8,25.3-11.2c6.7-2.4,13.5-4.4,20.4-6.1c6-1.5,12-2.9,18-3.8
		c6.3-0.9,12.6-2.2,19-2.1C263.9,30.8,264.6,30.9,265.1,30.2z M455,242.3c0.1-97.5-79.4-177.2-177-177.3
		c-97.6-0.1-177.1,79.4-177.4,176.7c-0.2,97.9,79.5,177.6,177.2,177.6C375.4,419.4,455,339.8,455,242.3z"/>
	<path class="st0" d="M209.7,145.3c7.9,0,15.8,0,23.7,0c1.7,0,2.2-0.5,2.2-2.2c-0.1-13.5,0-27.1,0-40.6c0-1.1-0.1-2.2,0.5-3.3
		c1.1-2.1,3.1-2.4,5.1-2.5c4.2-0.1,8.4-0.1,12.5,0c4.5,0.1,6,1.6,6,6.1c0,13.4,0,26.9,0,40.3c0,1.7,0.4,2.2,2.1,2.2
		c6.7-0.1,13.4-0.1,20.1,0c1.6,0,2-0.5,2-2c0-13.3,0-26.6,0-39.9c0-0.8,0-1.7,0.1-2.5c0.5-2.4,1.9-3.9,4.4-4
		c5.5-0.2,10.9-0.6,16.4,0.2c1.7,0.3,2.6,1.4,3.1,2.9c0.3,1.1,0.4,2.3,0.4,3.5c0,13.1,0,26.1,0,39.2c0,2.5,0,2.5,2.5,2.5
		c2.5,0,5.1-0.1,7.6,0c11,0.5,20.8,4.3,29.3,11.3c7.7,6.3,13.2,14.1,16.9,23.3c2.2,5.4,3.2,11.1,3.9,16.9c0.6,4.9,0,9.7-0.6,14.4
		c-0.6,5.1-2.1,10.2-4.2,14.9c-1.5,3.4-3.3,6.5-5.3,9.5c-0.4,0.7-0.3,1.1,0.5,1.7c4.5,3.5,8.5,7.6,11.7,12.4
		c2.8,4.2,5.1,8.7,6.8,13.5c2.9,7.9,3.7,16,3.2,24.2c-0.3,5.2-1.4,10.2-3.1,15.1c-1.9,5.6-4.6,10.8-8.2,15.5
		c-5.1,6.9-11.5,12.3-19.2,16c-7.2,3.5-14.8,5.1-22.7,5c-5.7-0.1-11.3,0.1-17-0.1c-1.8,0-2.2,0.6-2.2,2.2c0,13.1,0,26.3,0,39.4
		c0,1.5,0,3.1-0.7,4.5c-1,2-2.9,2.4-4.9,2.5c-4.4,0.1-8.7,0.1-13.1,0c-3.9-0.1-5.7-2-5.7-6c0-13.4,0-26.9,0-40.3
		c0-2.3,0-2.3-2.3-2.3c-6.6,0-13.2,0-19.8,0c-1.6,0-2.1,0.4-2.1,2.1c0.1,13.5,0,27.1,0,40.6c0,1,0,2-0.3,3c-0.9,2.3-2.9,2.9-5,2.9
		c-4.5,0.1-9.1,0.2-13.6,0c-3.3-0.2-5.3-1.4-5.2-5.6c0.1-13.5,0-27,0-40.5c0-2.5,0-2.5-2.5-2.5c-14.7,0-29.3-0.1-44,0
		c-4.5,0-6.4-2.9-5.3-7.2c0.9-3.6,1.7-7.3,2.2-11c0.7-5.4,2.4-5.8,6.7-6.5c7.9-1.3,13.6-5.3,16.7-12.9c1.7-4,2-8.1,2-12.2
		c0.1-30.3,0.1-60.5,0-90.8c0-5.4-0.7-10.7-3.6-15.5c-3.2-5.4-7.8-8.9-13.7-11.1c-3.1-1.2-6.4-1.4-9.5-2.3c-1.9-0.5-3.4-2-3.4-4
		c-0.1-5.4-0.1-10.7,0-16.1c0-2.4,2.1-4.1,4.8-4.1C193.8,145.3,201.7,145.3,209.7,145.3z M287.2,254.4c-8.4,0-16.8,0-25.3,0
		c-1.7,0-2.3,0.4-2.3,2.2c0.1,15.2,0.1,30.5,0,45.7c0,1.5,0.4,2,2,2c15.7-0.1,31.3,0,47,0c3.5,0,6.8-0.7,9.9-2.1
		c5.7-2.4,9.9-6.6,12.8-12.1c1.8-3.5,2.4-7.3,2.4-11c0-2.3-0.3-4.7-1-7.1c-1.5-4.5-3.9-8.4-7.4-11.5c-5.1-4.4-11-6.3-17.8-6.2
		C300.7,254.5,294,254.4,287.2,254.4z M259.7,206.4c0,7.8,0,15.5,0,23.3c0,1.3,0.3,1.8,1.7,1.8c11.9,0,23.9,0,35.8,0
		c5.1,0,9.8-1.5,13.9-4.5c5.4-3.8,8.8-9,10.1-15.6c1.7-8.6-0.7-16-6.6-22.2c-4.9-5.1-11.1-7.5-18.2-7.5c-11.6,0-23.2,0-34.8,0
		c-1.6,0-1.9,0.6-1.9,2C259.7,191.2,259.7,198.8,259.7,206.4z"/>
</g>
</svg>
