<?xml version="1.0" encoding="utf-8"?>
<!-- Generator: Adobe Illustrator 24.3.0, SVG Export Plug-In . SVG Version: 6.00 Build 0)  -->
<svg version="1.1" id="Слой_1" xmlns="http://www.w3.org/2000/svg" xmlns:xlink="http://www.w3.org/1999/xlink" x="0px" y="0px"
	 viewBox="0 0 555.7 497.3" style="enable-background:new 0 0 555.7 497.3;" xml:space="preserve">
<style type="text/css">
	.st0{fill:#9D93CF;}
	.st1{fill-rule:evenodd;clip-rule:evenodd;fill:#9D93CF;}
</style>
<g>
	<g>
		<path class="st0" d="M58.1,230c0-0.5,0-1,0-1.5c0.2-0.5,0.4-0.9,0.7-1.4c26.5-55.6,53-111.3,79.4-166.9c0.9-1.9,2.2-2.7,4.3-2.7
			c90.3,0,180.5,0,270.8,0c2.1,0,3.4,0.8,4.3,2.7c12.7,26.7,25.4,53.4,38.1,80.1c14,29.4,28,58.8,42,88.1c0,0.5,0,1,0,1.5
			c-0.5,1.1-1.4,1.9-2.2,2.7c-10.9,10.5-21.8,20.9-32.8,31.4c-42,40.3-84.1,80.6-126.1,120.9c-18.6,17.9-37.3,35.7-55.9,53.6
			c-1.9,1.8-3.6,1.8-5.5,0c-1.5-1.4-3-2.9-4.5-4.3c-45.7-43.8-91.4-87.6-137.1-131.4c-24.2-23.2-48.4-46.4-72.7-69.6
			C59.8,232.2,58.7,231.3,58.1,230z M278.1,109.7c-34.3,0-68.6,0-102.9,0c-1.6,0-1.6,0-1.6,1.5c0,16,0,32,0,48c0,1.7,0,1.7,1.7,1.7
			c24.5,0,49,0,73.5,0c1.1,0,1.4,0.3,1.3,1.3c-0.1,6.3,0,12.5,0,18.8c0,4,0,8,0,12c0,0.8-0.2,1-1,1c-1.2,0-2.3,0.1-3.5,0.1
			c-10,0.4-19.9,1.3-29.8,2.5c-10.8,1.3-21.4,3-32,5.2c-7.8,1.6-15.6,3.4-23.2,5.6c-3.4,1-6.4,2.9-9.5,4.4c-2.5,1.2-4.6,2.8-6.5,4.7
			c-1.5,1.6-2.6,3.3-3.1,5.4c-0.4,1.5-0.4,3.1,0.1,4.5c1.1,2.8,3.3,4.8,5.6,6.6c4.3,3.2,9.2,5.2,14.2,7.1c5.5,2,11.1,3.5,16.8,4.9
			c2.7,0.7,5.5,1.3,8.2,1.8c2.9,0.6,5.8,1.1,8.7,1.6c2,0.4,4,0.9,6,1c2.6,0.1,5,0.8,7.6,1c2.3,0.2,4.7,0.5,7,0.8
			c1.5,0.2,3.1,0.2,4.5,0.5c2.1,0.5,4.2,0.5,6.3,0.7c2.9,0.2,5.8,0.8,8.7,0.6c0.1,0,0.2,0,0.3,0c3,0.9,6.1-0.1,9.1,0.9
			c1,0.3,2.2,0.1,3.3,0.1c2.1,0,2.1,0,2.1,2.1c0,34.3,0,68.6,0,102.9c0,0.4,0,0.9,0,1.3c0,0.9,0.5,1.3,1.4,1.3c0.4,0,0.7,0,1.1,0
			c17.1,0,34.3,0,51.4,0c1.7,0,1.7,0,1.7-1.7c0-34.5,0-69,0-103.5c0-0.4,0-0.7,0-1.1c0.1-0.8,0.5-1.3,1.2-1.3
			c2.2-0.1,4.5-0.3,6.7-0.4c3.8-0.1,7.6-0.8,11.4-0.6c0.2,0,0.4-0.1,0.6-0.1c2.3-0.2,4.6-0.6,6.9-0.7c2-0.1,4-0.7,6.1-0.6
			c0.1,0,0.3-0.1,0.4-0.1c1.8-0.2,3.5-0.5,5.3-0.7c1.6-0.2,3.2-0.3,4.8-0.6c1.6-0.4,3.2-0.4,4.7-0.6c2.4-0.3,4.7-0.7,7.1-1.1
			c2.7-0.4,5.4-0.9,8-1.5c2.5-0.5,5-1,7.5-1.6c4.3-1,8.5-2.2,12.7-3.4c4.1-1.2,8.1-2.7,11.9-4.4c4.3-2,8.4-4.2,11.5-7.9
			c1.1-1.3,1.9-2.7,2.1-4.4c0.3-3.1-0.9-5.6-3-7.8c-1.4-1.5-3-2.7-4.7-3.7c-1.7-1-3.4-2.1-5.2-2.9c-2.7-1.1-5.4-2.2-8.1-3.2
			c-1.6-0.6-3.2-1.2-4.8-1.6c-3-0.9-6-1.8-9-2.5c-2-0.5-4-1.6-6.2-1c-0.2,0.1-0.5,0-0.8-0.1c-3.8-1.3-7.7-1.8-11.5-2.6
			c-1-0.2-2.2,0-3.1-0.4c-2.6-1-5.4-1.1-8.1-1.5c-3.7-0.6-7.4-0.7-11.1-1.2c-3.2-0.5-6.4-1.2-9.7-1.3c-2.8-0.1-5.6-0.2-8.4-0.5
			c-4.7-0.4-9.3-1.1-14-1c-1,0-1.3-0.3-1.3-1.3c0-9.9,0-19.7,0-29.6c0-2,0.3-2.3,2.3-2.3c24.4,0,48.7,0,73.1,0c1.6,0,1.6,0,1.6-1.6
			c0-16,0-32,0-48c0-1.7,0-1.7-1.7-1.7C346.6,109.7,312.3,109.7,278.1,109.7z"/>
		<path class="st0" d="M250,216.9c0,5.8,0,11.6,0,17.4c0,1.1,0.3,1.3,1.4,1.4c4.2,0.5,8.4,0.1,12.6,0.5c9.3,0.8,18.6,0.4,27.8,0.3
			c3.5,0,7.1-0.2,10.6-0.3c1,0,1.8-0.6,2.8-0.5c0.4,0,0.5-0.3,0.5-0.6c0-0.3,0-0.7,0-1c0-11.5,0-22.9,0-34.4c0-1.1,0.2-1.4,1.3-1.3
			c2.8,0.3,5.7,0.3,8.6,0.3c0.6,0,1.3,0.2,1.9,0.3c1.3,0.2,2.5,0.3,3.8,0.3c4.9-0.1,9.7,0.6,14.6,1c2.6,0.2,5.2,1,7.8,1.2
			c4.8,0.5,9.4,1.7,14.2,2.1c3.1,0.2,6.1,1.1,9.1,1.8c3.4,0.8,7,1,10.4,2.1c3.3,1,6.6,1.7,9.8,3c2.1,0.9,4.3,1.7,6.3,2.7
			c2.3,1.2,4.5,2.6,6.3,4.6c1.8,2,2.3,5.4-0.1,7.7c-3.2,3.2-7,4.9-11,6.7c-2.5,1.1-5.2,2-7.8,2.7c-2.7,0.7-5.3,1.6-8,2.1
			c-1.4,0.2-2.8,0.7-4.2,1c-1.9,0.4-3.8,0.7-5.8,1.1c-2.2,0.4-4.5,0.8-6.7,1.2c-1,0.2-2,0.4-3,0.5c-2.5,0.2-5,0.7-7.6,1
			c-2.9,0.3-5.7,0.6-8.6,0.9c-3,0.3-5.9,0.4-8.9,0.9c-4.9,0.7-9.7,0.2-14.6,0.4c-0.8,0-1.7,0.1-2.5,0.4c-0.8,0.3-1.8,0.3-2.7,0.5
			c-3.8,0.5-7.6,0.1-11.4,0.5c-7.7,0.8-15.3,0.2-23,0.4c-4,0.1-8.1,0.3-12.1-0.1c-4-0.4-8,0-11.9-0.5c-2.6-0.3-5.3,0-7.8-0.3
			c-2.7-0.3-5.5-0.1-8.2-0.7c-0.2-0.1-0.4-0.1-0.7-0.1c-2.8,0.2-5.6-0.2-8.4-0.5c-3.3-0.4-6.7-0.5-10-1.1c-1.8-0.3-3.6-0.6-5.4-0.6
			c-1,0-1.9-0.3-2.9-0.5c-2.5-0.4-5-0.6-7.5-1.1c-1.9-0.4-3.9-0.7-5.8-1c-3.1-0.6-6.2-1.2-9.3-1.9c-5-1.1-9.8-2.4-14.6-4.2
			c-3.6-1.3-7.1-2.7-10.2-4.8c-1.5-1-2.7-2.3-3.9-3.7c-1.4-1.7-1-4.9,0.7-6.9c2.1-2.4,4.8-4,7.7-5.3c2.9-1.3,5.9-2.5,9-3.4
			c12.7-3.8,25.7-5.8,38.9-7.3c11.6-1.4,23.3-2.3,35-3.2c0.9-0.1,1.8,0,2.6-0.1c0.9-0.1,1.1,0.3,1,1c0,0.3,0,0.5,0,0.8
			C250,205.7,250,211.3,250,216.9z"/>
	</g>
</g>
</svg>
