<?xml version="1.0" encoding="utf-8"?>
<!-- Generator: Adobe Illustrator 24.3.0, SVG Export Plug-In . SVG Version: 6.00 Build 0)  -->
<svg version="1.1" id="Слой_1" xmlns="http://www.w3.org/2000/svg" xmlns:xlink="http://www.w3.org/1999/xlink" x="0px" y="0px"
	 viewBox="0 0 555.7 497.3" style="enable-background:new 0 0 555.7 497.3;" xml:space="preserve">
<style type="text/css">
	.st0{fill:#9D93CF;}
	.st1{fill-rule:evenodd;clip-rule:evenodd;fill:#9D93CF;}
</style>
<g>
	<g>
		<path class="st0" d="M103.5,330c-1-4.9,2.2-8.9,3.4-13.2c1.6-5.9,3.4-11.9,5.9-17.5c3-6.9,4.8-14.1,7.5-21c3-7.7,5-15.7,7.6-23.6
			c1.4-4.4-1.9-6.9-4-9.7c-2.2-2.8-4.2-5.8-6.6-8.4c-1.8-2-1.8-4,0.5-5.6c2.8-2,2.2-4,0.2-6c-0.6-0.7-1.3-1.3-1.9-2
			c-4-4-4-4.1-0.3-8.6c1.6-1.9,1.7-3.8,0-5.6c-0.8-0.8-1.7-1.6-2.6-2.2c-3.8-2.7-4-3.5-0.4-6.3c2.3-1.8,2.7-4.2,1.9-6.5
			c-2.9-7.8-3.1-16.2-4.6-24.3c-1.4-7-2.4-14.2-3.7-21.3c-1.5-8.5,2.6-15.1,4.6-22.4c1.8-6.7,5-13,6.9-19.7c1.2-4.3,3-8.4,4.4-12.6
			c1-3,3-3,5.5-2.2c6.9,2,13.1,5.5,19.7,8.2c8.6,3.5,17.2,7.1,25.7,10.7c10,4.3,20,8.7,30,12.9c7.6,3.2,15.6,5.6,22.9,9.5
			c6.9,3.7,14,3,21.2,3c22.1,0.1,44.3,0,66.4,0c6.5,0,12.7-0.2,18.8-3c10.3-4.7,21-8.6,31.5-12.9c8.9-3.6,17.9-7.1,26.8-10.9
			c10.2-4.3,20.9-7.6,30.8-12.7c2.9-1.5,6.2-2.4,9.4-3.3c2.5-0.7,4.6,0.1,5.5,2.8c2.6,8,5.5,15.9,7.8,24c2,6.9,4.4,13.7,7,20.4
			c1.1,2.9,0.5,5.2,0,8c-1.6,7.5-3,15-4.4,22.6c-0.6,3-1,6.1-1.7,9.1c-1.3,5.6-1.8,11.3-3.6,16.8c-0.9,2.7,1.1,4.2,3.1,5.6
			c2.9,2,2.9,2.5,0,4.7c-1.2,0.9-2.5,1.7-3.6,2.7c-2.5,2.3-2.4,3.8,0.1,6c3.9,3.4,3.9,3.9,0.1,7.6c-0.5,0.5-1,1-1.5,1.5
			c-4.2,3.9-4.3,3.9-0.6,8.1c1.6,1.8,1.7,3.5-0.1,5.1c-2.9,2.7-5.1,6-7.7,8.8c-3.8,4.2-3.1,8.5-1.6,13.1c2,6,4,11.9,6,17.9
			c2.3,6.8,4.6,13.6,7,20.4c1.2,3.5,2.2,7,3.4,10.4c1.9,5.3,3.4,10.7,5.4,15.9c1.1,2.9,1.1,6,0.4,8.9c-3.6,13.3-7.8,26.5-11.2,39.8
			c-1.3,5.3-2.6,10.7-4,16c-1.2,4.7-2.3,9.5-3.9,14.2c-0.8,2.4-2.1,3-4.8,2.1c-22-7.6-44-15.1-66-22.6c-4.1-1.4-8.4-1.4-12.6-1.5
			c-1.4,0-2.3,0.9-3.4,1.5c-10.7,6.7-21.5,13.5-32.1,20.3c-1.9,1.2-3.8,1.8-6.1,1.8c-17-0.1-33.9-0.1-50.9,0c-2.5,0-4.7-0.6-6.9-1.8
			c-11.9-6.6-23.9-13-35.7-19.7c-5.4-3-10.9-3.1-16.3-1.3c-23.6,7.7-47.2,15.7-70.7,23.8c-2.7,0.9-3.9,1.3-4.8-2.3
			c-4-15.9-8.2-31.7-12.7-47.5c-2-7.2-3.8-14.4-5.9-21.6C103.4,333.1,103.6,331.5,103.5,330z M283.4,375.2c8.3,0,16.6-0.1,24.9,0
			c2.1,0,2.9-0.8,2.8-2.9c-0.1-5.4,0.3-10.8-0.2-16.2c-0.9-10.8-1.5-13.3-13.6-13.1c-10.7,0.2-21.4,0-32.1,0
			c-5.6,0-8.9,2.3-10.2,7.8c-1.7,7.4-2.2,15-2.2,22.6c0,1.6,0.6,2.3,2.3,2.1C264.6,374.3,274,375.4,283.4,375.2z M238.9,279.9
			c-1.1-0.1-1.9,0.4-2.8,0.7c-6.4,2.2-12.2,5.7-18.5,8.3c-1.3,0.6-3.1,0.8-2.9,2.8c0.2,2,1.7,2.6,3.4,2.8c2.9,0.3,5.8,0.7,8.3,2
			c3.2,1.7,6.7,2.3,10.1,3.5c3.8,1.3,7.9,1.1,11.5,2.9c0.9,0.4,2.2,0.5,3-0.3c1-1,0.3-2.2-0.2-3.2c-2.7-5.7-5.5-11.3-8.5-16.9
			C241.7,281.3,240.8,279.7,238.9,279.9z M344.9,291.5c0-0.9-0.6-1.5-1.4-1.8c-6.7-3.1-13.3-6.2-20-9.1c-3.2-1.3-4.9-0.3-6.2,3
			c-1.1,2.7-2.1,5.4-3.2,8c-1.2,2.6-2.6,5.1-3.8,7.7c-0.5,1-1.2,2.3-0.2,3.2c1,0.9,2.3,0.1,3.2-0.4c1.3-0.8,2.7-1.6,4.1-1.6
			c8.9,0.3,16.2-5.8,24.9-6.2C343.8,294.1,344.8,293.2,344.9,291.5z"/>
	</g>
</g>
</svg>
