<svg width="85" height="100" viewBox="0 0 85 100" fill="none" xmlns="http://www.w3.org/2000/svg">
<g filter="url(#filter0_bd_2_4946)">
<path d="M58.75 36.125C65.5 37.7917 70.6667 40.8333 74.25 45.25C77.9167 49.5833 79.75 54.8333 79.75 61C79.75 66.25 78.2917 71.1667 75.375 75.75C72.5417 80.25 68.125 83.9167 62.125 86.75C56.125 89.5833 48.6667 91 39.75 91C33.5833 91 27.4167 90.3333 21.25 89C15.1667 87.6667 9.83333 85.7083 5.25 83.125L15.25 61.375C18.8333 63.4583 22.6667 65.0417 26.75 66.125C30.9167 67.2083 34.9167 67.75 38.75 67.75C42.1667 67.75 44.9167 67.1667 47 66C49.0833 64.8333 50.125 63.1667 50.125 61C50.125 57 46.6667 55 39.75 55H28.125V36.875L41 23.75H9.75V1.49999H75V19.625L58.75 36.125Z" fill="white" fill-opacity="0.3" shape-rendering="crispEdges"/>
<path d="M58.75 36.125L58.0375 35.4233L56.805 36.6748L58.5103 37.0958L58.75 36.125ZM74.25 45.25L73.4734 45.88L73.4799 45.8881L73.4866 45.8959L74.25 45.25ZM75.375 75.75L74.5313 75.2131L74.5288 75.2172L75.375 75.75ZM62.125 86.75L62.552 87.6543L62.125 86.75ZM21.25 89L21.0359 89.9768L21.0387 89.9774L21.25 89ZM5.25 83.125L4.34143 82.7073L3.95674 83.544L4.75899 83.9962L5.25 83.125ZM15.25 61.375L15.7526 60.5105L14.8012 59.9573L14.3414 60.9573L15.25 61.375ZM26.75 66.125L26.4936 67.0916L26.4984 67.0928L26.75 66.125ZM47 66L46.5114 65.1275L47 66ZM28.125 55H27.125V56H28.125V55ZM28.125 36.875L27.4111 36.1747L27.125 36.4664V36.875H28.125ZM41 23.75L41.7139 24.4503L43.3818 22.75H41V23.75ZM9.75 23.75H8.75V24.75H9.75V23.75ZM9.75 1.49999V0.499992H8.75V1.49999H9.75ZM75 1.49999H76V0.499992H75V1.49999ZM75 19.625L75.7125 20.3267L76 20.0347V19.625H75ZM58.5103 37.0958C65.0971 38.7222 70.0554 41.6672 73.4734 45.88L75.0266 44.62C71.2779 39.9995 65.9029 36.8611 58.9897 35.1542L58.5103 37.0958ZM73.4866 45.8959C76.9869 50.0326 78.75 55.0479 78.75 61H80.75C80.75 54.6188 78.8465 49.134 75.0134 44.6041L73.4866 45.8959ZM78.75 61C78.75 66.053 77.3496 70.7844 74.5313 75.2131L76.2187 76.2869C79.2337 71.549 80.75 66.447 80.75 61H78.75ZM74.5288 75.2172C71.8194 79.5203 67.5683 83.0737 61.698 85.8457L62.552 87.6543C68.6817 84.7597 73.2639 80.9797 76.2212 76.2828L74.5288 75.2172ZM61.698 85.8457C55.8692 88.5983 48.5672 90 39.75 90V92C48.7661 92 56.3808 90.5684 62.552 87.6543L61.698 85.8457ZM39.75 90C33.656 90 27.5602 89.3412 21.4613 88.0226L21.0387 89.9774C27.2732 91.3254 33.5107 92 39.75 92V90ZM21.4641 88.0232C15.4605 86.7073 10.2236 84.7804 5.74101 82.2538L4.75899 83.9962C9.44305 86.6363 14.8728 88.626 21.0359 89.9768L21.4641 88.0232ZM6.15857 83.5427L16.1586 61.7927L14.3414 60.9573L4.34143 82.7073L6.15857 83.5427ZM14.7474 62.2395C18.4093 64.3686 22.3257 65.9858 26.4936 67.0916L27.0064 65.1584C23.0077 64.0975 19.2573 62.5481 15.7526 60.5105L14.7474 62.2395ZM26.4984 67.0928C30.7373 68.1949 34.8221 68.75 38.75 68.75V66.75C35.0112 66.75 31.0961 66.2217 27.0016 65.1572L26.4984 67.0928ZM38.75 68.75C42.2685 68.75 45.2054 68.1511 47.4886 66.8725L46.5114 65.1275C44.628 66.1822 42.0649 66.75 38.75 66.75V68.75ZM47.4886 66.8725C49.8485 65.551 51.125 63.5715 51.125 61H49.125C49.125 62.7618 48.3182 64.1157 46.5114 65.1275L47.4886 66.8725ZM51.125 61C51.125 58.6435 50.0706 56.8133 48.0319 55.6343C46.0764 54.5034 43.272 54 39.75 54V56C43.1447 56 45.5278 56.4966 47.0306 57.3657C48.4503 58.1867 49.125 59.3565 49.125 61H51.125ZM39.75 54H28.125V56H39.75V54ZM29.125 55V36.875H27.125V55H29.125ZM28.8389 37.5753L41.7139 24.4503L40.2861 23.0497L27.4111 36.1747L28.8389 37.5753ZM41 22.75H9.75V24.75H41V22.75ZM10.75 23.75V1.49999H8.75V23.75H10.75ZM9.75 2.49999H75V0.499992H9.75V2.49999ZM74 1.49999V19.625H76V1.49999H74ZM74.2875 18.9233L58.0375 35.4233L59.4625 36.8267L75.7125 20.3267L74.2875 18.9233Z" fill="url(#paint0_linear_2_4946)" fill-opacity="0.4"/>
</g>
<defs>
<filter id="filter0_bd_2_4946" x="-94.75" y="-98.5" width="274.5" height="289.5" filterUnits="userSpaceOnUse" color-interpolation-filters="sRGB">
<feFlood flood-opacity="0" result="BackgroundImageFix"/>
<feGaussianBlur in="BackgroundImage" stdDeviation="50"/>
<feComposite in2="SourceAlpha" operator="in" result="effect1_backgroundBlur_2_4946"/>
<feColorMatrix in="SourceAlpha" type="matrix" values="0 0 0 0 0 0 0 0 0 0 0 0 0 0 0 0 0 0 127 0" result="hardAlpha"/>
<feOffset dy="4"/>
<feGaussianBlur stdDeviation="2.5"/>
<feComposite in2="hardAlpha" operator="out"/>
<feColorMatrix type="matrix" values="0 0 0 0 0 0 0 0 0 0 0 0 0 0 0 0 0 0 0.25 0"/>
<feBlend mode="normal" in2="effect1_backgroundBlur_2_4946" result="effect2_dropShadow_2_4946"/>
<feBlend mode="normal" in="SourceGraphic" in2="effect2_dropShadow_2_4946" result="shape"/>
</filter>
<linearGradient id="paint0_linear_2_4946" x1="45" y1="-37.5" x2="45" y2="103" gradientUnits="userSpaceOnUse">
<stop stop-color="#D1ADFF"/>
<stop offset="0.976325" stop-color="#C79EFC" stop-opacity="0.42"/>
</linearGradient>
</defs>
</svg>
