<svg width="2880" height="492" viewBox="0 0 2880 492" fill="none" xmlns="http://www.w3.org/2000/svg">
<path fill-rule="evenodd" clip-rule="evenodd" d="M1440 377C1290.5 367.174 1177.5 288.5 931.5 288.5C761.5 288.5 704 438.5 505.5 471C382 482.277 352 475.076 232 460.676C112 446.276 120 439.077 60 424.677L2.50029e-05 410.277L0 124.276C40.5 137.776 150 166.776 270 166.776C390 166.776 732.5 -13.2237 931.5 0.776289C811.5 0.7763 1051.5 0.776279 931.5 0.776289C1141.5 6.77627 1249 73.2763 1440 73.2763V377Z" fill="#F5FCFE"/>
<path fill-rule="evenodd" clip-rule="evenodd" d="M1440 377C1602.5 377 1680 309.476 1800 331.076C1920 352.676 2040 424.676 2160 460.676C2280 496.676 2400 496.677 2520 482.277C2640 467.877 2760 439.077 2820 424.677L2880 410.277V124.276C2839.5 137.776 2730 166.776 2610 166.776C2490 166.776 2147.5 -13.2237 1948.5 0.776289C2068.5 0.7763 1828.5 0.776279 1948.5 0.776289C1738.5 6.77627 1678 73.2763 1440 73.2763V377Z" fill="#F5FCFE"/>
</svg>
