<svg width="1440" height="400" viewBox="0 0 1440 400" fill="none" xmlns="http://www.w3.org/2000/svg">
<g filter="url(#filter0_d_2_4999)">
<path fill-rule="evenodd" clip-rule="evenodd" d="M1441 140L1381 183.2C1321 226.4 1201 312.8 1081 356C961 399.2 841 399.2 721 370.4C601 341.6 481 284 361 262.4C241 240.8 121 255.2 61 262.4L1 269.6V399.2H61C121 399.2 241 399.2 361 399.2C481 399.2 601 399.2 721 399.2C841 399.2 961 399.2 1081 399.2C1201 399.2 1321 399.2 1381 399.2H1441V140Z" fill="#6445F7"/>
<path fill-rule="evenodd" clip-rule="evenodd" d="M1441 140L1381 183.2C1321 226.4 1201 312.8 1081 356C961 399.2 841 399.2 721 370.4C601 341.6 481 284 361 262.4C241 240.8 121 255.2 61 262.4L1 269.6V399.2H61C121 399.2 241 399.2 361 399.2C481 399.2 601 399.2 721 399.2C841 399.2 961 399.2 1081 399.2C1201 399.2 1321 399.2 1381 399.2H1441V140Z"/>
</g>
<defs>
<filter id="filter0_d_2_4999" x="-119" y="0" width="1680" height="499.2" filterUnits="userSpaceOnUse" color-interpolation-filters="sRGB">
<feFlood flood-opacity="0" result="BackgroundImageFix"/>
<feColorMatrix in="SourceAlpha" type="matrix" values="0 0 0 0 0 0 0 0 0 0 0 0 0 0 0 0 0 0 127 0" result="hardAlpha"/>
<feOffset dy="-20"/>
<feGaussianBlur stdDeviation="60"/>
<feComposite in2="hardAlpha" operator="out"/>
<feColorMatrix type="matrix" values="0 0 0 0 0.580392 0 0 0 0 0.266667 0 0 0 0 0.976471 0 0 0 0.2 0"/>
<feBlend mode="normal" in2="BackgroundImageFix" result="effect1_dropShadow_2_4999"/>
<feBlend mode="normal" in="SourceGraphic" in2="effect1_dropShadow_2_4999" result="shape"/>
</filter>
</defs>
</svg>
