<?xml version="1.0" encoding="utf-8"?>
<!-- Generator: Adobe Illustrator 24.3.0, SVG Export Plug-In . SVG Version: 6.00 Build 0)  -->
<svg version="1.1" id="Слой_1" xmlns="http://www.w3.org/2000/svg" xmlns:xlink="http://www.w3.org/1999/xlink" x="0px" y="0px"
	 viewBox="0 0 137.89 128.72" style="enable-background:new 0 0 137.89 128.72;" xml:space="preserve">
<style type="text/css">
	.st0{fill:url(#SVGID_1_);}
	.st1{fill:url(#SVGID_2_);}
	.st2{fill:url(#SVGID_3_);}
	.st3{fill:url(#SVGID_4_);}
	.st4{fill:url(#SVGID_5_);}
	.st5{fill:url(#SVGID_6_);}
	.st6{fill:url(#SVGID_7_);}
	.st7{fill:url(#SVGID_8_);}
	.st8{fill:url(#SVGID_9_);}
</style>
<g>
	<linearGradient id="SVGID_1_" gradientUnits="userSpaceOnUse" x1="23.5029" y1="63.5992" x2="108.528" y2="63.5992">
		<stop  offset="0" style="stop-color:#E68D13"/>
		<stop  offset="1" style="stop-color:#82027E"/>
	</linearGradient>
	<path class="st0" d="M65.19,101.34c-2.11,0-4.21-0.05-6.32,0.02c-1.89,0.06-2.65-0.82-2.53-2.63c0.03-0.39,0.02-0.79,0.03-1.18
		c0.08-4.98,0.07-4.95-4.55-6.63c-0.91-0.33-1.35,0.09-1.86,0.62c-1.15,1.17-2.31,2.35-3.46,3.51c-1.02,1.03-2.06,1.07-3.09,0.04
		c-3.17-3.16-6.33-6.33-9.49-9.5c-1.09-1.09-1.06-2.18,0.04-3.26c1.17-1.15,2.29-2.36,3.5-3.48c0.7-0.64,0.58-1.17,0.38-2.05
		c-0.86-3.76-3.1-4.81-6.79-4.4c-3.26,0.36-3.46-0.1-3.46-3.36c0-3.95,0.05-7.9,0-11.84c-0.03-1.76,0.67-2.59,2.44-2.5
		c0.39,0.02,0.81-0.07,1.18,0.01c3.66,0.8,5.74-0.68,6.62-4.28c0.22-0.88,0.3-1.42-0.39-2.06c-1.2-1.12-2.33-2.32-3.5-3.48
		c-1.15-1.15-1.16-2.23,0.03-3.4c3.05-3,6.09-6.01,9.07-9.07c1.27-1.3,2.4-1.49,3.64-0.03c0.34,0.4,0.74,0.74,1.12,1.11
		c3.17,3.08,3.16,3.05,7.22,1.42c0.93-0.37,1.36-0.82,1.33-1.85c-0.06-1.64,0.03-3.29,0.02-4.93c-0.01-1.54,0.67-2.3,2.26-2.29
		c4.41,0.03,8.82,0.02,13.23-0.01c1.67-0.01,2.4,0.75,2.37,2.4c-0.04,2.24-0.08,4.48,0.03,6.71c0.07,1.49-0.74,1.53-1.84,1.54
		c-1.06,0.01-1.78-0.12-1.68-1.47c0.1-1.37-0.05-2.77,0.04-4.14c0.07-1.23-0.44-1.61-1.61-1.58c-2.63,0.05-5.27,0.06-7.9,0
		c-1.14-0.02-1.51,0.44-1.48,1.52c0.05,1.45-0.02,2.9,0.02,4.34c0.04,1.33-0.57,2.09-1.84,2.4c-2.13,0.51-4.12,1.38-5.99,2.49
		c-1.05,0.63-1.99,0.57-2.84-0.34c-0.22-0.24-0.47-0.46-0.7-0.7c-3.57-3.57-3.59-3.59-7.04-0.01c-1.32,1.37-3.61,2.47-3.7,4.16
		c-0.09,1.73,2.3,2.8,3.58,4.17c0.91,0.97,1.05,1.87,0.41,3.01c-1.1,1.96-1.97,4.01-2.56,6.18c-0.31,1.14-1.06,1.59-2.18,1.59
		c-1.51-0.01-3.03,0.04-4.54-0.02c-1.13-0.05-1.5,0.44-1.49,1.52c0.03,2.7,0.02,5.4-0.03,8.09c-0.02,1.02,0.44,1.42,1.42,1.41
		c1.51-0.02,3.03,0,4.54-0.01c1.19,0,1.99,0.45,2.3,1.7c0.55,2.18,1.51,4.21,2.58,6.18c0.61,1.12,0.45,1.99-0.4,2.83
		c-1.08,1.06-2.11,2.17-3.22,3.2c-0.71,0.66-0.89,1.14-0.09,1.9c2,1.9,3.97,3.85,5.88,5.84c0.81,0.85,1.47,0.8,2.07-0.08
		c2.54-3.75,5.38-4.23,9.52-2c4.12,2.22,4.37,1.77,4.31,6.64c-0.03,2.62-0.03,2.62,2.51,2.62c2.37,0,4.74-0.03,7.11,0
		c1,0.02,1.42-0.35,1.38-1.38c-0.06-1.38,0.05-2.77-0.04-4.14c-0.08-1.26,0.31-1.75,1.64-1.74c1.31,0.01,1.93,0.31,1.86,1.76
		c-0.1,2.1-0.07,4.21,0,6.32c0.06,1.83-0.68,2.67-2.56,2.61C69.53,101.28,67.36,101.33,65.19,101.34
		C65.19,101.34,65.19,101.34,65.19,101.34z"/>
	<linearGradient id="SVGID_2_" gradientUnits="userSpaceOnUse" x1="23.5029" y1="73.4336" x2="108.528" y2="73.4336">
		<stop  offset="0" style="stop-color:#E68D13"/>
		<stop  offset="1" style="stop-color:#82027E"/>
	</linearGradient>
	<path class="st1" d="M69.92,81.67c5.2-1.26,8.84,1.13,11.89,5.01c0.57,0.72,1.32,1.29,1.92,1.98c1.62,1.87,3.12,3.19,6.09,2.26
		c2.91-0.91,5.92,1.19,7.16,4c1.26,2.85,0.52,6.28-1.78,8.31c-2.27,2-6.06,2.22-8.66,0.51c-2.53-1.67-3.85-4.87-2.81-7.77
		c0.58-1.63,0.14-2.49-1-3.54c-2.13-1.96-4.17-4.02-6.14-6.13c-0.85-0.9-1.76-1.22-2.95-1.23c-3.88-0.04-7.78,0.37-11.63-0.21
		c-10.3-1.54-17.91-10.23-18.15-20.54C43.6,53.61,50.65,44.64,61,42.5c0.64-0.13,1.3-0.34,1.94-0.31c0.82,0.04,2.12-0.87,2.25,0.88
		c0.1,1.3,0.24,2.08-1.86,2.3c-9.47,0.99-16.36,9.25-16.15,18.53c0.21,9.47,7.42,17.03,17.02,17.75
		C66.1,81.79,68.02,81.67,69.92,81.67z M90.46,101.55c2.04,0,3.77-1.77,3.73-3.8c-0.04-1.99-1.72-3.62-3.7-3.61
		c-1.95,0.01-3.61,1.7-3.63,3.69C86.84,99.78,88.55,101.55,90.46,101.55z"/>
	<linearGradient id="SVGID_3_" gradientUnits="userSpaceOnUse" x1="23.5029" y1="57.3102" x2="108.528" y2="57.3102">
		<stop  offset="0" style="stop-color:#E68D13"/>
		<stop  offset="1" style="stop-color:#82027E"/>
	</linearGradient>
	<path class="st2" d="M72.43,52.79c4.61,1.42,8.62-0.84,11.8-5.17c1.19-1.62,2.82-2.23,4.82-1.98c0.91,0.11,1.85-0.05,2.76,0.05
		c1.66,0.18,2.67-0.32,3.52-1.95c1.51-2.88,4.86-4.04,7.97-3.17c3.12,0.87,5.13,3.62,5.07,6.93c-0.05,3.22-2.11,5.92-5.1,6.72
		c-3.28,0.87-6.55-0.34-8.05-3.35c-0.76-1.52-1.7-1.72-3.2-1.86c-3.16-0.31-5.64,0.59-7.47,3.18c-2.48,3.51-5.81,4.67-10.05,4.16
		c-2.85-0.34-5.78-0.11-8.67-0.05c-4.66,0.1-7.7,2.93-7.8,7.16c-0.1,4.12,2.95,7.2,7.52,7.4c1.52,0.06,1.44,0.85,1.48,1.9
		c0.05,1.23-0.44,1.55-1.62,1.56c-5.56,0.06-10.33-4.21-10.78-9.74c-0.46-5.71,3.46-10.76,9.02-11.57
		C66.27,52.63,68.91,52.89,72.43,52.79z M101.41,51.09c1.87-0.02,3.65-1.84,3.64-3.74c-0.01-1.9-1.78-3.66-3.69-3.67
		c-2.02-0.01-3.79,1.81-3.72,3.82C97.7,49.42,99.48,51.11,101.41,51.09z"/>
	<linearGradient id="SVGID_4_" gradientUnits="userSpaceOnUse" x1="23.5029" y1="79.7706" x2="108.528" y2="79.7706">
		<stop  offset="0" style="stop-color:#E68D13"/>
		<stop  offset="1" style="stop-color:#82027E"/>
	</linearGradient>
	<path class="st3" d="M108.39,81.74c-0.03,3.26-2.2,6.02-5.31,6.75c-3.24,0.76-6.6-0.61-7.99-3.59c-0.64-1.36-1.44-1.77-2.72-1.57
		c-3.07,0.49-5.33-0.61-7.41-2.95c-1.98-2.23-3.97-4.53-6.52-6.23c-0.91-0.61-0.61-1.9-0.32-2.74c0.31-0.88,1.35-0.55,2.09-0.36
		c0.8,0.2,1.29,0.88,1.85,1.43c2.19,2.18,4.35,4.39,6.55,6.55c1.7,1.67,5.35,1.19,6.49-0.8c1.73-3.03,4.91-4.37,8.24-3.46
		C106.4,75.63,108.41,78.4,108.39,81.74z M101.45,85.31c1.91-0.04,3.64-1.84,3.6-3.74c-0.05-1.9-1.85-3.67-3.72-3.65
		c-2.01,0.02-3.79,1.88-3.69,3.86C97.74,83.74,99.48,85.35,101.45,85.31z"/>
	<linearGradient id="SVGID_5_" gradientUnits="userSpaceOnUse" x1="23.5029" y1="63.62" x2="108.528" y2="63.62">
		<stop  offset="0" style="stop-color:#E68D13"/>
		<stop  offset="1" style="stop-color:#82027E"/>
	</linearGradient>
	<path class="st4" d="M86.33,61.86c2.23,0,4.47-0.04,6.7,0.02c0.87,0.02,1.36-0.11,1.78-1.03c1.53-3.37,4.84-4.96,8.24-4.14
		c3.18,0.77,5.37,3.62,5.35,6.94c-0.03,3.33-2.21,6.11-5.42,6.89c-3.31,0.81-6.57-0.77-8.1-4.03c-0.43-0.92-0.93-1.23-1.93-1.22
		c-4.34,0.05-8.67-0.01-13.01,0.05c-1.34,0.02-2-0.22-2.03-1.81c-0.03-1.74,0.89-1.7,2.1-1.68c2.1,0.04,4.2,0.01,6.31,0.01
		C86.33,61.86,86.33,61.86,86.33,61.86z M105.03,63.47c-0.05-1.93-1.83-3.6-3.77-3.53c-1.99,0.07-3.65,1.76-3.64,3.7
		c0.01,1.93,1.75,3.65,3.69,3.64C103.36,67.26,105.08,65.51,105.03,63.47z"/>
	<linearGradient id="SVGID_6_" gradientUnits="userSpaceOnUse" x1="23.5029" y1="34.6481" x2="108.528" y2="34.6481">
		<stop  offset="0" style="stop-color:#E68D13"/>
		<stop  offset="1" style="stop-color:#82027E"/>
	</linearGradient>
	<path class="st5" d="M97.59,30.8c0.03,5.16-4.42,8.49-9.16,7.11c-1.38-0.4-2.14-0.17-3.06,0.82c-1.78,1.93-3.75,3.75-5.82,5.49
		c-0.45,0.38-1.48,0.57-2.01,0.72c-0.69,0.2-1.15,0.69-1.38-0.23c-0.23-0.93-0.54-1.86,0.68-2.68c2.69-1.81,4.62-4.44,7-6.6
		c0.74-0.67,0.13-1.34-0.06-1.99c-0.85-2.93-0.26-5.51,2.03-7.54c2.29-2.03,4.99-2.34,7.74-1.12C96.28,25.99,97.53,28.27,97.59,30.8
		z M94.19,31.1c-0.05-1.94-1.76-3.64-3.69-3.64c-1.97-0.01-3.74,1.88-3.64,3.88c0.09,1.96,1.85,3.6,3.79,3.53
		C92.59,34.8,94.23,33.05,94.19,31.1z"/>
	<linearGradient id="SVGID_7_" gradientUnits="userSpaceOnUse" x1="23.5029" y1="72.6834" x2="108.528" y2="72.6834">
		<stop  offset="0" style="stop-color:#E68D13"/>
		<stop  offset="1" style="stop-color:#82027E"/>
	</linearGradient>
	<path class="st6" d="M64.58,71.12c0.01-0.26,1.17-0.27,1.43-0.29c2.29-0.18,12.62-0.82,14.84,0.52c1.88,1.13-0.13,2.77-0.93,3.4
		c-0.2,0.16-0.48,0.1-0.71-0.03c-1.58-0.91-7.81-1.29-13.12-0.46c-0.36,0.06-0.67-0.24-0.66-0.6L64.58,71.12z"/>
	<linearGradient id="SVGID_8_" gradientUnits="userSpaceOnUse" x1="23.5029" y1="44.3038" x2="108.528" y2="44.3038">
		<stop  offset="0" style="stop-color:#E68D13"/>
		<stop  offset="1" style="stop-color:#82027E"/>
	</linearGradient>
	<path class="st7" d="M61.69,42.34c0,0,5.83-1.16,9.03,0s6.4-0.51,6.4-0.51l2.3,1.31c0.46,0.26,0.45,0.93-0.02,1.17
		c-1.73,0.88-5.42,2.33-9.44,1.31c-5.56-1.41-12.22,1.16-12.22,1.16L61.69,42.34z"/>
	<linearGradient id="SVGID_9_" gradientUnits="userSpaceOnUse" x1="23.5029" y1="63.6011" x2="108.528" y2="63.6011">
		<stop  offset="0" style="stop-color:#E68D13"/>
		<stop  offset="1" style="stop-color:#82027E"/>
	</linearGradient>
	<rect x="57.72" y="61.85" class="st8" width="23.91" height="3.5"/>
</g>
</svg>
