<?xml version="1.0" encoding="utf-8"?>
<!-- Generator: Adobe Illustrator 23.1.0, SVG Export Plug-In . SVG Version: 6.00 Build 0)  -->
<svg version="1.1" id="Слой_1" xmlns="http://www.w3.org/2000/svg" xmlns:xlink="http://www.w3.org/1999/xlink" x="0px" y="0px"
	 viewBox="0 0 1544.12 841.89" style="enable-background:new 0 0 1544.12 841.89;" xml:space="preserve">
<style type="text/css">
	.st0{fill:none;stroke:#509C8E;stroke-miterlimit:10;}
	.st1{fill:none;stroke:#509C8E;stroke-miterlimit:10;stroke-dasharray:3.0013,2.0009;}
	.st2{opacity:0.39;}
	.st3{fill:#9971AE;}
	.st4{fill:none;stroke:#3C5742;stroke-miterlimit:10;}
	.st5{opacity:0.5;fill:none;stroke:#3C5742;stroke-miterlimit:10;}
	.st6{opacity:0.15;}
	.st7{fill:none;stroke:#0D0E0F;stroke-miterlimit:10;}
	.st8{fill:url(#SVGID_1_);}
	.st9{fill:url(#SVGID_2_);}
	.st10{fill:url(#SVGID_3_);}
	.st11{fill:url(#SVGID_4_);}
	.st12{fill:url(#SVGID_5_);}
	.st13{fill:url(#SVGID_6_);}
	.st14{fill:url(#SVGID_7_);}
	.st15{fill:url(#SVGID_8_);}
	.st16{fill:url(#SVGID_9_);}
	.st17{fill:url(#SVGID_10_);}
	.st18{fill:url(#SVGID_11_);}
	.st19{fill:url(#SVGID_12_);}
	.st20{fill:url(#SVGID_13_);}
	.st21{fill:url(#SVGID_14_);}
	.st22{fill:url(#SVGID_15_);}
	.st23{fill:url(#SVGID_16_);}
	.st24{fill:url(#SVGID_17_);}
	.st25{fill:url(#SVGID_18_);}
	.st26{fill:url(#SVGID_19_);}
	.st27{fill:url(#SVGID_20_);}
	.st28{fill:url(#SVGID_21_);}
	.st29{fill:url(#SVGID_22_);}
	.st30{fill:url(#SVGID_23_);}
	.st31{fill:url(#SVGID_24_);}
	.st32{fill:url(#SVGID_25_);}
	.st33{fill:url(#SVGID_26_);}
	.st34{fill:url(#SVGID_27_);}
	.st35{fill:url(#SVGID_28_);}
	.st36{fill:url(#SVGID_29_);}
	.st37{fill:#DE816F;}
	.st38{fill:#D96A93;}
	.st39{fill:url(#SVGID_30_);}
	.st40{fill:url(#SVGID_31_);}
	.st41{fill:url(#SVGID_32_);}
	.st42{fill:url(#SVGID_33_);}
	.st43{fill:url(#SVGID_34_);}
	.st44{fill:url(#SVGID_35_);}
	.st45{fill:url(#SVGID_36_);}
	.st46{fill:url(#SVGID_37_);}
	.st47{fill:url(#SVGID_38_);}
	.st48{fill:url(#SVGID_39_);}
	.st49{fill:url(#SVGID_40_);}
	.st50{fill:#89BF71;}
	.st51{fill:#75B082;}
	.st52{fill:none;stroke:#3C5742;stroke-width:6;stroke-miterlimit:10;}
</style>
<g>
	<g>
		<line class="st0" x1="17.23" y1="398.24" x2="18.73" y2="398.24"/>
		<line class="st1" x1="20.73" y1="398.24" x2="1520.4" y2="398.24"/>
		<line class="st0" x1="1521.4" y1="398.24" x2="1522.9" y2="398.24"/>
	</g>
</g>
<g class="st2">
	<g>
		<rect x="63.5" y="752.38" class="st3" width="37.12" height="22.84"/>
		<rect x="112.04" y="728.58" class="st3" width="36.17" height="46.64"/>
		<rect x="157.72" y="670.52" class="st3" width="37.12" height="104.69"/>
		<rect x="206.26" y="693.84" class="st3" width="36.64" height="81.37"/>
		<rect x="257.65" y="615.8" class="st3" width="38.07" height="159.42"/>
		<rect x="303.34" y="578.2" class="st3" width="39.02" height="197.01"/>
		<rect x="349.97" y="621.99" class="st3" width="37.59" height="153.23"/>
		<rect x="396.61" y="542.99" class="st3" width="37.44" height="232.23"/>
		<rect x="447.37" y="512.06" class="st3" width="37.44" height="263.16"/>
		<rect x="495.91" y="537.76" class="st3" width="36.17" height="237.46"/>
		<rect x="543.51" y="582.01" class="st3" width="35.84" height="193.21"/>
		<rect x="589.81" y="639.59" class="st3" width="37.75" height="135.62"/>
		<rect x="636.77" y="684.64" class="st3" width="38.23" height="90.58"/>
		<rect x="685.94" y="656.41" class="st3" width="38.7" height="118.81"/>
		<rect x="736.38" y="684.64" class="st3" width="37.44" height="90.58"/>
		<rect x="782.7" y="549.65" class="st3" width="37.75" height="225.57"/>
		<rect x="831.56" y="512.38" class="st3" width="37.75" height="262.84"/>
		<rect x="879.15" y="395.63" class="st3" width="37.12" height="379.59"/>
		<rect x="926.1" y="435.6" class="st3" width="37.44" height="339.62"/>
		<rect x="972.42" y="471.13" class="st3" width="38.07" height="304.08"/>
		<rect x="1021.28" y="525.07" class="st3" width="39.97" height="250.15"/>
		<rect x="1070.13" y="662.43" class="st3" width="39.34" height="112.78"/>
		<rect x="1119.31" y="729.93" class="st3" width="39.34" height="45.29"/>
		<rect x="1169.75" y="698.28" class="st3" width="37.75" height="76.93"/>
		<rect x="1218.61" y="643.8" class="st3" width="39.97" height="131.42"/>
		<rect x="1267.15" y="605.41" class="st3" width="40.61" height="169.81"/>
		<rect x="1318.54" y="588.52" class="st3" width="37.12" height="186.7"/>
		<rect x="1367.08" y="715.42" class="st3" width="37.12" height="59.8"/>
		<rect x="1412.76" y="672.9" class="st3" width="37.75" height="102.31"/>
	</g>
</g>
<g>
	<g>
		<g>
			<line class="st4" x1="81.87" y1="710.1" x2="81.87" y2="759.59"/>
		</g>
		<g>
			<line class="st4" x1="129.46" y1="629.52" x2="129.46" y2="727.23"/>
		</g>
		<g>
			<line class="st4" x1="177.05" y1="559.72" x2="177.05" y2="632.69"/>
		</g>
		<g>
			<line class="st4" x1="225.9" y1="527.37" x2="225.9" y2="578.13"/>
		</g>
		<g>
			<line class="st4" x1="276.66" y1="458.2" x2="276.66" y2="567.34"/>
		</g>
		<g>
			<line class="st4" x1="322.98" y1="439.8" x2="322.98" y2="473.43"/>
		</g>
		<g>
			<line class="st4" x1="369.93" y1="325.59" x2="369.93" y2="458.2"/>
		</g>
		<g>
			<line class="st4" x1="416.25" y1="360.49" x2="416.25" y2="378.26"/>
		</g>
		<g>
			<line class="st4" x1="465.11" y1="350.34" x2="465.11" y2="430.92"/>
		</g>
		<g>
			<line class="st4" x1="513.33" y1="375.72" x2="513.33" y2="416.96"/>
		</g>
		<g>
			<line class="st4" x1="560.28" y1="382.7" x2="560.28" y2="473.43"/>
		</g>
		<g>
			<line class="st4" x1="609.14" y1="378.26" x2="609.14" y2="508.96"/>
		</g>
		<g>
			<line class="st4" x1="656.73" y1="462.65" x2="656.73" y2="547.03"/>
		</g>
		<g>
			<line class="st4" x1="704.95" y1="484.22" x2="704.95" y2="698.68"/>
		</g>
		<g>
			<line class="st4" x1="754.44" y1="504.84" x2="754.44" y2="727.23"/>
		</g>
		<g>
			<line class="st4" x1="802.03" y1="583.2" x2="802.03" y2="668.22"/>
		</g>
		<g>
			<line class="st4" x1="850.89" y1="568.61" x2="850.89" y2="656.17"/>
		</g>
		<g>
			<line class="st4" x1="897.84" y1="521.65" x2="897.84" y2="673.3"/>
		</g>
		<g>
			<line class="st4" x1="945.43" y1="607.95" x2="945.43" y2="673.3"/>
		</g>
		<g>
			<line class="st4" x1="992.38" y1="583.2" x2="992.38" y2="635.87"/>
		</g>
		<g>
			<line class="st4" x1="1041.87" y1="555.28" x2="1041.87" y2="630.15"/>
		</g>
		<g>
			<line class="st4" x1="1090.09" y1="512.77" x2="1090.09" y2="616.04"/>
		</g>
		<g>
			<line class="st4" x1="1138.95" y1="477.87" x2="1138.95" y2="771.01"/>
		</g>
		<g>
			<line class="st4" x1="1189.07" y1="447.42" x2="1189.07" y2="543.23"/>
		</g>
		<g>
			<line class="st4" x1="1238.57" y1="412.52" x2="1238.57" y2="626.98"/>
		</g>
		<g>
			<line class="st4" x1="1287.42" y1="444.25" x2="1287.42" y2="468.99"/>
		</g>
		<g>
			<line class="st4" x1="1338.18" y1="404.03" x2="1338.18" y2="468.99"/>
		</g>
		<g>
			<line class="st4" x1="1385.77" y1="310.37" x2="1385.77" y2="533.08"/>
		</g>
		<g>
			<line class="st4" x1="1432.09" y1="232.96" x2="1432.09" y2="375.08"/>
		</g>
	</g>
</g>
<path transform="matrix(1 0 0 1 481.5634 0.169)" class="st5" d="M16.15,417.98c0-0.42,0-0.85,0-1.27
	c38.54,24.51,76.83,29.33,121.91,29.33c17.28,0,33.67-5.09,47.23,2.94c9.91,5.87,18.79,17.5,29.53,21.65
	c7.76,3,13.14,5.25,21.37,6.47c24.5,3.63,33,16.77,52.25,18.79c7.49,0.79,34.01-4.24,48.56-7.3c34.58-7.26,74.65-17.24,123.86-60.79
	c37.21-32.94,59.48-59.14,111.58-78.04c8.7-3.16,23.63-16.8,32.6-14.51c8.79,2.24,21.64,13.81,29.88,17.61
	c21.76,10.02,39.47,9.14,59.96,9.14c12.28,0,26.43-3.63,37.55,1.56c7.06,3.3,7.9,4.92,12.33,7.9c15.72,10.59,37.39,15.9,55.26,9.57
	c5.93-2.1,11.31-5.56,17.25-7.66c20.45-7.24,57.04,1.61,64.56-3.09c10.53-6.58,25.35-16.27,34.35-29.42
	c9-13.15,20.22-30.91,25.38-40.7c4.88-9.27,29.27-27.79,51.71-50.49c10.63-10.75,23.73-19.41,33.94-29.5
	c9.21-9.09,15.15-20.99,26.18-23.8c11.25-2.87,34.24,2.83,65.51-5.62c9.52-2.57,63.96-1.72,78.36,2.12
	c13.9,3.7,7.61,3.18,23.63,13.17c2.72,1.7,3.04,1.96,10.31,5.41c6.77,3.21,11.33,3.64,18.8,4.35s14.66-0.51,22.06-1.74
	c23.96-3.95,45.96-2.69,70.19-1c21.46,1.5,43.9,5.07,63.84-3.01c6.72-2.72,12.92-6.71,19.87-8.76c6.95-2.05,11.83-1.78,17.09,3.2
	c2.31,2.18,5.32,5.14,7.97,6.88c3.69,2.43,5.6,4.71,9.24,7.21c2.57,1.77,9.23,2.11,11.88,3.75c4.23,2.63,11.31-1.98,15.53-4.62
	c13.68-8.57,13.56-0.36,34.3-17.13"/>
<g class="st6">
	<rect x="16.94" y="62.2" class="st7" width="1507.84" height="711.91"/>
	<g>
		<line class="st7" x1="112.75" y1="62.2" x2="112.75" y2="774.11"/>
		<line class="st7" x1="206.97" y1="62.2" x2="206.97" y2="774.11"/>
		<line class="st7" x1="298.66" y1="62.2" x2="298.66" y2="774.11"/>
		<line class="st7" x1="393.83" y1="62.2" x2="393.83" y2="774.11"/>
		<line class="st7" x1="488.06" y1="62.2" x2="488.06" y2="774.11"/>
		<line class="st7" x1="582.28" y1="62.2" x2="582.28" y2="774.11"/>
		<line class="st7" x1="675.55" y1="62.2" x2="675.55" y2="774.11"/>
		<line class="st7" x1="770.86" y1="62.2" x2="770.86" y2="774.11"/>
		<line class="st7" x1="864" y1="62.2" x2="864" y2="774.11"/>
		<line class="st7" x1="957.9" y1="62.2" x2="957.9" y2="774.11"/>
		<line class="st7" x1="1051.81" y1="62.2" x2="1051.81" y2="774.11"/>
		<line class="st7" x1="1146.98" y1="62.2" x2="1146.98" y2="774.11"/>
		<line class="st7" x1="1240.89" y1="62.2" x2="1240.89" y2="774.11"/>
		<line class="st7" x1="1336.07" y1="62.2" x2="1336.07" y2="774.11"/>
		<line class="st7" x1="1429.97" y1="62.2" x2="1429.97" y2="774.11"/>
		<line class="st7" x1="16.94" y1="105.98" x2="1524.78" y2="105.98"/>
		<line class="st7" x1="16.94" y1="151.66" x2="1524.78" y2="151.66"/>
		<line class="st7" x1="16.94" y1="199.45" x2="1522.77" y2="199.45"/>
		<line class="st7" x1="16.94" y1="241.13" x2="1524.78" y2="241.13"/>
		<line class="st7" x1="16.94" y1="283" x2="1524.78" y2="283"/>
		<line class="st7" x1="16.94" y1="328.69" x2="1524.78" y2="328.69"/>
		<line class="st7" x1="16.94" y1="372.47" x2="1524.78" y2="372.47"/>
		<line class="st7" x1="16.94" y1="415.47" x2="1524.78" y2="415.47"/>
		<line class="st7" x1="16.94" y1="463.14" x2="1524.78" y2="463.14"/>
		<line class="st7" x1="16.94" y1="507.62" x2="1524.78" y2="507.62"/>
		<line class="st7" x1="16.94" y1="551.4" x2="1524.78" y2="551.4"/>
		<line class="st7" x1="16.94" y1="597.08" x2="1524.78" y2="597.08"/>
		<line class="st7" x1="1524.78" y1="638.96" x2="16.94" y2="638.96"/>
		<line class="st7" x1="16.94" y1="684.64" x2="1522.61" y2="684.64"/>
		<line class="st7" x1="16.94" y1="730.33" x2="1522.61" y2="730.33"/>
	</g>
</g>
<g>
	<linearGradient id="SVGID_1_" gradientUnits="userSpaceOnUse" x1="322.8482" y1="460.6634" x2="322.8482" y2="441.6283">
		<stop  offset="0" style="stop-color:#DE816F"/>
		<stop  offset="0.455" style="stop-color:#D96A93"/>
	</linearGradient>
	<rect x="303.34" y="441.63" class="st8" width="39.02" height="19.04"/>
	<linearGradient id="SVGID_2_" gradientUnits="userSpaceOnUse" x1="369.4841" y1="451.1458" x2="369.4841" y2="353.1154">
		<stop  offset="0" style="stop-color:#DE816F"/>
		<stop  offset="0.455" style="stop-color:#D96A93"/>
	</linearGradient>
	<rect x="349.97" y="353.12" class="st9" width="39.02" height="98.03"/>
	<linearGradient id="SVGID_3_" gradientUnits="userSpaceOnUse" x1="415.3268" y1="371.1986" x2="415.3268" y2="363.2674">
		<stop  offset="0" style="stop-color:#DE816F"/>
		<stop  offset="0.455" style="stop-color:#D96A93"/>
	</linearGradient>
	<rect x="396.61" y="363.27" class="st10" width="37.44" height="7.93"/>
	<linearGradient id="SVGID_4_" gradientUnits="userSpaceOnUse" x1="466.0869" y1="394.6752" x2="466.0869" y2="355.0189">
		<stop  offset="0" style="stop-color:#DE816F"/>
		<stop  offset="0.455" style="stop-color:#D96A93"/>
	</linearGradient>
	<rect x="447.37" y="355.02" class="st11" width="37.44" height="39.66"/>
	<linearGradient id="SVGID_5_" gradientUnits="userSpaceOnUse" x1="513.9918" y1="401.9984" x2="513.9918" y2="379.1299">
		<stop  offset="0" style="stop-color:#DE816F"/>
		<stop  offset="0.455" style="stop-color:#D96A93"/>
	</linearGradient>
	<rect x="495.91" y="379.13" class="st12" width="36.17" height="22.87"/>
	<linearGradient id="SVGID_6_" gradientUnits="userSpaceOnUse" x1="561.4274" y1="423.545" x2="561.4274" y2="390.5642">
		<stop  offset="0" style="stop-color:#DE816F"/>
		<stop  offset="0.455" style="stop-color:#D96A93"/>
	</linearGradient>
	<rect x="543.51" y="390.56" class="st13" width="35.84" height="32.98"/>
	<linearGradient id="SVGID_7_" gradientUnits="userSpaceOnUse" x1="608.6912" y1="473.6707" x2="608.6912" y2="409.586">
		<stop  offset="0" style="stop-color:#DE816F"/>
		<stop  offset="0.455" style="stop-color:#D96A93"/>
	</linearGradient>
	<rect x="589.81" y="409.59" class="st14" width="37.75" height="64.08"/>
	<linearGradient id="SVGID_8_" gradientUnits="userSpaceOnUse" x1="850.4362" y1="602.7917" x2="850.4362" y2="576.1426">
		<stop  offset="0" style="stop-color:#DE816F"/>
		<stop  offset="0.455" style="stop-color:#D96A93"/>
	</linearGradient>
	<rect x="831.56" y="576.14" class="st15" width="37.75" height="26.65"/>
	<linearGradient id="SVGID_9_" gradientUnits="userSpaceOnUse" x1="944.8183" y1="657.9933" x2="944.8183" y2="610.723">
		<stop  offset="0" style="stop-color:#DE816F"/>
		<stop  offset="0.455" style="stop-color:#D96A93"/>
	</linearGradient>
	<rect x="926.1" y="610.72" class="st16" width="37.44" height="47.27"/>
	<linearGradient id="SVGID_10_" gradientUnits="userSpaceOnUse" x1="991.4542" y1="625.1579" x2="991.4542" y2="602.7917">
		<stop  offset="0" style="stop-color:#DE816F"/>
		<stop  offset="0.455" style="stop-color:#D96A93"/>
	</linearGradient>
	<rect x="972.42" y="602.79" class="st17" width="38.07" height="22.37"/>
	<linearGradient id="SVGID_11_" gradientUnits="userSpaceOnUse" x1="1041.2626" y1="617.7025" x2="1041.2626" y2="582.1704">
		<stop  offset="0" style="stop-color:#DE816F"/>
		<stop  offset="0.455" style="stop-color:#D96A93"/>
	</linearGradient>
	<rect x="1021.28" y="582.17" class="st18" width="39.97" height="35.53"/>
</g>
<g>
	<g>
		<linearGradient id="SVGID_12_" gradientUnits="userSpaceOnUse" x1="82.0549" y1="749.0443" x2="82.0549" y2="717.6365">
			<stop  offset="2.645503e-03" style="stop-color:#89BF71"/>
			<stop  offset="0.5079" style="stop-color:#75B082"/>
			<stop  offset="0.9921" style="stop-color:#89BF71"/>
		</linearGradient>
		<rect x="63.5" y="717.64" class="st19" width="37.12" height="31.41"/>
		<linearGradient id="SVGID_13_" gradientUnits="userSpaceOnUse" x1="130.1184" y1="724.2988" x2="130.1184" y2="642.4481">
			<stop  offset="2.645503e-03" style="stop-color:#89BF71"/>
			<stop  offset="0.5079" style="stop-color:#75B082"/>
			<stop  offset="0.9921" style="stop-color:#89BF71"/>
		</linearGradient>
		<rect x="112.04" y="642.45" class="st20" width="36.17" height="81.85"/>
		<linearGradient id="SVGID_14_" gradientUnits="userSpaceOnUse" x1="176.2784" y1="625.3165" x2="176.2784" y2="571.0667">
			<stop  offset="2.645503e-03" style="stop-color:#89BF71"/>
			<stop  offset="0.5079" style="stop-color:#75B082"/>
			<stop  offset="0.9921" style="stop-color:#89BF71"/>
		</linearGradient>
		<rect x="157.72" y="571.07" class="st21" width="37.12" height="54.25"/>
		<linearGradient id="SVGID_15_" gradientUnits="userSpaceOnUse" x1="224.5798" y1="568.6873" x2="224.5798" y2="532.0448">
			<stop  offset="2.645503e-03" style="stop-color:#89BF71"/>
			<stop  offset="0.5079" style="stop-color:#75B082"/>
			<stop  offset="0.9921" style="stop-color:#89BF71"/>
		</linearGradient>
		<rect x="206.26" y="532.04" class="st22" width="36.64" height="36.64"/>
		<linearGradient id="SVGID_16_" gradientUnits="userSpaceOnUse" x1="276.6882" y1="550.366" x2="276.6882" y2="468.2774">
			<stop  offset="2.645503e-03" style="stop-color:#89BF71"/>
			<stop  offset="0.5079" style="stop-color:#75B082"/>
			<stop  offset="0.9921" style="stop-color:#89BF71"/>
		</linearGradient>
		<rect x="257.65" y="468.28" class="st23" width="38.07" height="82.09"/>
		<linearGradient id="SVGID_17_" gradientUnits="userSpaceOnUse" x1="655.8822" y1="515.3891" x2="655.8822" y2="477.1604">
			<stop  offset="2.645503e-03" style="stop-color:#89BF71"/>
			<stop  offset="0.5079" style="stop-color:#75B082"/>
			<stop  offset="0.9921" style="stop-color:#89BF71"/>
		</linearGradient>
		<rect x="636.77" y="477.16" class="st24" width="38.23" height="38.23"/>
		<linearGradient id="SVGID_18_" gradientUnits="userSpaceOnUse" x1="705.294" y1="656.4071" x2="705.294" y2="486.6779">
			<stop  offset="2.645503e-03" style="stop-color:#89BF71"/>
			<stop  offset="0.5079" style="stop-color:#75B082"/>
			<stop  offset="0.9921" style="stop-color:#89BF71"/>
		</linearGradient>
		<rect x="685.94" y="486.68" class="st25" width="38.7" height="169.73"/>
		<linearGradient id="SVGID_19_" gradientUnits="userSpaceOnUse" x1="755.1024" y1="684.6424" x2="755.1024" y2="512.3752">
			<stop  offset="2.645503e-03" style="stop-color:#89BF71"/>
			<stop  offset="0.5079" style="stop-color:#75B082"/>
			<stop  offset="0.9921" style="stop-color:#89BF71"/>
		</linearGradient>
		<rect x="736.38" y="512.38" class="st26" width="37.44" height="172.27"/>
		<linearGradient id="SVGID_20_" gradientUnits="userSpaceOnUse" x1="801.5796" y1="660.5314" x2="801.5796" y2="589.7844">
			<stop  offset="2.645503e-03" style="stop-color:#89BF71"/>
			<stop  offset="0.5079" style="stop-color:#75B082"/>
			<stop  offset="0.9921" style="stop-color:#89BF71"/>
		</linearGradient>
		<rect x="782.7" y="589.78" class="st27" width="37.75" height="70.75"/>
		<linearGradient id="SVGID_21_" gradientUnits="userSpaceOnUse" x1="897.7066" y1="660.5314" x2="897.7066" y2="571.5425">
			<stop  offset="2.645503e-03" style="stop-color:#89BF71"/>
			<stop  offset="0.5079" style="stop-color:#75B082"/>
			<stop  offset="0.9921" style="stop-color:#89BF71"/>
		</linearGradient>
		<rect x="879.15" y="571.54" class="st28" width="37.12" height="88.99"/>
		<linearGradient id="SVGID_22_" gradientUnits="userSpaceOnUse" x1="1089.8019" y1="604.3779" x2="1089.8019" y2="519.9893">
			<stop  offset="2.645503e-03" style="stop-color:#89BF71"/>
			<stop  offset="0.5079" style="stop-color:#75B082"/>
			<stop  offset="0.9921" style="stop-color:#89BF71"/>
		</linearGradient>
		<rect x="1070.13" y="519.99" class="st29" width="39.34" height="84.39"/>
		<linearGradient id="SVGID_23_" gradientUnits="userSpaceOnUse" x1="1138.9758" y1="702.7257" x2="1138.9758" y2="487.9469">
			<stop  offset="2.645503e-03" style="stop-color:#89BF71"/>
			<stop  offset="0.5079" style="stop-color:#75B082"/>
			<stop  offset="0.9921" style="stop-color:#89BF71"/>
		</linearGradient>
		<rect x="1119.31" y="487.95" class="st30" width="39.34" height="214.78"/>
		<linearGradient id="SVGID_24_" gradientUnits="userSpaceOnUse" x1="1188.6255" y1="518.0858" x2="1188.6255" y2="474.6224">
			<stop  offset="2.645503e-03" style="stop-color:#89BF71"/>
			<stop  offset="0.5079" style="stop-color:#75B082"/>
			<stop  offset="0.9921" style="stop-color:#89BF71"/>
		</linearGradient>
		<rect x="1169.75" y="474.62" class="st31" width="37.75" height="43.46"/>
		<linearGradient id="SVGID_25_" gradientUnits="userSpaceOnUse" x1="1238.5925" y1="599.9365" x2="1238.5925" y2="456.5391">
			<stop  offset="2.645503e-03" style="stop-color:#89BF71"/>
			<stop  offset="0.5079" style="stop-color:#75B082"/>
			<stop  offset="0.9921" style="stop-color:#89BF71"/>
		</linearGradient>
		<rect x="1218.61" y="456.54" class="st32" width="39.97" height="143.4"/>
		<linearGradient id="SVGID_26_" gradientUnits="userSpaceOnUse" x1="1287.4491" y1="461.2979" x2="1287.4491" y2="449.2423">
			<stop  offset="2.645503e-03" style="stop-color:#89BF71"/>
			<stop  offset="0.5079" style="stop-color:#75B082"/>
			<stop  offset="0.9921" style="stop-color:#89BF71"/>
		</linearGradient>
		<rect x="1267.15" y="449.24" class="st33" width="40.61" height="12.06"/>
		<linearGradient id="SVGID_27_" gradientUnits="userSpaceOnUse" x1="1337.0989" y1="455.2701" x2="1337.0989" y2="422.5933">
			<stop  offset="2.645503e-03" style="stop-color:#89BF71"/>
			<stop  offset="0.5079" style="stop-color:#75B082"/>
			<stop  offset="0.9921" style="stop-color:#89BF71"/>
		</linearGradient>
		<rect x="1318.54" y="422.59" class="st34" width="37.12" height="32.68"/>
		<linearGradient id="SVGID_28_" gradientUnits="userSpaceOnUse" x1="1385.6382" y1="513.0098" x2="1385.6382" y2="355.3361">
			<stop  offset="2.645503e-03" style="stop-color:#89BF71"/>
			<stop  offset="0.5079" style="stop-color:#75B082"/>
			<stop  offset="0.9921" style="stop-color:#89BF71"/>
		</linearGradient>
		<rect x="1367.08" y="355.34" class="st35" width="37.12" height="157.67"/>
		<linearGradient id="SVGID_29_" gradientUnits="userSpaceOnUse" x1="1431.6396" y1="362.3156" x2="1431.6396" y2="302.038">
			<stop  offset="2.645503e-03" style="stop-color:#89BF71"/>
			<stop  offset="0.5079" style="stop-color:#75B082"/>
			<stop  offset="0.9921" style="stop-color:#89BF71"/>
		</linearGradient>
		<rect x="1412.76" y="302.04" class="st36" width="37.75" height="60.28"/>
	</g>
</g>
<g>
	<linearGradient id="SVGID_30_" gradientUnits="userSpaceOnUse" x1="322.7425" y1="460.8484" x2="322.7425" y2="441.8134">
		<stop  offset="2.645503e-03" style="stop-color:#DE816F"/>
		<stop  offset="0.5079" style="stop-color:#D96A93"/>
		<stop  offset="0.9656" style="stop-color:#DE816F"/>
	</linearGradient>
	<rect x="303.23" y="441.81" class="st39" width="39.02" height="19.04"/>
	<linearGradient id="SVGID_31_" gradientUnits="userSpaceOnUse" x1="369.3783" y1="451.3309" x2="369.3783" y2="353.3004">
		<stop  offset="2.645503e-03" style="stop-color:#DE816F"/>
		<stop  offset="0.5079" style="stop-color:#D96A93"/>
		<stop  offset="0.9656" style="stop-color:#DE816F"/>
	</linearGradient>
	<rect x="349.87" y="353.3" class="st40" width="39.02" height="98.03"/>
	<linearGradient id="SVGID_32_" gradientUnits="userSpaceOnUse" x1="415.221" y1="371.3837" x2="415.221" y2="363.4525">
		<stop  offset="2.645503e-03" style="stop-color:#DE816F"/>
		<stop  offset="0.5079" style="stop-color:#D96A93"/>
		<stop  offset="0.9656" style="stop-color:#DE816F"/>
	</linearGradient>
	<rect x="396.5" y="363.45" class="st41" width="37.44" height="7.93"/>
	<linearGradient id="SVGID_33_" gradientUnits="userSpaceOnUse" x1="465.9812" y1="394.8603" x2="465.9812" y2="355.2039">
		<stop  offset="2.645503e-03" style="stop-color:#DE816F"/>
		<stop  offset="0.5079" style="stop-color:#D96A93"/>
		<stop  offset="0.9656" style="stop-color:#DE816F"/>
	</linearGradient>
	<rect x="447.26" y="355.2" class="st42" width="37.44" height="39.66"/>
	<linearGradient id="SVGID_34_" gradientUnits="userSpaceOnUse" x1="513.886" y1="402.1835" x2="513.886" y2="379.315">
		<stop  offset="2.645503e-03" style="stop-color:#DE816F"/>
		<stop  offset="0.5079" style="stop-color:#D96A93"/>
		<stop  offset="0.9656" style="stop-color:#DE816F"/>
	</linearGradient>
	<rect x="495.8" y="379.31" class="st43" width="36.17" height="22.87"/>
	<linearGradient id="SVGID_35_" gradientUnits="userSpaceOnUse" x1="561.3217" y1="423.7301" x2="561.3217" y2="390.7492">
		<stop  offset="2.645503e-03" style="stop-color:#DE816F"/>
		<stop  offset="0.5079" style="stop-color:#D96A93"/>
		<stop  offset="0.9656" style="stop-color:#DE816F"/>
	</linearGradient>
	<rect x="543.4" y="390.75" class="st44" width="35.84" height="32.98"/>
	<linearGradient id="SVGID_36_" gradientUnits="userSpaceOnUse" x1="608.5854" y1="473.8557" x2="608.5854" y2="409.7711">
		<stop  offset="2.645503e-03" style="stop-color:#DE816F"/>
		<stop  offset="0.5079" style="stop-color:#D96A93"/>
		<stop  offset="0.9656" style="stop-color:#DE816F"/>
	</linearGradient>
	<rect x="589.71" y="409.77" class="st45" width="37.75" height="64.08"/>
	<linearGradient id="SVGID_37_" gradientUnits="userSpaceOnUse" x1="850.3304" y1="602.9767" x2="850.3304" y2="576.3277">
		<stop  offset="2.645503e-03" style="stop-color:#DE816F"/>
		<stop  offset="0.5079" style="stop-color:#D96A93"/>
		<stop  offset="0.9656" style="stop-color:#DE816F"/>
	</linearGradient>
	<rect x="831.45" y="576.33" class="st46" width="37.75" height="26.65"/>
	<linearGradient id="SVGID_38_" gradientUnits="userSpaceOnUse" x1="944.7126" y1="658.1784" x2="944.7126" y2="610.908">
		<stop  offset="2.645503e-03" style="stop-color:#DE816F"/>
		<stop  offset="0.5079" style="stop-color:#D96A93"/>
		<stop  offset="0.9656" style="stop-color:#DE816F"/>
	</linearGradient>
	<rect x="925.99" y="610.91" class="st47" width="37.44" height="47.27"/>
	<linearGradient id="SVGID_39_" gradientUnits="userSpaceOnUse" x1="991.3484" y1="625.343" x2="991.3484" y2="602.9767">
		<stop  offset="2.645503e-03" style="stop-color:#DE816F"/>
		<stop  offset="0.5079" style="stop-color:#D96A93"/>
		<stop  offset="0.9656" style="stop-color:#DE816F"/>
	</linearGradient>
	<rect x="972.31" y="602.98" class="st48" width="38.07" height="22.37"/>
	<linearGradient id="SVGID_40_" gradientUnits="userSpaceOnUse" x1="1041.1567" y1="617.8876" x2="1041.1567" y2="582.3555">
		<stop  offset="2.645503e-03" style="stop-color:#DE816F"/>
		<stop  offset="0.5079" style="stop-color:#D96A93"/>
		<stop  offset="0.9656" style="stop-color:#DE816F"/>
	</linearGradient>
	<rect x="1021.17" y="582.36" class="st49" width="39.97" height="35.53"/>
</g>
<path class="st52" d="M16.15,668.79c27.28,0,46.84-1.41,73.03-16.75c41.05-24.05,81.12-47.95,122.9-70.71
	c19.79-10.78,40.81-16.3,51.23-36.28c6.99-13.42,19.8-31.6,24.1-46.12c6.63-22.39,28.08-23.88,49.15-23.7
	c21.06,0.18,42.69-0.43,62.52,6.66c48.87,17.47,44.83,39.42,84.39,64.08c13.97,8.71,27.14,22.93,37.46,41.58
	c6.17,11.15,9.39,25.67,17.43,35.83c14.64,18.51,25.84,32.83,47.3,37.28c13.26,2.75,14.57,4.44,40.3,1.74
	c31.84-3.34,79.7-0.85,99.27-5.51c13.35-3.18,16.39-29.02,29.25-53.76c11.74-22.59,12.95-47.03,12.95-67.32
	c0-19.35,41.33-37.9,64.88-35.06c12.54,1.52,41.85,5.37,52.51-1.43c7.09-4.52,20.58-16.17,27.28-21.26
	c3.44-2.61,7.65-2.08,17.93,8.2c9.85,9.85,25.47,22.46,37.06,31.23c10.22,7.73,30.93,6.17,43.55,9.75
	c13.43,3.81,55.68,11.18,68.91,7.93c20.67-5.08,65.52-40.11,98.08-85.48c21.15-29.46,42.7-57.19,59.33-83.71
	c8.15-13.01,54.9-14.95,70.75-35.75c12.53-16.45,26.36-54.05,30.14-70.11c1.73-7.37-0.32-20.67,5.23-30.56
	c5.81-10.37,11.32-23.67,22.39-31.64c17-12.24,22.48-21.42,39.64-29.81c10.43-5.7,24.73-10.19,37.82-15.61
	c22.79-9.45,33.87-25.8,50.41-31.19c9.1-2.97,16.78-17.28,30.69-22.67"/>
<path class="st4" d="M17.58,763.18c11.48-3.73,19.12-6.22,30.6-9.95c17.91-5.82,40.87-16.33,50.77-23.95
	c38.69-29.76,28.22-58.63,43.45-67.83c20.17-12.19,38.18-18.99,57.21-32.11c19.28-13.29,30.5-32.9,45.9-50.13
	c4.14-4.63,13.93-13.11,19.38-16.08c6.22-3.38,9.17-4.15,23.13-4.15c47.59,0,100.52-2.78,131,12.47c5.59,2.8,15.76,3.55,19.91,6.48
	c8.39,5.93,15.2,17.35,24.29,22.13c4.06,2.14,6.17,3.57,10.43,5.28c15.83,6.35,20.62,24.46,32.49,38.37
	c2.35,2.75,4.54,5.89,7.92,7.18c2.53,0.97,7.61-1.39,10.31-1.46c10.28-0.27,17.76,1.32,27.95-0.01
	c16.22-2.11,35.99-3.56,48.98-13.88c6.15-4.89,11.19-12.07,16.57-17.79c1.24-1.32,3.26-3.22,4.98-3.79c1.97-0.65,3.9-0.49,5.97-0.7
	c5.15-0.53,7.59-3.37,12.2-5.72c9.89-5.05,21.63-4.1,32.69-3.23c22.08,1.74,44.23,2.68,66.38,2.82c11.24,0.07,23.98-0.32,33.04-6.96
	c6.66-4.87,12.24-10.44,18.48-15.62c3.27-2.71,4.82-4.94,7.29-7.76c1.46-1.67,3.57-4.44,4.85-6.24
	c6.15-8.68,13.13-17.15,33.31-21.57c12.34-2.7,99.69-3.8,105.6-0.95c16.78,8.1,27.61,23.94,49.13,23.94
	c31.17,0,73.06,4.75,90.23-1.75c5.16-1.95,10.75-9.14,22.38-11.93c8.87-2.13,17.71-7.7,27.79-12.02
	c20.27-8.68,33.43-29.64,46.75-43.42c10.33-10.68,12.72-4.68,31.73-32.17c8.49-12.28,14.82-19.13,21.96-30.05
	c5.12-7.83,2.16-13.06,16.7-27.61c9.35-9.35,12.31-23.58,15.37-36.45c2.27-9.57,5.31-18.88,8.69-28.11
	c2.28-6.21,4.79-12.22,9.04-17.29c12.01-14.32,0.95-15.42,12.37-23.16c9.36-6.35,34.81-22.22,51.47-36.67
	c11.15-9.66,18.75-26.55,27.67-38.29c6.97-9.17,15.19-20.45,25.23-26.09c3.83-2.15,9.96-3.09,13.91-5.03
	c13.77-6.75,21.98-18.48,37.3-17.95c4.75,0.17,11.18,0.38,15.93,0.13c3.57-0.18,11.3-1.15,14.71-2.22
	c14.67-4.6,17.06-4.28,31.73-8.88c0.34-0.11,6.9-3.69,9.2-4.92"/>
</svg>
