<?xml version="1.0" encoding="utf-8"?>
<!-- Generator: Adobe Illustrator 25.0.1, SVG Export Plug-In . SVG Version: 6.00 Build 0)  -->
<svg version="1.1" id="Слой_1" xmlns="http://www.w3.org/2000/svg" xmlns:xlink="http://www.w3.org/1999/xlink" x="0px" y="0px"
	 viewBox="0 0 555.7 497.3" style="enable-background:new 0 0 555.7 497.3;" xml:space="preserve">
<style type="text/css">
	.st0{fill:#8262AB;}
	.st1{fill:#6F5698;}
	.st2{fill:#8F6AB9;}
	.st3{fill:#3A3156;}
	.st4{fill:#A282CE;}
	.st5{fill:#5B497F;}
</style>
<g id="Слой_3">
	<polygon class="st0" points="121.8,78.4 235.2,121.3 255.6,177.5 	"/>
	<polygon class="st1" points="121.8,78.4 102.9,129.7 114.7,189.1 107.9,194.2 117.4,203.4 109.2,210.2 119.4,219.4 114.7,224.5 
		129.3,244.9 203.9,222.8 255.6,177.5 	"/>
	<polygon class="st0" points="443.5,78.4 330.1,121.3 309.7,177.5 	"/>
	<polygon class="st1" points="443.5,78.4 462.4,129.7 450.7,189.1 457.5,194.2 447.9,203.4 456.1,210.2 445.9,219.4 450.7,224.5 
		436,244.9 361.5,222.8 309.7,177.5 	"/>
	<polygon class="st2" points="235.2,121.3 330.1,121.3 309.7,177.5 303.3,349.6 262.5,349.6 255.6,177.5 	"/>
	<polygon class="st0" points="255.6,177.5 203.9,222.8 183.3,256.9 258.9,259.5 	"/>
	<polygon class="st2" points="203.9,222.8 129.3,244.9 106,320.5 215.3,322 183.3,256.9 	"/>
	<polygon class="st0" points="128.4,400.4 106,320.5 170.7,321.4 208.9,377.4 	"/>
	<polygon class="st1" points="215.3,322 170.7,321.4 208.9,377.4 	"/>
	<polygon class="st0" points="255.6,353.9 208.9,377.4 215.3,322 	"/>
	<polygon class="st1" points="183.3,256.9 258.9,259.5 259.3,270.2 253.6,300.8 242.3,276.3 215.3,289.1 	"/>
	<polygon class="st0" points="183.3,256.9 215.3,289.1 215.3,322 	"/>
	<polygon class="st0" points="262.5,349.6 259.3,270.2 253.6,300.8 	"/>
	<polygon class="st2" points="215.3,289.1 253.6,300.8 262.5,349.6 255.6,353.9 215.3,322 	"/>
	<polygon class="st3" points="215.3,289.1 242.3,276.3 253.6,300.8 	"/>
	<polygon class="st4" points="255.6,353.9 252.7,397.4 208.9,377.4 	"/>
	<polygon class="st0" points="309.7,177.5 361.5,222.8 382,256.9 306.4,259.5 	"/>
	<polygon class="st2" points="361.5,222.8 436,244.9 459.3,320.5 350.1,322 382,256.9 	"/>
	<polygon class="st0" points="436.9,400.4 459.3,320.5 394.7,321.4 356.4,377.4 	"/>
	<polygon class="st1" points="350.1,322 394.7,321.4 356.4,377.4 	"/>
	<polygon class="st0" points="309.7,353.9 356.4,377.4 350.1,322 	"/>
	<polygon class="st1" points="382,256.9 306.4,259.5 306,270.2 311.8,300.8 323,276.3 350.1,289.1 	"/>
	<polygon class="st0" points="382,256.9 350.1,289.1 350.1,322 	"/>
	<polygon class="st0" points="302.8,349.6 306,270.2 311.8,300.8 	"/>
	<polygon class="st2" points="350.1,289.1 311.8,300.8 302.8,349.6 309.7,353.9 350.1,322 	"/>
	<polygon class="st3" points="350.1,289.1 323,276.3 311.8,300.8 	"/>
	<polygon class="st4" points="309.7,353.9 312.6,397.4 356.4,377.4 	"/>
	<polygon class="st5" points="255.6,353.9 262.5,349.6 302.8,349.6 309.7,353.9 311.6,381.9 253.7,381.9 	"/>
	<polygon class="st2" points="208.9,377.4 252.7,397.4 253.7,381.9 311.6,381.9 312.6,397.4 356.4,377.4 309.7,411.9 255.6,411.9 	
		"/>
</g>
</svg>
