<?xml version="1.0" encoding="utf-8"?>
<!-- Generator: Adobe Illustrator 15.0.2, SVG Export Plug-In . SVG Version: 6.00 Build 0)  -->
<!DOCTYPE svg PUBLIC "-//W3C//DTD SVG 1.1//EN" "http://www.w3.org/Graphics/SVG/1.1/DTD/svg11.dtd">
<svg version="1.1" id="Слой_1" xmlns="http://www.w3.org/2000/svg" xmlns:xlink="http://www.w3.org/1999/xlink" x="0px" y="0px"
	 width="107.654px" height="102px" viewBox="0 0 107.654 102" enable-background="new 0 0 107.654 102" xml:space="preserve">
<g>
	<g>
		<linearGradient id="SVGID_1_" gradientUnits="userSpaceOnUse" x1="-58.8398" y1="158.3335" x2="-5.9854" y2="158.3335">
			<stop  offset="0" style="stop-color:#E68D13"/>
			<stop  offset="1" style="stop-color:#82027E"/>
		</linearGradient>
		<path fill="url(#SVGID_1_)" d="M-12.876,142.265c-0.477,0.666-1.863,1.763-2.683,2.299c-5.79,3.861-16.832,5.787-25.71,7.337
			c-2.252,0.393-4.38,0.764-6.242,1.136l-0.514,0.103c-4.87,0.961-9.702,2.169-10.656,5.381c-0.478,1.611,0.116,3.239,1.777,4.854
			c0.946,0.848,1.839,1.785,2.653,2.781c1.692,2.122,2.381,4.854,1.891,7.479c-0.478,2.197-1.493,4.265-2.897,5.936
			c-0.41,0.386-0.751,0.842-1.016,1.354l-1.182,2.294l2.508,0.604c0.489,0.118,1.013,0.179,1.56,0.179
			c2.425,0,4.938-1.2,6.147-1.776c1.161-0.557,1.811-0.968,2.208-1.226c0.115,0.025,0.252,0.059,0.414,0.096l0.211,0.049
			c0.504,0.128,1.098,0.251,1.773,0.369c2.718,0.432,5.499,0.21,8.129-0.657c0.049-0.018,5.06-1.915,6.059-4.243l1.254-2.93
			c0.989-0.833,1.648-1.646,1.965-2.425l1.306-3.205c0.109-0.082,0.217-0.164,0.326-0.248c1.867-1.422,3.459-3.147,4.733-5.128
			l3.787-5.9c2.84-3.266,3.757-6.215,4.025-8.114l0.049-0.347c0.866-1.278,1.173-2.377,1.528-3.64l3.488-12.009L-12.876,142.265z"/>
		<g>
			<defs>
				<path id="SVGID_17_" d="M-37.584,166.101c5.876-1.004,11.791-3.22,16.55-6.813c4.758-3.59,6.519-7.261,6.897-9.937
					c-0.28,0.482-0.556,0.92-0.727,1.177c-1.985,2.898-4.62,5.291-7.697,6.988c-3.533,1.995-10.358,4.419-15.134,4.423
					c-1.085,0-3.546-0.063-4.15-0.701l4.395-0.968c6.86-1.566,17.103-4.935,21.938-10.02c0.417-0.437,0.843-0.885,1.277-1.423
					c1.157-1.423,1.323-2.42,1.822-4.134c-0.311,0.707-2.244,2.134-3.026,2.646c-7.261,4.843-22.24,6.556-30.852,8.283
					c-3.525,0.707-12.331,2.213-7.965,6.461c0.979,0.879,1.888,1.836,2.722,2.857c1.943,2.437,2.73,5.597,2.159,8.658
					c-0.524,2.416-1.634,4.661-3.239,6.54c-0.256,0.229-0.467,0.508-0.625,0.814c2.002,0.482,4.529-0.673,6.001-1.375
					c3.03-1.452,1.82-1.65,3.969-1.149c0.486,0.122,1.022,0.229,1.51,0.313c2.255,0.362,4.564,0.181,6.734-0.534
					c1.196-0.425,4.162-1.937,4.599-2.956c-0.915,0.149-1.865,0.483-2.905,0.648c-2.056,0.319-4.251,0.484-6.291,0
					c-0.708-0.176-2.04-0.61-2.239-1.131c3.143,0.439,5.276,0.836,8.65-0.37c1.786-0.639,5.194-2.656,5.811-4.17
					c-0.519,0.151-1.451,0.72-2.658,1.063c-0.984,0.292-1.993,0.489-3.011,0.592c-1.452,0.149-5.625,0.077-6.574-0.486
					c0.393-0.213,2.208-0.328,2.817-0.435c4.073-0.702,8.271-2.236,11.578-4.793c1.582-1.207,2.941-2.682,4.018-4.355
					c-1.073,0.997-2.289,1.825-3.61,2.454c-3.119,1.559-7.058,2.958-10.8,2.943c-0.687,0-3.215-0.13-3.825-0.761
					c0.625-0.142,1.257-0.249,1.895-0.325L-37.584,166.101z"/>
			</defs>
			<use xlink:href="#SVGID_17_"  overflow="visible" fill="#FFFFFF"/>
			<clipPath id="SVGID_2_">
				<use xlink:href="#SVGID_17_"  overflow="visible"/>
			</clipPath>
		</g>
	</g>
	<g>
		
			<linearGradient id="SVGID_3_" gradientUnits="userSpaceOnUse" x1="876.7607" y1="158.3335" x2="929.6152" y2="158.3335" gradientTransform="matrix(-1 0 0 1 817.9219 0)">
			<stop  offset="0" style="stop-color:#E68D13"/>
			<stop  offset="1" style="stop-color:#82027E"/>
		</linearGradient>
		<path fill="url(#SVGID_3_)" d="M-104.803,142.265c0.477,0.666,1.863,1.763,2.683,2.299c5.79,3.861,16.832,5.787,25.71,7.337
			c2.252,0.393,4.38,0.764,6.242,1.136l0.514,0.103c4.87,0.961,9.702,2.169,10.656,5.381c0.478,1.611-0.116,3.239-1.777,4.854
			c-0.946,0.848-1.839,1.785-2.653,2.781c-1.692,2.122-2.381,4.854-1.891,7.479c0.478,2.197,1.493,4.265,2.897,5.936
			c0.41,0.386,0.751,0.842,1.016,1.354l1.182,2.294l-2.508,0.604c-0.489,0.118-1.013,0.179-1.56,0.179
			c-2.425,0-4.938-1.2-6.147-1.776c-1.161-0.557-1.811-0.968-2.208-1.226c-0.115,0.025-0.252,0.059-0.414,0.096l-0.211,0.049
			c-0.504,0.128-1.098,0.251-1.773,0.369c-2.718,0.432-5.499,0.21-8.129-0.657c-0.049-0.018-5.06-1.915-6.059-4.243l-1.254-2.93
			c-0.989-0.833-1.648-1.646-1.965-2.425l-1.306-3.205c-0.109-0.082-0.217-0.164-0.326-0.248c-1.867-1.422-3.459-3.147-4.733-5.128
			l-3.787-5.9c-2.84-3.266-3.757-6.215-4.025-8.114l-0.049-0.347c-0.866-1.278-1.173-2.377-1.528-3.64l-3.488-12.009
			L-104.803,142.265z"/>
		<g>
			<defs>
				<path id="SVGID_20_" d="M-80.11,166.127c0.638,0.076,1.27,0.184,1.895,0.325c-0.61,0.631-3.138,0.761-3.825,0.761
					c-3.742,0.015-7.681-1.385-10.8-2.943c-1.321-0.629-2.537-1.457-3.61-2.454c1.077,1.674,2.436,3.148,4.018,4.355
					c3.307,2.557,7.505,4.091,11.578,4.793c0.609,0.106,2.425,0.222,2.817,0.435c-0.95,0.563-5.122,0.636-6.574,0.486
					c-1.018-0.103-2.026-0.3-3.011-0.592c-1.207-0.343-2.139-0.911-2.658-1.063c0.616,1.514,4.025,3.531,5.811,4.17
					c3.374,1.206,5.507,0.81,8.65,0.37c-0.199,0.521-1.531,0.955-2.239,1.131c-2.04,0.484-4.235,0.319-6.291,0
					c-1.04-0.165-1.99-0.499-2.905-0.648c0.437,1.02,3.403,2.531,4.599,2.956c2.169,0.715,4.479,0.896,6.734,0.534
					c0.487-0.084,1.024-0.19,1.51-0.313c2.148-0.501,0.938-0.303,3.969,1.149c1.473,0.702,4,1.857,6.001,1.375
					c-0.158-0.307-0.369-0.585-0.625-0.814c-1.604-1.879-2.715-4.124-3.239-6.54c-0.571-3.062,0.216-6.222,2.159-8.658
					c0.834-1.021,1.743-1.979,2.722-2.857c4.366-4.248-4.439-5.754-7.965-6.461c-8.612-1.728-23.591-3.44-30.852-8.283
					c-0.782-0.513-2.715-1.939-3.026-2.646c0.499,1.714,0.665,2.711,1.822,4.134c0.434,0.538,0.86,0.986,1.277,1.423
					c4.834,5.085,15.078,8.453,21.938,10.02l4.395,0.968c-0.604,0.639-3.065,0.701-4.15,0.701
					c-4.776-0.004-11.602-2.428-15.134-4.423c-3.077-1.697-5.711-4.09-7.697-6.988c-0.171-0.257-0.446-0.694-0.727-1.177
					c0.378,2.676,2.14,6.347,6.897,9.937c4.759,3.593,10.673,5.809,16.55,6.813L-80.11,166.127z"/>
			</defs>
			<use xlink:href="#SVGID_20_"  overflow="visible" fill="#FFFFFF"/>
			<clipPath id="SVGID_4_">
				<use xlink:href="#SVGID_20_"  overflow="visible"/>
			</clipPath>
		</g>
	</g>
</g>
<g>
	<g>
		<defs>
			<path id="SVGID_22_" d="M-155.696,142.024c0.343,0.498,0.758,0.942,1.232,1.318c0.369,0.375,0.77,0.985,1.631,0.868
				c0.864-0.115,1.941-1.891,2.736-2.267c0.502,0.471,0.979,0.971,1.421,1.497c0.304,0.333,1.073,1.318,1.627,1.338
				c0.98,0.035,2.212-2.305,3.153-2.901c0.587,0.374,2.157,2.161,2.631,2.253c0.857,0.166,2.004-1.669,2.748-2.148
				c-0.233-0.587-3.622-3.696-4.01-4.049c-1.3-1.23-1.665-0.331-3.4,1.405c-1.343,1.342-1.097,1.231-3.326-0.998
				c-0.776-0.77-1.281-1.49-2.42-0.395c-0.53,0.505-3.728,3.585-4.011,4.078H-155.696z M-140.236,138.945
				c1.603-1.466,1.848-2.299,3.449-0.76c0.372,0.317,0.711,0.671,1.012,1.055l-2.125,2.063c-0.151-0.071-0.285-0.177-0.389-0.309
				c-0.707-0.626-1.355-1.316-1.934-2.063L-140.236,138.945z M-146.525,140.829c0.669-0.788,1.39-1.529,2.162-2.218
				c0.506-0.492,0.695-0.936,1.313-0.362c0.318,0.367,0.677,0.699,1.066,0.991c-0.266,0.276-0.45,0.239-0.745,0.45
				c-0.839,0.614-1.848,2.378-2.768,2.124C-145.923,141.588-146.28,141.248-146.525,140.829L-146.525,140.829z M-154.815,142.024
				c0.959-1.077,1.973-2.105,3.036-3.079c0.661-0.659,0.92-1.361,1.73-0.542c0.539,0.49,1.045,1.016,1.518,1.57l-0.618,0.221
				c-0.443,0.261-0.837,0.599-1.164,1c-0.979,0.959-2.371,2.794-3.134,2.333c-0.543-0.42-1.012-0.928-1.387-1.503H-154.815z"/>
		</defs>
		<linearGradient id="SVGID_5_" gradientUnits="userSpaceOnUse" x1="-155.6958" y1="141.0708" x2="-135.7749" y2="141.0708">
			<stop  offset="0" style="stop-color:#E68D13"/>
			<stop  offset="1" style="stop-color:#82027E"/>
		</linearGradient>
		<use xlink:href="#SVGID_22_"  overflow="visible" fill="url(#SVGID_5_)"/>
		<clipPath id="SVGID_6_">
			<use xlink:href="#SVGID_22_"  overflow="visible"/>
		</clipPath>
	</g>
	<g>
		<defs>
			<path id="SVGID_25_" d="M-158.171,131.238h26.111c1.351,0.024,2.439,1.112,2.463,2.464v14.421
				c-0.006,1.363-1.101,2.471-2.463,2.494h-9.572v2.521h1.932c0.957,0.003,1.729,0.778,1.733,1.731v1.298h-13.127v-1.285
				c0.003-0.952,0.772-1.726,1.725-1.731h1.934v-2.521h-10.735c-1.365-0.021-2.462-1.13-2.465-2.495v-14.402
				c0.02-1.352,1.112-2.444,2.465-2.463V131.238z M-156.361,134.236c-0.922,0.008-1.667,0.709-1.673,1.576v10.243
				c0.004,0.868,0.75,1.573,1.673,1.576h22.132c0.923-0.003,1.669-0.708,1.672-1.576v-10.243c-0.005-0.867-0.75-1.568-1.672-1.576
				H-156.361z"/>
		</defs>
		<linearGradient id="SVGID_7_" gradientUnits="userSpaceOnUse" x1="-160.6362" y1="143.7017" x2="-129.5972" y2="143.7017">
			<stop  offset="0" style="stop-color:#E68D13"/>
			<stop  offset="1" style="stop-color:#82027E"/>
		</linearGradient>
		<use xlink:href="#SVGID_25_"  overflow="visible" fill="url(#SVGID_7_)"/>
		<clipPath id="SVGID_8_">
			<use xlink:href="#SVGID_25_"  overflow="visible"/>
		</clipPath>
	</g>
	<g>
		<defs>
			<path id="SVGID_28_" d="M-205.617,172.447h26.111c1.351,0.024,2.439,1.112,2.463,2.464v14.421
				c-0.006,1.363-1.101,2.471-2.463,2.494h-9.572v2.521h1.932c0.957,0.003,1.729,0.778,1.733,1.731v1.298h-13.127v-1.285
				c0.003-0.952,0.772-1.726,1.725-1.731h1.934v-2.521h-10.735c-1.365-0.021-2.462-1.13-2.465-2.495v-14.402
				c0.02-1.352,1.112-2.444,2.465-2.463V172.447z M-204.095,175.27c-0.946,0.008-1.711,0.727-1.717,1.617v10.511
				c0.004,0.892,0.77,1.614,1.717,1.617h22.71c0.947-0.003,1.713-0.726,1.716-1.617v-10.511c-0.005-0.891-0.77-1.609-1.716-1.617
				H-204.095z"/>
		</defs>
		<linearGradient id="SVGID_9_" gradientUnits="userSpaceOnUse" x1="-208.0815" y1="184.9106" x2="-177.0425" y2="184.9106">
			<stop  offset="0" style="stop-color:#E68D13"/>
			<stop  offset="1" style="stop-color:#82027E"/>
		</linearGradient>
		<use xlink:href="#SVGID_28_"  overflow="visible" fill="url(#SVGID_9_)"/>
		<clipPath id="SVGID_10_">
			<use xlink:href="#SVGID_28_"  overflow="visible"/>
		</clipPath>
	</g>
	<g>
		<g>
			<linearGradient id="SVGID_11_" gradientUnits="userSpaceOnUse" x1="-172.4478" y1="183.063" x2="-169.0688" y2="183.063">
				<stop  offset="0" style="stop-color:#E68D13"/>
				<stop  offset="1" style="stop-color:#82027E"/>
			</linearGradient>
			<path fill="url(#SVGID_11_)" d="M-171.455,184.911l-0.993-2.83c0.615-0.216,1.385-0.513,2.281-0.865l1.098,2.793
				C-170.006,184.376-170.812,184.685-171.455,184.911z"/>
		</g>
		<g>
			<linearGradient id="SVGID_12_" gradientUnits="userSpaceOnUse" x1="-207.2529" y1="156.8374" x2="-130.3062" y2="156.8374">
				<stop  offset="0" style="stop-color:#E68D13"/>
				<stop  offset="1" style="stop-color:#82027E"/>
			</linearGradient>
			<path fill="url(#SVGID_12_)" d="M-137.282,194.383l-0.258-2.988c1.271-0.11,2.268-0.735,2.961-1.859l2.553,1.576
				C-133.21,193.032-135.077,194.194-137.282,194.383z M-139.716,194.222c-1.653-0.344-3.365-1.147-5.088-2.389l1.754-2.434
				c1.379,0.993,2.706,1.627,3.945,1.885L-139.716,194.222z M-146.491,190.482c-1.222-1.079-2.438-2.377-3.618-3.857l2.346-1.869
				c1.071,1.344,2.168,2.515,3.259,3.479L-146.491,190.482z M-131.058,188.893l-2.885-0.82c0.046-0.164,0.09-0.333,0.128-0.507
				c0.326-1.497,0.498-2.868,0.509-4.071l3,0.027c-0.013,1.409-0.207,2.985-0.578,4.686
				C-130.937,188.445-130.995,188.672-131.058,188.893z M-151.369,184.958c-0.955-1.331-1.896-2.8-2.794-4.367l2.602-1.492
				c0.849,1.479,1.733,2.862,2.63,4.111L-151.369,184.958z M-167.192,183.266l-1.107-2.789c1.404-0.557,2.999-1.188,4.719-1.838
				l1.061,2.807C-164.222,182.089-165.801,182.713-167.192,183.266z M-133.42,181.723c-0.229-1.532-0.788-2.696-1.708-3.558
				l2.051-2.189c1.412,1.322,2.295,3.106,2.624,5.304L-133.42,181.723z M-160.646,180.749l-1.029-2.818
				c1.715-0.626,3.291-1.17,4.817-1.661l0.92,2.855C-157.428,179.604-158.968,180.135-160.646,180.749z M-155.16,178.787
				c-0.773-1.453-1.53-3.008-2.249-4.621l2.74-1.221c0.354,0.794,0.718,1.573,1.088,2.332c1.268-0.357,2.489-0.67,3.645-0.933
				l0.664,2.926c-1.487,0.337-3.093,0.763-4.771,1.266l-0.088-0.297L-155.16,178.787z M-136.429,177.267
				c-1.107-0.561-2.542-0.888-4.264-0.972l0.146-2.996c2.146,0.104,3.987,0.539,5.473,1.292L-136.429,177.267z M-147.355,176.874
				l-0.551-2.949c1.888-0.353,3.641-0.563,5.211-0.629l0.123,2.998C-143.999,176.352-145.608,176.547-147.355,176.874z
				 M-158.219,172.292c-0.691-1.632-1.383-3.139-2.056-4.477l2.68-1.348c0.702,1.396,1.422,2.963,2.138,4.654L-158.219,172.292z
				 M-161.184,166.086c-0.854-1.554-1.723-2.916-2.578-4.049l2.393-1.809c0.957,1.266,1.877,2.708,2.814,4.41L-161.184,166.086z
				 M-164.953,160.599c-1.117-1.228-2.258-2.139-3.488-2.785l1.396-2.656c1.545,0.813,2.955,1.932,4.311,3.422L-164.953,160.599z
				 M-170.06,157.125c-1.518-0.506-3.096-0.683-4.575-0.798l0.232-2.99c1.59,0.123,3.462,0.332,5.292,0.942L-170.06,157.125z
				 M-176.62,156.195c-1.437-0.09-3.225-0.201-5.14-0.497l0.458-2.965c1.78,0.275,3.493,0.382,4.868,0.468L-176.62,156.195z
				 M-183.829,155.311c-1.731-0.383-3.377-0.897-5.032-1.574l1.135-2.777c1.496,0.611,2.982,1.076,4.544,1.422L-183.829,155.311z
				 M-190.781,152.881c-1.33-0.643-2.688-1.406-4.036-2.269l-0.501-0.33l1.664-2.496l0.464,0.305
				c1.239,0.793,2.492,1.498,3.715,2.089L-190.781,152.881z M-197.046,149.103c-1.424-1.061-2.76-2.225-3.97-3.459l2.143-2.1
				c1.102,1.124,2.319,2.185,3.62,3.152L-197.046,149.103z M-202.447,144.08c-1.237-1.452-2.256-2.942-3.028-4.431l2.663-1.381
				c0.667,1.286,1.559,2.587,2.648,3.866L-202.447,144.08z M-171.822,142.246c-1.091-1.17-2.203-2.41-3.398-3.793l2.27-1.963
				c1.17,1.354,2.257,2.567,3.322,3.709L-171.822,142.246z M-206.368,137.64c-0.587-1.586-0.885-3.16-0.885-4.678
				c0-0.299,0.011-0.597,0.034-0.894l2.991,0.23c-0.017,0.221-0.025,0.442-0.025,0.663c0,1.161,0.235,2.385,0.698,3.637
				L-206.368,137.64z M-176.539,136.91c-0.891-1.052-1.747-2.081-2.575-3.077l-0.663-0.797l2.305-1.92l0.665,0.799
				c0.822,0.988,1.672,2.011,2.558,3.056L-176.539,136.91z M-181.065,131.498c-1.341-1.59-2.351-2.737-3.274-3.72l2.187-2.055
				c0.961,1.023,2.004,2.208,3.38,3.841L-181.065,131.498z M-203.922,130.627l-2.879-0.842c0.51-1.745,1.458-3.396,2.815-4.907
				l2.231,2.006C-202.809,128.058-203.538,129.318-203.922,130.627z M-185.701,126.388c-1.332-1.294-2.525-2.244-3.648-2.904
				l1.52-2.586c1.333,0.783,2.713,1.875,4.219,3.338L-185.701,126.388z M-200.449,125.612l-1.96-2.271
				c0.192-0.166,0.391-0.331,0.596-0.494c1.37-1.094,2.663-1.911,3.951-2.499l1.244,2.73c-1.046,0.477-2.165,1.188-3.324,2.113
				C-200.117,125.332-200.286,125.471-200.449,125.612z M-190.917,122.731c-1.361-0.499-2.672-0.575-4.067-0.231l-0.716-2.914
				c1.962-0.48,3.911-0.371,5.817,0.329L-190.917,122.731z"/>
		</g>
		<g>
			<linearGradient id="SVGID_13_" gradientUnits="userSpaceOnUse" x1="-170.2349" y1="143.7603" x2="-166.3462" y2="143.7603">
				<stop  offset="0" style="stop-color:#E68D13"/>
				<stop  offset="1" style="stop-color:#82027E"/>
			</linearGradient>
			<path fill="url(#SVGID_13_)" d="M-168.438,145.705c-0.614-0.597-1.213-1.196-1.797-1.795l2.148-2.094
				c0.564,0.579,1.146,1.159,1.74,1.738L-168.438,145.705z"/>
		</g>
	</g>
</g>
<g>
	<g>
		<defs>
			<path id="SVGID_34_" d="M-60.382,14.574c4.71-0.423,11.135,0.948,15.474,2.632c2.118,0.81,4.147,1.837,6.056,3.062
				c0.954,0.617,1.815,1.211,2.691,1.888c0.874,0.681,1.62,1.347,2.436,2.081c3.211,3.003,5.836,6.578,7.736,10.541
				c4.312,9.05,4.892,20.931,0.976,30.275c-1.652,4.111-4.046,7.885-7.058,11.135c-0.464,0.504-0.814,0.78-1.15,1.15
				c-1.146,1.131-2.377,2.176-3.68,3.122c-5.929,4.299-13.005,6.731-20.324,6.982c-9.231,0.323-17.378-2.227-24.375-7.596
				c-0.451-0.351-0.835-0.672-1.258-1.035c-0.408-0.324-0.798-0.672-1.165-1.044c-0.739-0.78-1.573-1.573-2.26-2.341
				c-3.771-4.273-6.47-9.38-7.879-14.902c-1.965-7.835-1.434-16.088,1.521-23.606c0.855-2.086,1.895-4.092,3.103-5.995
				c1.472-2.271,3.185-4.372,5.112-6.27c2.771-2.657,5.951-4.853,9.42-6.5c5.253-2.502,8.873-3.062,14.658-3.579H-60.382z
				 M-98.397,47.656v6.479c0.086,0.258,0.129,1.667,0.195,2.146c1.332,8.782,5.51,16.884,11.895,23.061
				c1.604,1.533,3.321,2.944,5.138,4.221c3.856,2.71,8.167,4.705,12.729,5.895c1.27,0.352,2.557,0.628,3.857,0.83
				c0.775,0.111,3.926,0.21,4.258,0.332h4.504c0.178-0.079,3.427-0.479,4.048-0.615c3.619-0.69,7.122-1.89,10.404-3.563
				c1.999-1.036,3.918-2.221,5.74-3.544c8.805-6.484,15.191-16.895,16.188-27.89c0.017-0.727,0.074-1.451,0.172-2.172v-3.876
				c-0.086-0.228-0.356-3.538-0.468-4.245c-0.206-1.292-0.487-2.569-0.843-3.827c-2.019-7.205-5.994-13.709-11.486-18.79
				c-2.886-2.664-6.129-4.91-9.636-6.676c-10.761-5.537-24.204-5.334-34.874,0.283c-4.65,2.461-6.712,4.152-10.329,7.599
				c-1.479,1.521-2.856,3.139-4.123,4.842c-2.646,3.627-4.649,7.681-5.925,11.985c-0.535,1.815-0.947,3.665-1.23,5.537
				c-0.029,0.667-0.105,1.332-0.228,1.987H-98.397z"/>
		</defs>
		<linearGradient id="SVGID_14_" gradientUnits="userSpaceOnUse" x1="-98.4102" y1="50.9995" x2="-19.2686" y2="50.9995">
			<stop  offset="0" style="stop-color:#E68D13"/>
			<stop  offset="1" style="stop-color:#82027E"/>
		</linearGradient>
		<use xlink:href="#SVGID_34_"  overflow="visible" fill="url(#SVGID_14_)"/>
		<clipPath id="SVGID_15_">
			<use xlink:href="#SVGID_34_"  overflow="visible"/>
		</clipPath>
	</g>
	<g>
		<defs>
			<path id="SVGID_37_" d="M-54.991,56.461c-0.474,2.394-1.754,2.492-1.925,3.04c-0.095,0.816-0.12,1.64-0.075,2.461
				c0,1.335,0.075,1.113-0.688,1.802c-1.441,1.299-3.077-0.307-3.077-0.99c0-0.8,0-1.691,0-2.51c0-1.354-0.332-0.918-0.923-1.581
				c-1.503-1.559-1.457-4.04,0.102-5.542c0.365-0.354,0.797-0.632,1.271-0.82c3.161-1.199,5.795,1.771,5.334,4.152L-54.991,56.461z
				 M-69.551,47.24c-0.431-2.563-0.079-5.199,1.01-7.553c1.944-4.052,6.712-7.039,11.314-6.131c1.16,0.211,2.276,0.605,3.316,1.172
				c1.813,1.082,3.321,2.619,4.382,4.464c1.223,2.267,1.715,4.866,1.398,7.431c-0.084,0.829,0.071,0.666-1.538,0.656
				c-2.213,0-18.769,0.102-19.907,0L-69.551,47.24z M-45.184,44.833c0.104-5.175-2.511-8.725-5.015-10.978
				c-3.358-2.884-7.927-3.918-12.201-2.763c-5.068,1.354-8.416,5.465-9.758,9.949c-0.431,1.434-0.362,3.98-0.35,5.655
				c0,0.923-0.13,0.713-0.664,1.229c-0.751,0.67-1.195,1.616-1.23,2.621c0,4.165-0.111,10.091,0.055,14.06
				c-0.061,0.951,0.23,1.894,0.818,2.646c0.527,0.65,1.199,1.169,1.963,1.513c1.181,0.406,11.535,0.271,13.609,0.265
				c2.072-0.006,10.01,0,11.412-0.185c0.706-0.185,1.346-0.564,1.847-1.095c0.592-0.394,0.983-1.024,1.077-1.729
				c0.21-1.812,0.278-3.636,0.202-5.458c0-2.295,0.068-9.229-0.123-10.668c-0.204-1.053-0.831-1.974-1.734-2.548L-45.184,44.833z"/>
		</defs>
		<linearGradient id="SVGID_16_" gradientUnits="userSpaceOnUse" x1="-74.438" y1="49.8433" x2="-43.3877" y2="49.8433">
			<stop  offset="0" style="stop-color:#E68D13"/>
			<stop  offset="1" style="stop-color:#82027E"/>
		</linearGradient>
		<use xlink:href="#SVGID_37_"  overflow="visible" fill="url(#SVGID_16_)"/>
		<clipPath id="SVGID_18_">
			<use xlink:href="#SVGID_37_"  overflow="visible"/>
		</clipPath>
	</g>
</g>
<g>
	<defs>
		<path id="SVGID_40_" d="M-197.304,35.665c-1,0.65-6.35,5.66-8,6.94c-0.43,0.33-1,0.59-1,1.25v41c0,4.12,2.46,6.56,6.55,6.56h61.82
			c4.1,0,6.56-2.46,6.56-6.56v-40.82c0-0.92-0.93-1.38-2-2.32l-7-6.05c-0.109-3.22,0.5-10.34-0.619-12.75
			c-1.721-3.729-5.29-3.41-10.08-3.41c-2.181,0-4.38,0-6.561,0c-1.61,0-1.31-0.33-2.229-1.13c-0.61-0.529-1.16-1-1.811-1.56
			c-1.779-1.49-5.83-5.271-7.18-6.23c-2.221,1.65-6.23,5.5-8.89,7.71c-0.85,0.71-0.74,1.181-2.15,1.221c-2.21,0.05-4.53,0-6.75,0
			c-4.73,0-8.26-0.32-10,3.279c-1.11,2.25-0.57,9.74-0.65,12.88L-197.304,35.665z M-158.304,67.465c1.95-1.8,3.91-3.399,6-5.229
			l11.93-10.53c1.521-1.41,4.57-3.79,5.921-5.149c0.289,1.85,0.079,27.199,0.079,31.369c0,2.46,0.61,8.4-0.939,9.561
			c-1.055-0.752-2.057-1.573-3-2.46c-4.561-3.79-9.78-8.74-14.39-12.58c-1.061-0.891-1.791-1.641-2.891-2.53
			C-156.56,69.171-157.466,68.352-158.304,67.465L-158.304,67.465z M-202.374,87.465c-1.2-1-0.94-2.42-0.94-4.31
			c0-4.91-0.22-35.06,0.09-36.62l5.92,5.14c3.76,3.511,15.74,13.48,17.88,15.78l-20.01,17.65c-0.894,0.866-1.854,1.662-2.87,2.38
			L-202.374,87.465z M-198.684,88.365l15.89-13.72c0.86-0.75,4.63-4.23,5.51-4.23h16.85c0.88,0,2.51,1.66,3,2.08
			c5.15,4.521,10.87,9.13,15.83,13.561c0.915,0.717,1.78,1.496,2.59,2.33h-59.66L-198.684,88.365z M-140.394,47.365l0.06-7.77
			l4.311,3.869c-0.36,0.57-0.57,0.61-1.08,1.051c-0.51,0.439-0.66,0.649-1.061,1l-2.229,1.859V47.365z M-201.674,43.465
			c1.361-1.379,2.804-2.674,4.32-3.88v7.771c-1.524-1.188-2.958-2.489-4.29-3.891H-201.674z M-174.524,19.465l5.67-5
			c1.979,1.561,3.867,3.229,5.66,5H-174.524L-174.524,19.465z M-192.074,22.605c1.34-0.34,31.63-0.12,35.76-0.12
			c11.51,0,12.93-1.19,12.92,5.06v18c0,3.49,0.42,3.87-0.93,5.061l-15.82,14.14c-3.851,3.65-2.45,2.771-9.271,2.69
			c-1.289,0-4.77,0.319-5.64-0.34l-3.17-2.82c-0.6-0.57-1-0.79-1.6-1.4c-0.45-0.439-1.05-0.939-1.58-1.41l-12.7-11.239
			c-0.44-0.74-0.19-20.67-0.19-23.79c-0.01-2.11,0.45-3.36,2.25-3.811L-192.074,22.605z"/>
	</defs>
	<linearGradient id="SVGID_19_" gradientUnits="userSpaceOnUse" x1="-134.4409" y1="32.104" x2="-202.9409" y2="85.604">
		<stop  offset="0" style="stop-color:#E68D13"/>
		<stop  offset="1" style="stop-color:#82027E"/>
	</linearGradient>
	<use xlink:href="#SVGID_40_"  overflow="visible" fill="url(#SVGID_19_)"/>
	<clipPath id="SVGID_21_">
		<use xlink:href="#SVGID_40_"  overflow="visible"/>
	</clipPath>
</g>
<g>
	<linearGradient id="SVGID_23_" gradientUnits="userSpaceOnUse" x1="59.0225" y1="159.0923" x2="98.6016" y2="159.0923">
		<stop  offset="0" style="stop-color:#E68D13"/>
		<stop  offset="1" style="stop-color:#82027E"/>
	</linearGradient>
	<path fill="url(#SVGID_23_)" d="M80.427,164.807v-2.154c4.72,0.26,9.527-1.404,13.128-5.006c4.285-4.283,5.842-10.266,4.668-15.781
		c-5.516-1.174-11.498,0.383-15.783,4.666c-1.582,1.584-2.79,3.398-3.628,5.336c-0.838-1.938-2.046-3.752-3.628-5.336
		c-4.285-4.283-10.268-5.84-15.783-4.666c-1.174,5.516,0.383,11.498,4.668,15.781c3.651,3.652,8.545,5.314,13.329,4.994v2.164
		c-7.423,0.484-13.888,4.508-17.692,10.391c0,0.596,0.203,1.096,0.188,1.236l4.016,0.031c-0.166-0.318-0.422-0.813-0.482-1.268
		c3.023-4.064,8.111-6.848,13.972-7.26v5.795c0,1.037,0.679,1.879,1.515,1.879s1.515-0.842,1.515-1.879v-5.795
		c5.854,0.416,10.938,3.199,13.969,7.26c0,0-0.237,1.346-0.55,1.502h4.203c0.3-0.4,0.1-1.125,0.076-1.502
		C94.305,169.315,87.844,165.293,80.427,164.807z M84.715,148.805c3.213-3.213,7.347-4.73,10.95-4.383
		c0.349,3.604-1.171,7.738-4.384,10.951c-3.207,3.207-7.341,4.727-10.944,4.377C79.984,156.153,81.502,152.02,84.715,148.805z
		 M77.287,159.75c-3.604,0.35-7.737-1.17-10.944-4.377c-3.213-3.213-4.732-7.348-4.384-10.951c3.604-0.348,7.737,1.17,10.95,4.383
		C76.122,152.02,77.64,156.153,77.287,159.75z"/>
	<g>
		<linearGradient id="SVGID_24_" gradientUnits="userSpaceOnUse" x1="14.4829" y1="142.9878" x2="16.6528" y2="142.9878">
			<stop  offset="0" style="stop-color:#E68D13"/>
			<stop  offset="1" style="stop-color:#82027E"/>
		</linearGradient>
		<path fill="url(#SVGID_24_)" d="M14.973,142.778c-0.211,0.381-0.371,0.771-0.49,1.17c0.459-0.299,0.959-0.57,1.479-0.82
			c0.19-0.379,0.42-0.738,0.69-1.1C16.063,142.258,15.502,142.508,14.973,142.778z"/>
		<linearGradient id="SVGID_26_" gradientUnits="userSpaceOnUse" x1="9.0532" y1="158.3335" x2="58.8228" y2="158.3335">
			<stop  offset="0" style="stop-color:#E68D13"/>
			<stop  offset="1" style="stop-color:#82027E"/>
		</linearGradient>
		<path fill="url(#SVGID_26_)" d="M50.092,148.778c0.04-0.25,0.061-0.5,0.061-0.75v-2.33c0-5.559-8.051-10.059-17.971-10.059
			c-8.109,0-14.97,3-17.209,7.139c-3.641,1.84-5.92,4.5-5.92,7.461v2.34c0,3.029,2.409,5.76,6.219,7.6
			c-0.1,0.42-0.149,0.85-0.149,1.291v2.33c0,2.059,1.101,3.979,3,5.568v1.59c0,5.561,8.05,10.07,17.979,10.07
			c9.92,0,17.971-4.51,17.971-10.07v-2.33c0-0.648-0.11-1.279-0.32-1.889c3.141-1.811,5.07-4.281,5.07-7v-2.34
			C58.823,153.739,55.323,150.528,50.092,148.778z M15.962,143.127c0.19-0.379,0.42-0.738,0.69-1.1
			c2.55-3.389,8.55-5.76,15.529-5.76c9.301,0,16.851,4.221,16.851,9.43c0,0.891-0.22,1.75-0.64,2.57
			c-0.101,0.201-0.211,0.4-0.351,0.6c-0.68,1.08-1.72,2.08-3.03,2.941c-0.539,0.359-1.13,0.689-1.77,1
			c-0.141,0.068-0.28,0.139-0.43,0.199c-0.311,0.15-0.621,0.279-0.95,0.41c-2.74,1.08-6.08,1.709-9.681,1.709
			c-2.58,0-5.029-0.318-7.209-0.898c-0.341-0.09-0.681-0.191-1.011-0.291v-0.01c-0.18-0.061-0.36-0.119-0.54-0.18
			c-0.34-0.109-0.68-0.24-1-0.371c-4.29-1.699-7.1-4.5-7.1-7.68C15.323,144.809,15.542,143.938,15.962,143.127z M10.172,150.239
			c0-2.42,1.631-4.621,4.311-6.291c-0.19,0.57-0.28,1.15-0.28,1.75v2.33c0,2.721,1.93,5.201,5.08,7.01
			c0.25,0.15,0.521,0.301,0.8,0.432h0.01c0.87,0.449,1.82,0.84,2.83,1.18c0.35,0.119,0.721,0.229,1.09,0.34
			c2.45,0.699,5.23,1.1,8.17,1.1c1.84,0,3.61-0.16,5.28-0.439c-0.819,0.359-1.7,0.68-2.63,0.949c-2.07,0.609-4.38,0.99-6.84,1.051
			c-0.32,0.02-0.641,0.029-0.96,0.029c-0.88,0-1.74-0.039-2.591-0.109c-0.529-0.051-1.049-0.111-1.569-0.18
			c-1.979-0.281-3.81-0.762-5.44-1.4c-0.319-0.121-0.629-0.25-0.93-0.391C12.643,155.877,10.172,153.219,10.172,150.239z
			 M16.243,161.469c0-0.281,0.02-0.551,0.07-0.82c1.74,0.729,3.72,1.279,5.869,1.619c0.4,0.061,0.811,0.121,1.221,0.16
			c0.05,0.01,0.09,0.01,0.14,0.02c2.11,4.24,9.06,7.352,17.31,7.352h0.15c-2.359,0.699-5.05,1.1-7.9,1.1
			c-5.6,0-10.56-1.521-13.619-3.871c-0.311-0.24-0.601-0.479-0.87-0.729C17.113,164.877,16.243,163.239,16.243,161.469z
			 M52.953,168.627c0,5.211-7.55,9.432-16.851,9.432c-8.22,0-15.069-3.291-16.56-7.65c3.29,2.109,8.149,3.449,13.56,3.449
			c6.681,0,12.5-2.039,15.601-5.07c1.489-0.398,2.86-0.92,4.08-1.52C52.893,167.708,52.953,168.168,52.953,168.627z M52.333,164.309
			c-0.29,0.139-0.58,0.289-0.891,0.42c-0.159,0.08-0.319,0.148-0.489,0.219c-0.94,0.4-1.96,0.74-3.04,1.021
			c-2.141,0.559-4.54,0.869-7.061,0.869c-5.85,0-11-1.67-14.02-4.199h0.2c5.149,0,9.79-1.211,13.069-3.17
			c0.291-0.16,0.58-0.342,0.851-0.531c1.479-1,2.61-2.18,3.3-3.459c0.34-0.17,0.67-0.361,0.99-0.541c0.26-0.16,0.5-0.311,0.74-0.469
			c2.08-1.4,3.5-3.111,3.979-5c4.66,1.68,7.74,4.6,7.74,7.93C57.703,160.127,55.632,162.579,52.333,164.309z"/>
		<g>
			<g>
				<defs>
					<path id="SVGID_46_" d="M28.958,146.438c0.936-1.141,3.041-3.559,3.41-4.01c0.082-0.115,0.18-0.215,0.293-0.299l0.688,0.758
						c0.674,0.795,1.432,1.775,2.195,2.672l0,0c0.273,0.318,0.54,0.635,0.814,0.93l0.446,0.508h-8.272l0.439-0.586L28.958,146.438z
						 M40.168,148.346l-2.379-2.801l-0.916-1.068c-0.354-0.473-0.734-0.926-1.139-1.354l-0.459-0.555
						c-0.184-0.223-1.176-1.42-1.271-1.477c-0.163-0.256-0.355-0.494-0.574-0.707c-0.227-0.301-0.471-0.59-0.731-0.865l-1.195,1.35
						c-0.152,0.15-0.284,0.32-0.396,0.504c-0.057,0-2.9,3.326-3.002,3.512c-0.252,0.256-0.488,0.529-0.707,0.814
						c-0.235,0.279-0.465,0.533-0.713,0.834l-0.707,0.838c-0.256,0.266-0.492,0.551-0.705,0.854l0,0l-0.102,0.115h15.01
						L40.168,148.346z M33.393,139.17c0.163-0.064,0.334-0.107,0.508-0.127l-0.119,0.566
						C33.598,139.52,33.459,139.362,33.393,139.17z M42.123,146.928c-0.153,0.154-0.331,0.281-0.528,0.373
						c-0.268,0.129-0.809-0.074-1.272-0.178c-0.216-0.043-0.229,0-0.33-0.133c-0.15-0.146-0.278-0.314-0.382-0.496L42.123,146.928
						L42.123,146.928z M38.235,144.911c0.051,0,0,0,0.114-0.031h0.083l2.615-0.18c0.147,0.154,0.287,0.318,0.412,0.49l-2.983,0.045
						c-0.076-0.115-0.165-0.197-0.241-0.307V144.911z M37.733,144.274l3.123-0.635l-0.057,0.525
						c-0.598,0.063-2.443,0.402-2.877,0.377c-0.096-0.109-0.164-0.146-0.189-0.273V144.274z M36.027,142.284
						c0.096-0.051,1.521-1.273,1.763-1.51c0.051-0.051,0,0,0.063-0.076s-0.413-0.4-0.452-0.418
						c-0.576,0.529-1.111,1.105-1.604,1.717c0,0.076,0.134,0.229,0.242,0.279L36.027,142.284z M36.3,142.606
						c0.041,0.105,0.109,0.199,0.197,0.27c0.21-0.039,1.909-1.121,2.164-1.273c0.253-0.121,0.487-0.279,0.693-0.471l-0.815-0.154
						l-2.239,1.637V142.606z M35.728,138.592c-0.243,0.754-0.572,1.477-0.979,2.156c-0.178-0.084-0.32-0.227-0.408-0.4
						c-0.069-0.146,0.07-0.395,0.121-0.547c0.121-0.35,0.254-1.049,0.51-1.113c0.035-0.004,0.072-0.004,0.107,0h0.107
						c0.037-0.01,0.072-0.023,0.103-0.045L35.728,138.592z M42.371,146.336c-0.56,0-1.368-0.135-1.973-0.191l-0.993-0.102
						c-0.241,0-0.241,0-0.355-0.152c-0.084-0.082-0.151-0.18-0.198-0.289l3.182,0.131l0.331,0.469v0.135H42.371z M35.454,141.61
						c-0.12-0.08-0.221-0.188-0.292-0.314c-0.058-0.119,0.044-0.195,0.127-0.33c0.235-0.375,1.081-1.787,1.272-1.971
						c0.166,0.088,0.504,0.52,0.439,0.666l-1.018,1.271c-0.156,0.225-0.329,0.439-0.516,0.637L35.454,141.61z M37.254,143.708
						l4.066-1.4c0.012,0.172-0.02,0.344-0.096,0.498c-0.076,0.209-0.089,0.195-0.369,0.266c-0.387,0.096-0.75,0.203-1.132,0.307
						c-0.382,0.102-2.005,0.584-2.278,0.598C37.346,143.917,37.278,143.821,37.254,143.708L37.254,143.708z M36.791,143.174
						c0.042,0.1,0.104,0.191,0.185,0.266l4.104-1.736c-0.129-0.137-0.291-0.236-0.471-0.293c-0.279-0.109-0.338,0-0.592,0.102
						L36.791,143.174z"/>
				</defs>
				<linearGradient id="SVGID_27_" gradientUnits="userSpaceOnUse" x1="25.1724" y1="143.4692" x2="42.3706" y2="143.4692">
					<stop  offset="0" style="stop-color:#E68D13"/>
					<stop  offset="1" style="stop-color:#82027E"/>
				</linearGradient>
				<use xlink:href="#SVGID_46_"  overflow="visible" fill="url(#SVGID_27_)"/>
				<clipPath id="SVGID_29_">
					<use xlink:href="#SVGID_46_"  overflow="visible"/>
				</clipPath>
			</g>
			<g>
				<defs>
					<path id="SVGID_49_" d="M32.235,144.598c-1.781,0.344-1.069,2.145,0.7,1.846c0.636-0.107,1.216-0.586,0.979-1.184
						C33.567,144.688,32.879,144.418,32.235,144.598z"/>
				</defs>
				<linearGradient id="SVGID_30_" gradientUnits="userSpaceOnUse" x1="31.2021" y1="145.5103" x2="33.9683" y2="145.5103">
					<stop  offset="0" style="stop-color:#E68D13"/>
					<stop  offset="1" style="stop-color:#82027E"/>
				</linearGradient>
				<use xlink:href="#SVGID_49_"  overflow="visible" fill="url(#SVGID_30_)"/>
				<clipPath id="SVGID_31_">
					<use xlink:href="#SVGID_49_"  overflow="visible"/>
				</clipPath>
			</g>
			<g>
				<defs>
					<path id="SVGID_52_" d="M32.26,152.43h0.521c0.058-0.24-0.051-3.111-0.102-3.498h-0.451l-0.281,3.404l0.313,0.102V152.43z
						 M25.618,149.569c0.152,0,0.413-0.205,0.541-0.287c0.182-0.094,0.354-0.201,0.516-0.324h-1.102l0.045,0.637V149.569z
						 M34.881,150.688l0.172,0.438c0.242-0.057,0.382-0.139,0.682-0.195c-0.043-0.119-0.098-0.232-0.166-0.34l-0.235-0.322
						c-0.191-0.461-0.427-0.9-0.7-1.316h-0.49l0.738,1.742V150.688z M37.567,149.276l-0.178-0.168
						c-0.07-0.045-0.132-0.102-0.186-0.164h-0.77c0.302,0.32,0.621,0.625,0.955,0.91l0.508,0.439
						c0.195,0.252,0.435,0.469,0.707,0.637c0.232-0.051,0.445-0.174,0.604-0.35c-0.095-0.127-0.21-0.236-0.344-0.32l-0.267-0.215
						c-0.109-0.076,0-0.031-0.16-0.076c0-0.07,0,0-0.076-0.09c-0.248-0.236-0.52-0.449-0.808-0.637L37.567,149.276z M36.409,150.651
						l-1.247-1.719h0.579c0.332,0.334,0.638,0.693,0.916,1.074c0.323,0.287,0.614,0.609,0.865,0.961l-0.967-0.082l-0.178-0.26
						L36.409,150.651z M39.526,149.86c-0.127,0-0.261-0.127-0.368-0.197c-0.108-0.068-0.204-0.127-0.369-0.234
						c-0.243-0.143-0.478-0.303-0.7-0.477c0.514-0.125,1.054-0.029,1.494,0.26l-0.057,0.635V149.86z M29.091,150.917l0.776,0.096
						l0.973-2.068h-0.52c-0.18,0.318-0.39,0.637-0.637,0.967c-0.236,0.322-0.449,0.654-0.637,1.006H29.091z M26.253,150.827
						c-0.147-0.053-0.276-0.152-0.368-0.279c-0.229-0.279-0.045-0.299,0.725-0.848c0.941-0.686,0.891-0.846,1.813-0.742l-2.17,1.844
						V150.827z M27.164,151.012l1.972-2.068h0.599c-0.239,0.363-0.503,0.711-0.788,1.037c-0.146,0.197-0.262,0.33-0.408,0.516
						C28.073,151.094,28.391,150.967,27.164,151.012z M31.172,151.852c-0.102-0.063-0.242-0.172-0.344-0.248
						s-0.293-0.178-0.306-0.287c-0.013-0.107,0.726-2.01,0.802-2.365h0.478l-0.637,2.9H31.172z M33.686,152.038l-0.49-3.094h0.445
						c0.096,0.516,0.35,1.164,0.502,1.719c0.098,0.279,0.178,0.563,0.236,0.854c-0.039,0.094-0.561,0.457-0.726,0.496
						L33.686,152.038z"/>
				</defs>
				<linearGradient id="SVGID_32_" gradientUnits="userSpaceOnUse" x1="25.5728" y1="150.6685" x2="39.5825" y2="150.6685">
					<stop  offset="0" style="stop-color:#E68D13"/>
					<stop  offset="1" style="stop-color:#82027E"/>
				</linearGradient>
				<use xlink:href="#SVGID_52_"  overflow="visible" fill="url(#SVGID_32_)"/>
				<clipPath id="SVGID_33_">
					<use xlink:href="#SVGID_52_"  overflow="visible"/>
				</clipPath>
			</g>
			<g>
				<defs>
					<path id="SVGID_55_" d="M22.811,146.075c0.522,0,2.387-0.172,3.182-0.223c0.229,0,0.286,0,0.406-0.115
						c0.094-0.082,0.166-0.184,0.211-0.299c-0.312,0-3.182,0-3.365,0.107c-0.176,0.146-0.32,0.326-0.426,0.529H22.811z
						 M24.154,147.659c0.294,0.135,0.235,0.172,0.452,0.191l0.344-0.395C24.678,147.495,24.412,147.563,24.154,147.659
						L24.154,147.659z M28.163,140.366l-0.293-0.299l0,0c-0.155,0.125-0.288,0.277-0.395,0.445c0.176,0.246,0.391,0.461,0.637,0.637
						l0.204,0.191l0.101,0.096l0.135,0.109c0.242,0.273,0.513,0.521,0.807,0.738c0.281-0.168,0.294-0.287,0.147-0.441
						c-0.147-0.15-0.255-0.305-0.414-0.457c-0.276-0.352-0.571-0.688-0.884-1.006L28.163,140.366z M29.25,140.737
						c-0.219-0.248-0.408-0.521-0.566-0.814c-0.057,0-0.4-0.459-0.389-0.598c0.043-0.119,0.117-0.223,0.211-0.307
						c0.209-0.203,0.242-0.158,0.33-0.172c0.164,0.188,0.293,0.404,0.383,0.637c0.031,0.031,0.578,0.969,0.636,1.07
						c0.118,0.17,0.227,0.35,0.325,0.533c0.075,0.146,0.069,0.141-0.058,0.287c-0.056,0.086-0.134,0.158-0.223,0.209
						c-0.237-0.266-0.45-0.555-0.637-0.859L29.25,140.737z M24.3,141.5c0.382-0.809,3.735,1.342,4.296,1.648l-0.23,0.248
						c-0.324-0.072-3.123-1.4-3.613-1.631C24.459,141.633,24.276,141.583,24.3,141.5L24.3,141.5z M24.658,142.932
						c-0.272-0.045-0.538-0.125-0.79-0.236c-0.118-0.189-0.15-0.42-0.089-0.637c0.479,0.127,0.947,0.291,1.399,0.49l0.637,0.234
						l0.324,0.115c0.172,0.059,0.14,0,0.254,0.121c0.115,0.121,1.547,0.541,1.758,0.637l-0.217,0.262l-1.801-0.549
						c-0.5-0.117-0.992-0.271-1.471-0.457L24.658,142.932z M27.66,141.532l0.714,0.527c0.244,0.158,0.473,0.342,0.68,0.547
						l-0.203,0.262c-0.921-0.543-1.813-1.133-2.673-1.768c0.226-0.107,0.47-0.168,0.72-0.18c0.158,0.107,0.255,0.191,0.393,0.293
						C27.43,141.299,27.553,141.407,27.66,141.532L27.66,141.532z M30.147,139.668l0.445,1.061c0.121-0.037,0.064,0,0.167-0.113
						c0.101-0.115,0.292-0.313,0.267-0.484c-0.055-0.256-0.131-0.502-0.229-0.744c0-0.16-0.077-0.49-0.197-0.572
						c-0.121-0.082-0.637-0.172-0.637-0.211c0-0.037,0,0,0,0h-0.197c0,0.186,0.134,0.375,0.197,0.549
						c0.058,0.186,0.139,0.365,0.241,0.535L30.147,139.668z M25.299,144.122l2.157,0.361l0.235-0.285
						c-0.494-0.133-0.996-0.238-1.502-0.318c-0.152-0.063-0.314-0.109-0.477-0.139c-0.338-0.084-1.361-0.326-1.572-0.338
						l0.159,0.566L25.299,144.122L25.299,144.122z M23.913,144.967c0.084-0.182,0.195-0.348,0.331-0.496l2.946,0.299
						c-0.051,0.158-0.135,0.178-0.218,0.326L23.913,144.967z M22.843,146.698c0.093,0.248,0.299,0.436,0.554,0.504l1.966-0.395
						c0.247-0.098,0.444-0.291,0.548-0.535L22.843,146.698z"/>
				</defs>
				<linearGradient id="SVGID_35_" gradientUnits="userSpaceOnUse" x1="22.811" y1="143.2192" x2="31.0283" y2="143.2192">
					<stop  offset="0" style="stop-color:#E68D13"/>
					<stop  offset="1" style="stop-color:#82027E"/>
				</linearGradient>
				<use xlink:href="#SVGID_55_"  overflow="visible" fill="url(#SVGID_35_)"/>
				<clipPath id="SVGID_36_">
					<use xlink:href="#SVGID_55_"  overflow="visible"/>
				</clipPath>
			</g>
		</g>
	</g>
</g>
<g>
	<linearGradient id="SVGID_38_" gradientUnits="userSpaceOnUse" x1="-46.458" y1="-46.6245" x2="-18.7627" y2="-46.6245">
		<stop  offset="0" style="stop-color:#E68D13"/>
		<stop  offset="1" style="stop-color:#82027E"/>
	</linearGradient>
	<path fill="url(#SVGID_38_)" d="M-31.385-42.627v-1.507c3.303,0.183,6.572-0.982,9.092-3.502c2.998-2.998,4.087-7.184,3.266-11.043
		c-3.859-0.822-8.045,0.268-11.044,3.266c-1.107,1.107-1.952,2.377-2.539,3.732c-0.586-1.355-1.431-2.625-2.538-3.732
		c-2.999-2.998-7.185-4.088-11.045-3.266c-0.82,3.859,0.268,8.045,3.266,11.043c2.557,2.556,5.852,3.719,9.199,3.494v1.515
		c-5.193,0.338-9.589,3.154-12.251,7.271c0,0.416,0.142,0.766,0.131,0.865l2.81,0.021c-0.116-0.225-0.068-0.393-0.111-0.711
		c2.115-2.844,5.337-4.68,9.438-4.969v3.766c0,0.727,0.588,1.316,1.174,1.316c0.584,0,1.17-0.59,1.17-1.316v-3.797
		c4.096,0.291,7.348,2.096,9.469,4.938c0,0,0.029,0.828-0.189,0.938h2.941c0.209-0.281,0.068-0.787,0.053-1.051
		C-21.77-39.471-26.195-42.286-31.385-42.627z M-28.314-53.658c2.087-2.087,4.771-3.074,7.112-2.848
		c0.226,2.341-0.76,5.025-2.847,7.113c-2.084,2.083-4.768,3.069-7.109,2.843C-31.387-48.886-30.401-51.571-28.314-53.658z
		 M-34.112-46.599c-2.317,0.225-4.976-0.752-7.038-2.814c-2.066-2.066-3.042-4.725-2.818-7.042c2.317-0.225,4.976,0.753,7.041,2.819
		C-34.861-51.57-33.885-48.913-34.112-46.599z"/>
	<g>
		<linearGradient id="SVGID_39_" gradientUnits="userSpaceOnUse" x1="-93.4873" y1="-72.3452" x2="-91.3174" y2="-72.3452">
			<stop  offset="0" style="stop-color:#E68D13"/>
			<stop  offset="1" style="stop-color:#82027E"/>
		</linearGradient>
		<path fill="url(#SVGID_39_)" d="M-92.997-72.555c-0.209,0.38-0.369,0.771-0.49,1.17c0.461-0.3,0.961-0.57,1.48-0.82
			c0.189-0.38,0.42-0.739,0.689-1.1C-91.907-73.076-92.467-72.826-92.997-72.555z"/>
		<linearGradient id="SVGID_41_" gradientUnits="userSpaceOnUse" x1="-98.917" y1="-57" x2="-49.1465" y2="-57">
			<stop  offset="0" style="stop-color:#E68D13"/>
			<stop  offset="1" style="stop-color:#82027E"/>
		</linearGradient>
		<path fill="url(#SVGID_41_)" d="M-57.877-66.555c0.04-0.25,0.061-0.5,0.061-0.75v-2.33c0-5.56-8.05-10.06-17.97-10.06
			c-8.11,0-14.971,3-17.211,7.14c-3.64,1.84-5.92,4.5-5.92,7.46v2.34c0,3.029,2.41,5.76,6.221,7.6
			c-0.101,0.42-0.15,0.851-0.15,1.291v2.33c0,2.059,1.1,3.979,3,5.569v1.59c0,5.561,8.05,10.07,17.98,10.07
			c9.919,0,17.97-4.51,17.97-10.07v-2.33c0-0.649-0.11-1.28-0.32-1.89c3.141-1.811,5.07-4.28,5.07-7v-2.34
			C-49.146-61.595-52.646-64.805-57.877-66.555z M-92.007-72.206c0.189-0.38,0.42-0.739,0.689-1.1
			c2.551-3.39,8.551-5.761,15.531-5.761c9.299,0,16.85,4.221,16.85,9.431c0,0.89-0.22,1.75-0.64,2.569
			c-0.101,0.201-0.211,0.4-0.351,0.601c-0.68,1.08-1.72,2.08-3.03,2.94c-0.539,0.359-1.13,0.689-1.77,1
			c-0.141,0.069-0.28,0.14-0.431,0.199c-0.31,0.15-0.619,0.28-0.949,0.41c-2.74,1.08-6.08,1.71-9.68,1.71
			c-2.58,0-5.031-0.319-7.211-0.899c-0.34-0.09-0.68-0.19-1.01-0.291v-0.01c-0.18-0.06-0.359-0.119-0.54-0.18
			c-0.34-0.109-0.68-0.24-1-0.37c-4.29-1.7-7.1-4.5-7.1-7.68C-92.646-70.525-92.427-71.396-92.007-72.206z M-97.797-65.095
			c0-2.42,1.63-4.62,4.31-6.29c-0.189,0.569-0.279,1.149-0.279,1.75v2.33c0,2.72,1.93,5.2,5.08,7.01c0.25,0.149,0.52,0.3,0.8,0.431
			h0.011c0.869,0.449,1.819,0.84,2.829,1.18c0.351,0.119,0.72,0.229,1.091,0.34c2.449,0.699,5.229,1.1,8.17,1.1
			c1.84,0,3.609-0.16,5.279-0.439c-0.82,0.359-1.699,0.68-2.63,0.949c-2.069,0.61-4.38,0.99-6.84,1.051
			c-0.32,0.02-0.64,0.029-0.96,0.029c-0.881,0-1.74-0.039-2.59-0.109c-0.53-0.051-1.051-0.11-1.57-0.18
			c-1.98-0.281-3.811-0.761-5.439-1.4c-0.32-0.12-0.631-0.25-0.931-0.391C-95.327-59.456-97.797-62.115-97.797-65.095z
			 M-91.727-53.865c0-0.281,0.021-0.551,0.069-0.82c1.74,0.729,3.721,1.279,5.871,1.619c0.399,0.061,0.81,0.121,1.219,0.16
			c0.051,0.01,0.091,0.01,0.141,0.021c2.109,4.239,9.061,7.351,17.311,7.351h0.149c-2.36,0.699-5.05,1.1-7.899,1.1
			c-5.601,0-10.561-1.521-13.621-3.87c-0.31-0.24-0.6-0.479-0.869-0.729C-90.856-50.456-91.727-52.095-91.727-53.865z
			 M-55.017-46.706c0,5.209-7.55,9.43-16.85,9.43c-8.221,0-15.07-3.291-16.561-7.649c3.29,2.108,8.15,3.448,13.561,3.448
			c6.68,0,12.499-2.038,15.6-5.068c1.489-0.399,2.86-0.92,4.08-1.521C-55.076-47.625-55.017-47.166-55.017-46.706z M-55.637-51.025
			c-0.29,0.14-0.58,0.289-0.891,0.42c-0.159,0.08-0.319,0.149-0.489,0.22c-0.94,0.399-1.96,0.739-3.04,1.021
			c-2.141,0.56-4.54,0.869-7.06,0.869c-5.851,0-11-1.67-14.021-4.199h0.2c5.15,0,9.79-1.211,13.07-3.17
			c0.289-0.16,0.58-0.341,0.85-0.531c1.48-1,2.61-2.18,3.3-3.459c0.34-0.17,0.67-0.36,0.99-0.541c0.26-0.159,0.5-0.31,0.74-0.469
			c2.08-1.4,3.5-3.111,3.979-5c4.66,1.68,7.74,4.6,7.74,7.93C-50.267-55.206-52.337-52.755-55.637-51.025z"/>
		<g>
			<g>
				<defs>
					<path id="SVGID_61_" d="M-79.011-68.896c0.936-1.14,3.041-3.558,3.41-4.009c0.08-0.115,0.179-0.216,0.293-0.299l0.687,0.757
						c0.675,0.795,1.432,1.775,2.195,2.673l0,0c0.272,0.318,0.54,0.635,0.813,0.929l0.447,0.508h-8.272l0.438-0.585L-79.011-68.896z
						 M-67.801-66.987l-2.38-2.801l-0.916-1.068c-0.354-0.474-0.732-0.926-1.139-1.354l-0.457-0.555
						c-0.185-0.222-1.178-1.419-1.273-1.476c-0.162-0.256-0.355-0.494-0.572-0.707c-0.228-0.302-0.472-0.59-0.732-0.865l-1.195,1.35
						c-0.152,0.15-0.285,0.319-0.395,0.503c-0.058,0-2.902,3.326-3.004,3.513c-0.252,0.256-0.488,0.528-0.707,0.813
						c-0.234,0.28-0.463,0.534-0.712,0.835l-0.706,0.838c-0.258,0.266-0.494,0.551-0.706,0.853l0,0l-0.103,0.115h15.011
						L-67.801-66.987z M-74.577-76.163c0.164-0.064,0.335-0.107,0.51-0.127l-0.12,0.566C-74.37-75.814-74.51-75.971-74.577-76.163z
						 M-65.847-68.406c-0.153,0.154-0.332,0.281-0.527,0.374c-0.268,0.129-0.809-0.075-1.273-0.179c-0.217-0.043-0.229,0-0.33-0.132
						c-0.15-0.146-0.279-0.314-0.382-0.497L-65.847-68.406L-65.847-68.406z M-69.734-70.423c0.052,0,0,0,0.114-0.031h0.083
						l2.616-0.18c0.146,0.155,0.285,0.318,0.412,0.491l-2.984,0.044c-0.076-0.114-0.165-0.197-0.241-0.306V-70.423z M-70.237-71.06
						l3.124-0.635l-0.058,0.526c-0.598,0.063-2.442,0.402-2.875,0.377c-0.096-0.109-0.166-0.146-0.191-0.273V-71.06z M-71.942-73.05
						c0.096-0.051,1.521-1.272,1.762-1.509c0.051-0.052,0,0,0.064-0.076c0.064-0.077-0.414-0.4-0.452-0.419
						c-0.577,0.53-1.112,1.105-1.603,1.717c0,0.077,0.133,0.229,0.241,0.28L-71.942-73.05z M-71.669-72.727
						c0.041,0.105,0.109,0.198,0.197,0.269c0.211-0.038,1.91-1.12,2.164-1.272c0.254-0.121,0.488-0.28,0.693-0.472l-0.814-0.153
						l-2.24,1.636V-72.727z M-72.241-76.742c-0.243,0.754-0.572,1.478-0.98,2.156c-0.176-0.084-0.319-0.226-0.407-0.4
						c-0.069-0.146,0.07-0.394,0.121-0.547c0.122-0.35,0.255-1.049,0.509-1.113c0.036-0.003,0.072-0.003,0.108,0h0.108
						c0.036-0.009,0.07-0.023,0.102-0.045L-72.241-76.742z M-65.599-68.998c-0.561,0-1.368-0.135-1.973-0.191l-0.992-0.102
						c-0.242,0-0.242,0-0.356-0.152c-0.084-0.082-0.151-0.179-0.198-0.288l3.182,0.13l0.332,0.469v0.135H-65.599z M-72.515-73.724
						c-0.121-0.08-0.222-0.187-0.293-0.314c-0.057-0.119,0.045-0.195,0.127-0.33c0.234-0.374,1.082-1.787,1.272-1.971
						c0.165,0.088,0.503,0.521,0.439,0.667l-1.019,1.271c-0.155,0.225-0.328,0.438-0.516,0.636L-72.515-73.724z M-70.715-71.625
						l4.067-1.4c0.012,0.171-0.021,0.343-0.097,0.497c-0.076,0.209-0.089,0.196-0.369,0.267c-0.388,0.096-0.751,0.203-1.132,0.306
						c-0.383,0.102-2.004,0.585-2.277,0.599C-70.622-71.417-70.691-71.513-70.715-71.625L-70.715-71.625z M-71.179-72.16
						c0.043,0.101,0.105,0.192,0.185,0.267l4.104-1.736c-0.128-0.137-0.291-0.237-0.47-0.293c-0.281-0.109-0.338,0-0.594,0.101
						L-71.179-72.16z"/>
				</defs>
				<linearGradient id="SVGID_42_" gradientUnits="userSpaceOnUse" x1="-82.7979" y1="-71.8643" x2="-65.5986" y2="-71.8643">
					<stop  offset="0" style="stop-color:#E68D13"/>
					<stop  offset="1" style="stop-color:#82027E"/>
				</linearGradient>
				<use xlink:href="#SVGID_61_"  overflow="visible" fill="url(#SVGID_42_)"/>
				<clipPath id="SVGID_43_">
					<use xlink:href="#SVGID_61_"  overflow="visible"/>
				</clipPath>
			</g>
			<g>
				<defs>
					<path id="SVGID_64_" d="M-75.734-70.735c-1.782,0.344-1.069,2.145,0.7,1.845c0.637-0.107,1.215-0.586,0.979-1.183
						C-74.402-70.645-75.089-70.916-75.734-70.735z"/>
				</defs>
				<linearGradient id="SVGID_44_" gradientUnits="userSpaceOnUse" x1="-76.7676" y1="-69.8237" x2="-74.0015" y2="-69.8237">
					<stop  offset="0" style="stop-color:#E68D13"/>
					<stop  offset="1" style="stop-color:#82027E"/>
				</linearGradient>
				<use xlink:href="#SVGID_64_"  overflow="visible" fill="url(#SVGID_44_)"/>
				<clipPath id="SVGID_45_">
					<use xlink:href="#SVGID_64_"  overflow="visible"/>
				</clipPath>
			</g>
			<g>
				<defs>
					<path id="SVGID_67_" d="M-75.709-62.903h0.522c0.057-0.241-0.052-3.112-0.103-3.499h-0.452l-0.279,3.404l0.312,0.102V-62.903z
						 M-82.352-65.765c0.153,0,0.413-0.205,0.54-0.287c0.182-0.093,0.355-0.201,0.516-0.324h-1.1l0.044,0.637V-65.765z
						 M-73.088-64.646l0.172,0.438c0.241-0.057,0.382-0.139,0.681-0.196c-0.043-0.119-0.098-0.231-0.165-0.339l-0.235-0.323
						c-0.191-0.46-0.426-0.9-0.7-1.316h-0.489l0.737,1.742V-64.646z M-70.402-66.058l-0.178-0.167
						c-0.069-0.046-0.132-0.102-0.186-0.165h-0.77c0.302,0.32,0.62,0.625,0.955,0.91l0.509,0.439
						c0.195,0.253,0.434,0.469,0.706,0.637c0.233-0.05,0.444-0.174,0.604-0.35c-0.094-0.127-0.211-0.235-0.344-0.319l-0.268-0.216
						c-0.107-0.075,0-0.031-0.158-0.075c0-0.071,0,0-0.077-0.09c-0.249-0.237-0.52-0.449-0.808-0.637L-70.402-66.058z
						 M-71.562-64.683l-1.246-1.719h0.579c0.332,0.335,0.638,0.694,0.916,1.074c0.323,0.287,0.614,0.609,0.864,0.961l-0.966-0.082
						l-0.178-0.26L-71.562-64.683z M-68.442-65.473c-0.127,0-0.262-0.127-0.369-0.197c-0.108-0.069-0.204-0.127-0.369-0.235
						c-0.244-0.143-0.478-0.303-0.7-0.477c0.514-0.125,1.054-0.029,1.495,0.261l-0.057,0.635V-65.473z M-78.878-64.417l0.776,0.095
						l0.974-2.068h-0.521c-0.179,0.318-0.389,0.637-0.637,0.967c-0.234,0.322-0.447,0.655-0.636,1.007H-78.878z M-81.716-64.506
						c-0.147-0.054-0.275-0.152-0.369-0.28c-0.229-0.279-0.043-0.298,0.727-0.847c0.94-0.687,0.89-0.847,1.813-0.743l-2.17,1.844
						V-64.506z M-80.806-64.322l1.973-2.068h0.598c-0.238,0.363-0.502,0.711-0.789,1.037c-0.146,0.198-0.261,0.33-0.406,0.517
						C-79.896-64.24-79.577-64.367-80.806-64.322z M-76.798-63.481c-0.102-0.063-0.24-0.172-0.343-0.249
						c-0.103-0.076-0.292-0.177-0.306-0.286c-0.013-0.107,0.727-2.011,0.803-2.366h0.477l-0.637,2.901H-76.798z M-74.284-63.296
						l-0.49-3.094h0.445c0.096,0.517,0.352,1.165,0.504,1.72c0.098,0.278,0.176,0.563,0.235,0.853
						c-0.039,0.095-0.56,0.457-0.726,0.496L-74.284-63.296z"/>
				</defs>
				<linearGradient id="SVGID_47_" gradientUnits="userSpaceOnUse" x1="-82.3955" y1="-64.666" x2="-68.3857" y2="-64.666">
					<stop  offset="0" style="stop-color:#E68D13"/>
					<stop  offset="1" style="stop-color:#82027E"/>
				</linearGradient>
				<use xlink:href="#SVGID_67_"  overflow="visible" fill="url(#SVGID_47_)"/>
				<clipPath id="SVGID_48_">
					<use xlink:href="#SVGID_67_"  overflow="visible"/>
				</clipPath>
			</g>
			<g>
				<defs>
					<path id="SVGID_70_" d="M-85.157-69.259c0.521,0,2.385-0.172,3.182-0.222c0.229,0,0.285,0,0.406-0.115
						c0.092-0.082,0.164-0.185,0.211-0.299c-0.313,0-3.182,0-3.367,0.107c-0.176,0.146-0.32,0.325-0.426,0.528H-85.157z
						 M-83.815-67.675c0.293,0.135,0.235,0.172,0.453,0.191l0.342-0.394C-83.292-67.839-83.558-67.77-83.815-67.675L-83.815-67.675z
						 M-79.806-74.967l-0.295-0.299l0,0c-0.154,0.125-0.287,0.276-0.393,0.445c0.175,0.245,0.391,0.461,0.635,0.637l0.205,0.191
						l0.101,0.096l0.134,0.108c0.242,0.273,0.514,0.521,0.809,0.738c0.279-0.167,0.293-0.287,0.146-0.441
						c-0.146-0.15-0.255-0.304-0.414-0.456c-0.276-0.352-0.572-0.688-0.885-1.006L-79.806-74.967z M-78.719-74.596
						c-0.219-0.249-0.409-0.522-0.566-0.814c-0.057,0-0.401-0.459-0.388-0.599c0.043-0.118,0.116-0.223,0.209-0.306
						c0.211-0.204,0.242-0.159,0.332-0.172c0.164,0.188,0.292,0.403,0.382,0.636c0.031,0.032,0.579,0.969,0.636,1.07
						c0.118,0.17,0.227,0.35,0.325,0.533c0.075,0.146,0.069,0.141-0.058,0.287c-0.057,0.087-0.133,0.158-0.223,0.209
						c-0.236-0.266-0.45-0.555-0.637-0.859L-78.719-74.596z M-83.669-73.833c0.381-0.809,3.734,1.342,4.295,1.648l-0.229,0.248
						c-0.323-0.071-3.123-1.4-3.613-1.63C-83.51-73.7-83.694-73.751-83.669-73.833L-83.669-73.833z M-83.312-72.402
						c-0.272-0.044-0.538-0.124-0.79-0.236c-0.118-0.189-0.149-0.42-0.089-0.636c0.479,0.126,0.947,0.291,1.399,0.49l0.636,0.234
						l0.325,0.114c0.172,0.059,0.14,0,0.255,0.122c0.113,0.121,1.546,0.541,1.756,0.637l-0.217,0.261l-1.8-0.549
						c-0.501-0.116-0.991-0.271-1.47-0.457L-83.312-72.402z M-80.31-73.802l0.713,0.528c0.246,0.158,0.474,0.342,0.681,0.547
						l-0.203,0.262c-0.921-0.543-1.813-1.133-2.673-1.769c0.226-0.106,0.471-0.167,0.72-0.179c0.158,0.107,0.255,0.19,0.394,0.292
						C-80.54-74.034-80.415-73.926-80.31-73.802L-80.31-73.802z M-77.821-75.666l0.445,1.061c0.121-0.037,0.064,0,0.166-0.113
						c0.102-0.114,0.292-0.313,0.267-0.484c-0.054-0.255-0.131-0.502-0.229-0.743c0-0.16-0.076-0.49-0.196-0.573
						c-0.122-0.081-0.637-0.172-0.637-0.21c0-0.037,0,0,0,0h-0.197c0,0.186,0.134,0.375,0.197,0.548
						c0.058,0.187,0.139,0.366,0.241,0.535L-77.821-75.666z M-82.669-71.212l2.156,0.361l0.234-0.284
						c-0.493-0.134-0.996-0.239-1.501-0.319c-0.153-0.063-0.313-0.109-0.477-0.139c-0.339-0.083-1.362-0.325-1.572-0.337
						l0.159,0.565L-82.669-71.212L-82.669-71.212z M-84.058-70.366c0.086-0.182,0.197-0.349,0.332-0.497l2.945,0.299
						c-0.051,0.159-0.134,0.179-0.217,0.326L-84.058-70.366z M-85.126-68.635c0.092,0.248,0.299,0.435,0.555,0.503l1.965-0.394
						c0.246-0.098,0.443-0.291,0.547-0.535L-85.126-68.635z"/>
				</defs>
				<linearGradient id="SVGID_50_" gradientUnits="userSpaceOnUse" x1="-85.1572" y1="-72.1147" x2="-76.9409" y2="-72.1147">
					<stop  offset="0" style="stop-color:#E68D13"/>
					<stop  offset="1" style="stop-color:#82027E"/>
				</linearGradient>
				<use xlink:href="#SVGID_70_"  overflow="visible" fill="url(#SVGID_50_)"/>
				<clipPath id="SVGID_51_">
					<use xlink:href="#SVGID_70_"  overflow="visible"/>
				</clipPath>
			</g>
		</g>
	</g>
</g>
<g>
	<g>
		<linearGradient id="SVGID_53_" gradientUnits="userSpaceOnUse" x1="28.9419" y1="51.0005" x2="78.7124" y2="51.0005">
			<stop  offset="0" style="stop-color:#E68D13"/>
			<stop  offset="1" style="stop-color:#82027E"/>
		</linearGradient>
		<path fill="url(#SVGID_53_)" d="M69.982,51.84c0.04-0.25,0.061-0.5,0.061-0.75v-2.33c0-2.41-1.51-4.62-4.03-6.359
			c0.08-0.29-0.021-0.681-0.03-0.9c-2.67-4.12-7.1-6.93-12.289-7.27V32.72c3.299,0.181,6.569-0.979,9.09-3.5
			c3-3,4.09-7.18,3.27-11.04c-3.859-0.83-8.051,0.261-11.051,3.261c-1.1,1.109-1.949,2.38-2.54,3.729
			c-0.579-1.35-1.43-2.62-2.529-3.729c-3-3-7.189-4.091-11.05-3.261c-0.82,3.86,0.271,8.04,3.271,11.04
			c2.549,2.551,5.85,3.721,9.199,3.49v1.521c-5.199,0.34-9.59,3.149-12.25,7.27c0,0.1,0.01,0.19,0.02,0.28
			c-1.949,1.13-3.42,2.52-4.26,4.06c-3.64,1.84-5.92,4.5-5.92,7.46v2.34c0,3.03,2.41,5.761,6.221,7.601
			c-0.101,0.42-0.15,0.85-0.15,1.3v2.33c0,2.05,1.1,3.97,3,5.56v1.591c0,5.56,8.05,10.069,17.979,10.069
			c9.92,0,17.971-4.51,17.971-10.069v-2.33c0-0.65-0.11-1.28-0.32-1.891c3.141-1.81,5.07-4.279,5.07-7v-2.34
			C78.712,56.8,75.212,53.59,69.982,51.84z M56.762,23.2c2.09-2.09,4.771-3.08,7.11-2.851c0.229,2.341-0.76,5.021-2.84,7.11
			c-2.09,2.09-4.771,3.07-7.11,2.851C53.693,27.97,54.672,25.28,56.762,23.2z M50.961,30.26c-2.319,0.221-4.969-0.76-7.039-2.819
			c-2.061-2.07-3.04-4.721-2.811-7.04c2.311-0.23,4.971,0.75,7.041,2.819C50.211,25.29,51.192,27.94,50.961,30.26z M53.712,36.68
			c3.49,0.25,6.359,1.591,8.449,3.75c-2.449-0.93-5.34-1.529-8.449-1.689V36.68z M51.362,36.71v2c-2.83,0.061-5.49,0.49-7.83,1.2
			C45.542,38.08,48.192,36.93,51.362,36.71z M39.692,42.36c0.83-0.5,1.76-0.96,2.77-1.351c2.551-0.989,5.601-1.6,8.9-1.66
			c0.23-0.02,0.471-0.02,0.711-0.02c0.549,0,1.1,0.01,1.64,0.05c3.609,0.19,6.88,1.021,9.46,2.29c0.56,0.271,1.09,0.561,1.569,0.88
			c2.601,1.66,4.181,3.83,4.181,6.21c0,0.891-0.22,1.75-0.64,2.57c-0.101,0.21-0.211,0.4-0.351,0.6c-0.681,1.08-1.72,2.08-3.03,2.94
			c-0.539,0.36-1.13,0.69-1.77,1c-0.141,0.07-0.28,0.14-0.43,0.2c-0.311,0.149-0.621,0.279-0.951,0.41
			c-2.739,1.08-6.079,1.71-9.679,1.71c-2.58,0-5.031-0.32-7.211-0.9c-0.34-0.09-0.68-0.19-1.01-0.29v-0.01
			c-0.18-0.061-0.359-0.12-0.54-0.18c-0.34-0.11-0.68-0.24-1-0.37c-4.29-1.7-7.101-4.5-7.101-7.681c0-0.89,0.221-1.76,0.641-2.569
			c0.189-0.38,0.42-0.73,0.689-1.101C37.302,44.08,38.372,43.15,39.692,42.36z M30.062,53.3c0-2.42,1.63-4.62,4.31-6.29
			c-0.189,0.57-0.279,1.15-0.279,1.75v2.33c0,2.721,1.93,5.2,5.08,7.01c0.25,0.15,0.52,0.301,0.8,0.44h0.01
			c0.87,0.44,1.82,0.83,2.83,1.17c0.351,0.12,0.72,0.23,1.091,0.34c2.449,0.7,5.229,1.101,8.17,1.101c1.839,0,3.609-0.16,5.279-0.44
			c-0.819,0.36-1.7,0.68-2.63,0.95c-2.069,0.61-4.38,0.99-6.84,1.05c-0.32,0.021-0.64,0.03-0.96,0.03c-0.881,0-1.74-0.04-2.59-0.11
			c-0.53-0.05-1.051-0.109-1.57-0.17c-1.98-0.29-3.811-0.77-5.439-1.41c-0.32-0.12-0.631-0.25-0.931-0.39
			C32.532,58.94,30.062,56.29,30.062,53.3z M38.502,69.37c-1.5-1.43-2.37-3.07-2.37-4.83c0-0.29,0.021-0.56,0.069-0.83
			c1.74,0.73,3.721,1.28,5.871,1.62c0.399,0.06,0.81,0.13,1.219,0.16c0.051,0.01,0.091,0.01,0.141,0.02
			c2.109,4.24,9.061,7.36,17.31,7.36h0.15c-2.359,0.69-5.05,1.09-7.899,1.09c-5.601,0-10.561-1.52-13.621-3.87
			C39.062,69.85,38.772,69.62,38.502,69.37z M55.992,81.12c-8.22,0-15.069-3.29-16.56-7.65c3.29,2.11,8.15,3.45,13.561,3.45
			c6.68,0,12.499-2.04,15.6-5.07c1.489-0.39,2.86-0.92,4.08-1.52c0.11,0.44,0.17,0.9,0.17,1.36
			C72.842,76.9,65.292,81.12,55.992,81.12z M72.222,67.37c-0.29,0.14-0.58,0.29-0.891,0.42c-0.159,0.08-0.319,0.15-0.489,0.22
			c-0.94,0.4-1.96,0.74-3.04,1.03c-2.141,0.55-4.54,0.86-7.061,0.86c-5.85,0-10.999-1.67-14.02-4.2h0.2
			c5.15,0,9.79-1.21,13.069-3.16c0.291-0.17,0.58-0.35,0.851-0.54c1.479-1,2.61-2.18,3.3-3.46c0.34-0.17,0.67-0.36,0.99-0.54
			c0.26-0.16,0.5-0.31,0.74-0.46c2.08-1.41,3.5-3.12,3.979-5c4.66,1.67,7.74,4.59,7.74,7.92C77.592,63.19,75.522,65.64,72.222,67.37
			z"/>
		<g>
			<g>
				<defs>
					<path id="SVGID_74_" d="M48.846,49.504c0.936-1.14,3.041-3.558,3.41-4.009c0.082-0.115,0.18-0.216,0.293-0.299l0.688,0.757
						c0.675,0.795,1.432,1.775,2.195,2.673l0,0c0.272,0.318,0.54,0.635,0.813,0.929l0.447,0.508H48.42l0.439-0.585L48.846,49.504z
						 M60.057,51.413l-2.38-2.801l-0.916-1.068c-0.354-0.474-0.732-0.926-1.139-1.354l-0.457-0.555
						c-0.185-0.222-1.178-1.419-1.273-1.476c-0.162-0.256-0.355-0.494-0.573-0.707c-0.227-0.302-0.471-0.59-0.731-0.865l-1.195,1.35
						c-0.152,0.15-0.284,0.319-0.396,0.503c-0.057,0-2.9,3.326-3.002,3.513c-0.252,0.256-0.488,0.528-0.707,0.813
						c-0.235,0.28-0.465,0.534-0.713,0.835l-0.707,0.838c-0.256,0.266-0.492,0.551-0.705,0.853l0,0l-0.102,0.115h15.01
						L60.057,51.413z M53.282,42.237c0.163-0.064,0.334-0.107,0.509-0.127l-0.12,0.566C53.488,42.586,53.348,42.429,53.282,42.237z
						 M62.011,49.994c-0.153,0.154-0.332,0.281-0.527,0.374c-0.268,0.129-0.809-0.075-1.273-0.179c-0.217-0.043-0.229,0-0.33-0.132
						c-0.15-0.146-0.279-0.314-0.382-0.497L62.011,49.994L62.011,49.994z M58.124,47.977c0.052,0,0,0,0.114-0.031h0.083l2.616-0.18
						c0.146,0.155,0.285,0.318,0.412,0.491l-2.984,0.044c-0.076-0.114-0.165-0.197-0.241-0.306V47.977z M57.621,47.34l3.124-0.635
						l-0.058,0.526c-0.598,0.063-2.442,0.402-2.875,0.377c-0.096-0.109-0.166-0.146-0.191-0.273V47.34z M55.916,45.35
						c0.096-0.051,1.521-1.272,1.762-1.509c0.051-0.052,0,0,0.064-0.076c0.064-0.077-0.414-0.4-0.452-0.419
						c-0.577,0.53-1.112,1.105-1.603,1.717c0,0.077,0.133,0.229,0.241,0.28L55.916,45.35z M56.189,45.673
						c0.041,0.105,0.109,0.198,0.197,0.269c0.211-0.038,1.91-1.12,2.164-1.272c0.254-0.121,0.488-0.28,0.693-0.472l-0.814-0.153
						l-2.24,1.636V45.673z M55.617,41.658c-0.243,0.754-0.572,1.478-0.98,2.156c-0.176-0.084-0.319-0.226-0.407-0.4
						c-0.069-0.146,0.07-0.394,0.121-0.547c0.122-0.35,0.255-1.049,0.509-1.113c0.036-0.003,0.072-0.003,0.108,0h0.108
						c0.036-0.009,0.07-0.023,0.102-0.045L55.617,41.658z M62.259,49.402c-0.561,0-1.368-0.135-1.973-0.191l-0.992-0.102
						c-0.242,0-0.242,0-0.356-0.152c-0.084-0.082-0.151-0.179-0.198-0.288l3.182,0.13l0.332,0.469v0.135H62.259z M55.343,44.676
						c-0.121-0.08-0.222-0.187-0.293-0.314c-0.057-0.119,0.045-0.195,0.127-0.33c0.234-0.374,1.082-1.787,1.272-1.971
						c0.165,0.088,0.503,0.521,0.439,0.667l-1.019,1.271c-0.155,0.225-0.328,0.438-0.516,0.636L55.343,44.676z M57.143,46.774
						l4.067-1.4c0.012,0.171-0.021,0.343-0.097,0.497c-0.076,0.209-0.089,0.196-0.369,0.267c-0.388,0.096-0.751,0.203-1.132,0.306
						c-0.383,0.102-2.004,0.585-2.277,0.599C57.236,46.982,57.167,46.887,57.143,46.774L57.143,46.774z M56.679,46.24
						c0.043,0.101,0.105,0.192,0.185,0.267l4.104-1.736c-0.128-0.137-0.291-0.237-0.47-0.293c-0.281-0.109-0.338,0-0.594,0.101
						L56.679,46.24z"/>
				</defs>
				<linearGradient id="SVGID_54_" gradientUnits="userSpaceOnUse" x1="45.061" y1="46.5356" x2="62.2593" y2="46.5356">
					<stop  offset="0" style="stop-color:#E68D13"/>
					<stop  offset="1" style="stop-color:#82027E"/>
				</linearGradient>
				<use xlink:href="#SVGID_74_"  overflow="visible" fill="url(#SVGID_54_)"/>
				<clipPath id="SVGID_56_">
					<use xlink:href="#SVGID_74_"  overflow="visible"/>
				</clipPath>
			</g>
			<g>
				<defs>
					<path id="SVGID_77_" d="M52.124,47.665c-1.781,0.344-1.069,2.145,0.7,1.845c0.637-0.107,1.215-0.586,0.979-1.183
						C53.456,47.755,52.768,47.484,52.124,47.665z"/>
				</defs>
				<linearGradient id="SVGID_57_" gradientUnits="userSpaceOnUse" x1="51.0908" y1="48.5767" x2="53.8564" y2="48.5767">
					<stop  offset="0" style="stop-color:#E68D13"/>
					<stop  offset="1" style="stop-color:#82027E"/>
				</linearGradient>
				<use xlink:href="#SVGID_77_"  overflow="visible" fill="url(#SVGID_57_)"/>
				<clipPath id="SVGID_58_">
					<use xlink:href="#SVGID_77_"  overflow="visible"/>
				</clipPath>
			</g>
			<g>
				<defs>
					<path id="SVGID_80_" d="M52.149,55.497h0.521c0.058-0.241-0.051-3.112-0.102-3.499h-0.451l-0.281,3.404l0.313,0.102V55.497z
						 M45.506,52.635c0.152,0,0.413-0.205,0.541-0.287c0.182-0.093,0.354-0.201,0.516-0.324h-1.102l0.045,0.637V52.635z
						 M54.77,53.754l0.172,0.438c0.241-0.057,0.382-0.139,0.681-0.196c-0.043-0.119-0.098-0.231-0.165-0.339l-0.235-0.323
						c-0.191-0.46-0.426-0.9-0.7-1.316h-0.489l0.737,1.742V53.754z M57.456,52.342l-0.178-0.167
						c-0.069-0.046-0.132-0.102-0.186-0.165h-0.77c0.302,0.32,0.62,0.625,0.955,0.91l0.509,0.439
						c0.195,0.253,0.434,0.469,0.706,0.637c0.233-0.05,0.444-0.174,0.604-0.35c-0.094-0.127-0.211-0.235-0.344-0.319l-0.268-0.216
						c-0.107-0.075,0-0.031-0.158-0.075c0-0.071,0,0-0.077-0.09c-0.249-0.237-0.52-0.449-0.808-0.637L57.456,52.342z M56.296,53.717
						l-1.246-1.719h0.579c0.332,0.335,0.638,0.694,0.916,1.074c0.323,0.287,0.614,0.609,0.864,0.961l-0.966-0.082l-0.178-0.26
						L56.296,53.717z M59.416,52.927c-0.127,0-0.262-0.127-0.369-0.197c-0.108-0.069-0.204-0.127-0.369-0.235
						c-0.244-0.143-0.478-0.303-0.7-0.477c0.514-0.125,1.054-0.029,1.495,0.261l-0.057,0.635V52.927z M48.98,53.983l0.776,0.095
						l0.973-2.068h-0.52c-0.18,0.318-0.39,0.637-0.637,0.967c-0.236,0.322-0.449,0.655-0.637,1.007H48.98z M46.142,53.894
						c-0.147-0.054-0.276-0.152-0.368-0.28c-0.229-0.279-0.045-0.298,0.725-0.847c0.941-0.687,0.891-0.847,1.813-0.743l-2.17,1.844
						V53.894z M47.052,54.078l1.972-2.068h0.599c-0.239,0.363-0.503,0.711-0.788,1.037c-0.146,0.198-0.262,0.33-0.408,0.517
						C47.961,54.16,48.28,54.033,47.052,54.078z M51.061,54.919c-0.102-0.063-0.242-0.172-0.344-0.249
						c-0.102-0.076-0.293-0.177-0.306-0.286c-0.013-0.107,0.726-2.011,0.802-2.366h0.478l-0.637,2.901H51.061z M53.574,55.104
						l-0.489-3.094h0.444c0.096,0.517,0.352,1.165,0.504,1.72c0.098,0.278,0.176,0.563,0.235,0.853
						c-0.039,0.095-0.56,0.457-0.726,0.496L53.574,55.104z"/>
				</defs>
				<linearGradient id="SVGID_59_" gradientUnits="userSpaceOnUse" x1="45.4614" y1="53.7339" x2="59.4722" y2="53.7339">
					<stop  offset="0" style="stop-color:#E68D13"/>
					<stop  offset="1" style="stop-color:#82027E"/>
				</linearGradient>
				<use xlink:href="#SVGID_80_"  overflow="visible" fill="url(#SVGID_59_)"/>
				<clipPath id="SVGID_60_">
					<use xlink:href="#SVGID_80_"  overflow="visible"/>
				</clipPath>
			</g>
			<g>
				<defs>
					<path id="SVGID_83_" d="M42.7,49.141c0.522,0,2.387-0.172,3.182-0.222c0.229,0,0.286,0,0.406-0.115
						c0.094-0.082,0.166-0.185,0.211-0.299c-0.312,0-3.182,0-3.365,0.107c-0.176,0.146-0.32,0.325-0.426,0.528H42.7z M44.042,50.725
						c0.294,0.135,0.235,0.172,0.452,0.191l0.344-0.394C44.567,50.561,44.3,50.63,44.042,50.725L44.042,50.725z M48.051,43.433
						l-0.293-0.299l0,0c-0.155,0.125-0.288,0.276-0.395,0.445c0.176,0.245,0.391,0.461,0.637,0.637l0.204,0.191l0.101,0.096
						l0.135,0.108c0.242,0.273,0.513,0.521,0.807,0.738c0.281-0.167,0.294-0.287,0.147-0.441c-0.147-0.15-0.255-0.304-0.414-0.456
						c-0.276-0.352-0.571-0.688-0.884-1.006L48.051,43.433z M49.139,43.804c-0.219-0.249-0.408-0.522-0.566-0.814
						c-0.057,0-0.4-0.459-0.389-0.599c0.043-0.118,0.117-0.223,0.211-0.306c0.209-0.204,0.242-0.159,0.33-0.172
						c0.164,0.188,0.293,0.403,0.383,0.636c0.031,0.032,0.578,0.969,0.636,1.07c0.118,0.17,0.227,0.35,0.325,0.533
						c0.075,0.146,0.069,0.141-0.058,0.287c-0.056,0.087-0.134,0.158-0.223,0.209c-0.237-0.266-0.45-0.555-0.637-0.859
						L49.139,43.804z M44.189,44.566c0.382-0.809,3.735,1.342,4.296,1.648l-0.23,0.248c-0.324-0.071-3.123-1.4-3.613-1.63
						C44.348,44.7,44.165,44.648,44.189,44.566L44.189,44.566z M44.546,45.998c-0.272-0.044-0.538-0.124-0.79-0.236
						c-0.118-0.189-0.15-0.42-0.089-0.636c0.479,0.126,0.947,0.291,1.399,0.49l0.637,0.234l0.324,0.114
						c0.172,0.059,0.14,0,0.254,0.122c0.115,0.121,1.547,0.541,1.758,0.637l-0.217,0.261l-1.801-0.549
						c-0.5-0.116-0.992-0.271-1.471-0.457L44.546,45.998z M47.548,44.598l0.714,0.528c0.244,0.158,0.473,0.342,0.68,0.547
						l-0.203,0.262c-0.921-0.543-1.813-1.133-2.673-1.769c0.226-0.106,0.47-0.167,0.72-0.179c0.158,0.107,0.255,0.19,0.393,0.292
						C47.319,44.366,47.442,44.474,47.548,44.598L47.548,44.598z M50.036,42.734l0.445,1.061c0.121-0.037,0.064,0,0.167-0.113
						c0.101-0.114,0.292-0.313,0.267-0.484c-0.055-0.255-0.131-0.502-0.229-0.743c0-0.16-0.077-0.49-0.197-0.573
						c-0.121-0.081-0.637-0.172-0.637-0.21c0-0.037,0,0,0,0h-0.197c0,0.186,0.134,0.375,0.197,0.548
						c0.058,0.187,0.139,0.366,0.241,0.535L50.036,42.734z M45.188,47.188l2.157,0.361l0.235-0.284
						c-0.494-0.134-0.996-0.239-1.502-0.319c-0.152-0.063-0.314-0.109-0.477-0.139c-0.338-0.083-1.361-0.325-1.572-0.337
						l0.159,0.565L45.188,47.188L45.188,47.188z M43.801,48.034c0.084-0.182,0.195-0.349,0.331-0.497l2.946,0.299
						c-0.051,0.159-0.135,0.179-0.218,0.326L43.801,48.034z M42.732,49.765c0.093,0.248,0.299,0.435,0.554,0.503l1.966-0.394
						c0.247-0.098,0.444-0.291,0.548-0.535L42.732,49.765z"/>
				</defs>
				<linearGradient id="SVGID_62_" gradientUnits="userSpaceOnUse" x1="42.6997" y1="46.2852" x2="50.917" y2="46.2852">
					<stop  offset="0" style="stop-color:#E68D13"/>
					<stop  offset="1" style="stop-color:#82027E"/>
				</linearGradient>
				<use xlink:href="#SVGID_83_"  overflow="visible" fill="url(#SVGID_62_)"/>
				<clipPath id="SVGID_63_">
					<use xlink:href="#SVGID_83_"  overflow="visible"/>
				</clipPath>
			</g>
		</g>
	</g>
</g>
</svg>
