<?xml version="1.0" encoding="utf-8"?>
<!-- Generator: Adobe Illustrator 15.0.2, SVG Export Plug-In . SVG Version: 6.00 Build 0)  -->
<!DOCTYPE svg PUBLIC "-//W3C//DTD SVG 1.1//EN" "http://www.w3.org/Graphics/SVG/1.1/DTD/svg11.dtd">
<svg version="1.1" id="Слой_1" xmlns="http://www.w3.org/2000/svg" xmlns:xlink="http://www.w3.org/1999/xlink" x="0px" y="0px"
	 width="107.654px" height="102px" viewBox="0 0 107.654 102" enable-background="new 0 0 107.654 102" xml:space="preserve">
<g>
	<g>
		<linearGradient id="SVGID_1_" gradientUnits="userSpaceOnUse" x1="53.8267" y1="51" x2="106.6812" y2="51">
			<stop  offset="0" style="stop-color:#E68D13"/>
			<stop  offset="1" style="stop-color:#82027E"/>
		</linearGradient>
		<path fill="url(#SVGID_1_)" d="M99.791,34.932c-0.477,0.666-1.863,1.763-2.683,2.299c-5.79,3.861-16.832,5.787-25.71,7.337
			c-2.252,0.393-4.38,0.764-6.242,1.136l-0.514,0.103c-4.87,0.961-9.702,2.169-10.656,5.381c-0.478,1.611,0.116,3.239,1.777,4.854
			c0.946,0.848,1.839,1.785,2.653,2.781c1.692,2.122,2.381,4.854,1.891,7.479c-0.478,2.197-1.493,4.265-2.897,5.936
			c-0.41,0.386-0.751,0.842-1.016,1.354l-1.182,2.294l2.508,0.604c0.489,0.118,1.013,0.179,1.56,0.179
			c2.425,0,4.938-1.2,6.147-1.776c1.161-0.557,1.811-0.968,2.208-1.226c0.115,0.025,0.252,0.059,0.414,0.096l0.211,0.049
			c0.504,0.128,1.098,0.251,1.773,0.369c2.718,0.432,5.499,0.21,8.129-0.657c0.049-0.018,5.06-1.915,6.059-4.243l1.254-2.93
			c0.989-0.833,1.648-1.646,1.965-2.425l1.306-3.205c0.109-0.082,0.217-0.164,0.326-0.248c1.867-1.422,3.459-3.147,4.733-5.128
			l3.787-5.9c2.84-3.266,3.757-6.215,4.025-8.114l0.049-0.347c0.866-1.278,1.173-2.377,1.528-3.64l3.488-12.009L99.791,34.932z"/>
		<g>
			<defs>
				<path id="SVGID_17_" d="M75.082,58.768c5.876-1.004,11.791-3.22,16.55-6.813c4.758-3.59,6.519-7.261,6.897-9.937
					c-0.28,0.482-0.556,0.92-0.727,1.177c-1.985,2.898-4.62,5.291-7.697,6.988c-3.533,1.995-10.358,4.419-15.134,4.423
					c-1.085,0-3.546-0.063-4.15-0.701l4.395-0.968c6.86-1.566,17.103-4.935,21.938-10.02c0.417-0.437,0.843-0.885,1.277-1.423
					c1.157-1.423,1.323-2.42,1.822-4.134c-0.311,0.707-2.244,2.134-3.026,2.646c-7.261,4.843-22.24,6.556-30.852,8.283
					c-3.525,0.707-12.331,2.213-7.965,6.461c0.979,0.879,1.888,1.836,2.722,2.857c1.943,2.437,2.73,5.597,2.159,8.658
					c-0.524,2.416-1.634,4.661-3.239,6.54c-0.256,0.229-0.467,0.508-0.625,0.814c2.002,0.482,4.529-0.673,6.001-1.375
					c3.03-1.452,1.82-1.65,3.969-1.149c0.486,0.122,1.022,0.229,1.51,0.313c2.255,0.362,4.564,0.181,6.734-0.534
					c1.196-0.425,4.162-1.937,4.599-2.956c-0.915,0.149-1.865,0.483-2.905,0.648c-2.056,0.319-4.251,0.484-6.291,0
					c-0.708-0.176-2.04-0.61-2.239-1.131c3.143,0.439,5.276,0.836,8.65-0.37c1.786-0.639,5.194-2.656,5.811-4.17
					c-0.519,0.151-1.451,0.72-2.658,1.063c-0.984,0.292-1.993,0.489-3.011,0.592c-1.452,0.149-5.625,0.077-6.574-0.486
					c0.393-0.213,2.208-0.328,2.817-0.435c4.073-0.702,8.271-2.236,11.578-4.793c1.582-1.207,2.941-2.682,4.018-4.355
					c-1.073,0.997-2.289,1.825-3.61,2.454c-3.119,1.559-7.058,2.958-10.8,2.943c-0.687,0-3.215-0.13-3.825-0.761
					c0.625-0.142,1.257-0.249,1.895-0.325L75.082,58.768z"/>
			</defs>
			<use xlink:href="#SVGID_17_"  overflow="visible" fill="#FFFFFF"/>
			<clipPath id="SVGID_2_">
				<use xlink:href="#SVGID_17_"  overflow="visible"/>
			</clipPath>
		</g>
	</g>
	<g>
		
			<linearGradient id="SVGID_3_" gradientUnits="userSpaceOnUse" x1="989.4272" y1="51" x2="1042.2817" y2="51" gradientTransform="matrix(-1 0 0 1 1043.2549 0)">
			<stop  offset="0" style="stop-color:#E68D13"/>
			<stop  offset="1" style="stop-color:#82027E"/>
		</linearGradient>
		<path fill="url(#SVGID_3_)" d="M7.864,34.932c0.477,0.666,1.863,1.763,2.683,2.299c5.79,3.861,16.832,5.787,25.71,7.337
			c2.252,0.393,4.38,0.764,6.242,1.136l0.514,0.103c4.87,0.961,9.702,2.169,10.656,5.381c0.478,1.611-0.116,3.239-1.777,4.854
			c-0.946,0.848-1.839,1.785-2.653,2.781c-1.692,2.122-2.381,4.854-1.891,7.479c0.478,2.197,1.493,4.265,2.897,5.936
			c0.41,0.386,0.751,0.842,1.016,1.354l1.182,2.294l-2.508,0.604c-0.489,0.118-1.013,0.179-1.56,0.179
			c-2.425,0-4.938-1.2-6.147-1.776c-1.161-0.557-1.811-0.968-2.208-1.226c-0.115,0.025-0.252,0.059-0.414,0.096l-0.211,0.049
			c-0.504,0.128-1.098,0.251-1.773,0.369c-2.718,0.432-5.499,0.21-8.129-0.657c-0.049-0.018-5.06-1.915-6.059-4.243l-1.254-2.93
			c-0.989-0.833-1.648-1.646-1.965-2.425l-1.306-3.205c-0.109-0.082-0.217-0.164-0.326-0.248c-1.867-1.422-3.459-3.147-4.733-5.128
			l-3.787-5.9c-2.84-3.266-3.757-6.215-4.025-8.114l-0.049-0.347c-0.866-1.278-1.173-2.377-1.528-3.64L0.973,25.333L7.864,34.932z"
			/>
		<g>
			<defs>
				<path id="SVGID_20_" d="M32.557,58.794c0.638,0.076,1.27,0.184,1.895,0.325c-0.61,0.631-3.138,0.761-3.825,0.761
					c-3.742,0.015-7.681-1.385-10.8-2.943c-1.321-0.629-2.537-1.457-3.61-2.454c1.077,1.674,2.436,3.148,4.018,4.355
					c3.307,2.557,7.505,4.091,11.578,4.793c0.609,0.106,2.425,0.222,2.817,0.435c-0.95,0.563-5.122,0.636-6.574,0.486
					c-1.018-0.103-2.026-0.3-3.011-0.592c-1.207-0.343-2.139-0.911-2.658-1.063c0.616,1.514,4.025,3.531,5.811,4.17
					c3.374,1.206,5.507,0.81,8.65,0.37c-0.199,0.521-1.531,0.955-2.239,1.131c-2.04,0.484-4.235,0.319-6.291,0
					c-1.04-0.165-1.99-0.499-2.905-0.648c0.437,1.02,3.403,2.531,4.599,2.956c2.169,0.715,4.479,0.896,6.734,0.534
					c0.487-0.084,1.024-0.19,1.51-0.313c2.148-0.501,0.938-0.303,3.969,1.149c1.473,0.702,4,1.857,6.001,1.375
					c-0.158-0.307-0.369-0.585-0.625-0.814c-1.604-1.879-2.715-4.124-3.239-6.54c-0.571-3.062,0.216-6.222,2.159-8.658
					c0.834-1.021,1.743-1.979,2.722-2.857c4.366-4.248-4.439-5.754-7.965-6.461c-8.612-1.728-23.591-3.44-30.852-8.283
					c-0.782-0.513-2.715-1.939-3.026-2.646c0.499,1.714,0.665,2.711,1.822,4.134c0.434,0.538,0.86,0.986,1.277,1.423
					c4.834,5.085,15.078,8.453,21.938,10.02l4.395,0.968c-0.604,0.639-3.065,0.701-4.15,0.701
					c-4.776-0.004-11.602-2.428-15.134-4.423c-3.077-1.697-5.711-4.09-7.697-6.988c-0.171-0.257-0.446-0.694-0.727-1.177
					c0.378,2.676,2.14,6.347,6.897,9.937c4.759,3.593,10.673,5.809,16.55,6.813L32.557,58.794z"/>
			</defs>
			<use xlink:href="#SVGID_20_"  overflow="visible" fill="#FFFFFF"/>
			<clipPath id="SVGID_4_">
				<use xlink:href="#SVGID_20_"  overflow="visible"/>
			</clipPath>
		</g>
	</g>
</g>
<g>
	<g>
		<defs>
			<path id="SVGID_22_" d="M-43.029,34.69c0.343,0.498,0.758,0.942,1.232,1.318c0.369,0.375,0.77,0.985,1.631,0.868
				c0.864-0.115,1.941-1.891,2.736-2.267c0.502,0.471,0.979,0.971,1.421,1.497c0.304,0.333,1.073,1.318,1.627,1.338
				c0.98,0.035,2.212-2.305,3.153-2.901c0.587,0.374,2.157,2.161,2.631,2.253c0.857,0.166,2.004-1.669,2.748-2.148
				c-0.233-0.587-3.622-3.696-4.01-4.049c-1.3-1.23-1.665-0.331-3.4,1.405c-1.343,1.342-1.097,1.231-3.326-0.998
				c-0.776-0.77-1.281-1.49-2.42-0.395c-0.53,0.505-3.728,3.585-4.011,4.078H-43.029z M-27.569,31.611
				c1.603-1.466,1.848-2.299,3.449-0.76c0.372,0.317,0.711,0.671,1.012,1.055l-2.125,2.063c-0.151-0.071-0.285-0.177-0.389-0.309
				c-0.707-0.626-1.355-1.316-1.934-2.063L-27.569,31.611z M-33.858,33.495c0.669-0.788,1.39-1.529,2.162-2.218
				c0.506-0.492,0.695-0.936,1.313-0.362c0.318,0.367,0.677,0.699,1.066,0.991c-0.266,0.276-0.45,0.239-0.745,0.45
				c-0.839,0.614-1.848,2.378-2.768,2.124C-33.257,34.255-33.613,33.914-33.858,33.495L-33.858,33.495z M-42.148,34.69
				c0.959-1.077,1.973-2.105,3.036-3.079c0.661-0.659,0.92-1.361,1.73-0.542c0.539,0.49,1.045,1.016,1.518,1.57l-0.618,0.221
				c-0.443,0.261-0.837,0.599-1.164,1c-0.979,0.959-2.371,2.794-3.134,2.333c-0.543-0.42-1.012-0.928-1.387-1.503H-42.148z"/>
		</defs>
		<linearGradient id="SVGID_5_" gradientUnits="userSpaceOnUse" x1="-43.0293" y1="33.7373" x2="-23.1084" y2="33.7373">
			<stop  offset="0" style="stop-color:#E68D13"/>
			<stop  offset="1" style="stop-color:#82027E"/>
		</linearGradient>
		<use xlink:href="#SVGID_22_"  overflow="visible" fill="url(#SVGID_5_)"/>
		<clipPath id="SVGID_6_">
			<use xlink:href="#SVGID_22_"  overflow="visible"/>
		</clipPath>
	</g>
	<g>
		<defs>
			<path id="SVGID_25_" d="M-45.505,23.904h26.111c1.351,0.024,2.439,1.112,2.463,2.464v14.421
				c-0.006,1.363-1.101,2.471-2.463,2.494h-9.572v2.521h1.932c0.957,0.003,1.729,0.778,1.733,1.731v1.298h-13.127v-1.285
				c0.003-0.952,0.772-1.726,1.725-1.731h1.934v-2.521h-10.735c-1.365-0.021-2.462-1.13-2.465-2.495V26.398
				c0.02-1.352,1.112-2.444,2.465-2.463V23.904z M-43.694,26.902c-0.922,0.008-1.667,0.709-1.673,1.576v10.243
				c0.004,0.868,0.75,1.573,1.673,1.576h22.132c0.923-0.003,1.669-0.708,1.672-1.576V28.479c-0.005-0.867-0.75-1.568-1.672-1.576
				H-43.694z"/>
		</defs>
		<linearGradient id="SVGID_7_" gradientUnits="userSpaceOnUse" x1="-47.9697" y1="36.3682" x2="-16.9307" y2="36.3682">
			<stop  offset="0" style="stop-color:#E68D13"/>
			<stop  offset="1" style="stop-color:#82027E"/>
		</linearGradient>
		<use xlink:href="#SVGID_25_"  overflow="visible" fill="url(#SVGID_7_)"/>
		<clipPath id="SVGID_8_">
			<use xlink:href="#SVGID_25_"  overflow="visible"/>
		</clipPath>
	</g>
	<g>
		<defs>
			<path id="SVGID_28_" d="M-92.95,65.113h26.111c1.351,0.024,2.439,1.112,2.463,2.464v14.421c-0.006,1.363-1.101,2.471-2.463,2.494
				h-9.572v2.521h1.932c0.957,0.003,1.729,0.778,1.733,1.731v1.298h-13.127v-1.285c0.003-0.952,0.772-1.726,1.725-1.731h1.934
				v-2.521H-92.95c-1.365-0.021-2.462-1.13-2.465-2.495V67.607c0.02-1.352,1.112-2.444,2.465-2.463V65.113z M-91.429,67.937
				c-0.946,0.008-1.711,0.727-1.717,1.617v10.511c0.004,0.892,0.77,1.614,1.717,1.617h22.71c0.947-0.003,1.713-0.726,1.716-1.617
				V69.554c-0.005-0.891-0.77-1.609-1.716-1.617H-91.429z"/>
		</defs>
		<linearGradient id="SVGID_9_" gradientUnits="userSpaceOnUse" x1="-95.415" y1="77.5771" x2="-64.376" y2="77.5771">
			<stop  offset="0" style="stop-color:#E68D13"/>
			<stop  offset="1" style="stop-color:#82027E"/>
		</linearGradient>
		<use xlink:href="#SVGID_28_"  overflow="visible" fill="url(#SVGID_9_)"/>
		<clipPath id="SVGID_10_">
			<use xlink:href="#SVGID_28_"  overflow="visible"/>
		</clipPath>
	</g>
	<g>
		<g>
			<linearGradient id="SVGID_11_" gradientUnits="userSpaceOnUse" x1="-59.7813" y1="75.7295" x2="-56.4023" y2="75.7295">
				<stop  offset="0" style="stop-color:#E68D13"/>
				<stop  offset="1" style="stop-color:#82027E"/>
			</linearGradient>
			<path fill="url(#SVGID_11_)" d="M-58.788,77.577l-0.993-2.83c0.615-0.216,1.385-0.513,2.281-0.865l1.098,2.793
				C-57.34,77.043-58.145,77.352-58.788,77.577z"/>
		</g>
		<g>
			<linearGradient id="SVGID_12_" gradientUnits="userSpaceOnUse" x1="-94.5864" y1="49.5039" x2="-17.6396" y2="49.5039">
				<stop  offset="0" style="stop-color:#E68D13"/>
				<stop  offset="1" style="stop-color:#82027E"/>
			</linearGradient>
			<path fill="url(#SVGID_12_)" d="M-24.615,87.05l-0.258-2.988c1.271-0.11,2.268-0.735,2.961-1.859l2.553,1.576
				C-20.544,85.698-22.41,86.86-24.615,87.05z M-27.05,86.889c-1.653-0.344-3.365-1.147-5.088-2.389l1.754-2.434
				c1.379,0.993,2.706,1.627,3.945,1.885L-27.05,86.889z M-33.824,83.148c-1.222-1.079-2.438-2.377-3.618-3.857l2.346-1.869
				c1.071,1.344,2.168,2.515,3.259,3.479L-33.824,83.148z M-18.392,81.56l-2.885-0.82c0.046-0.164,0.09-0.333,0.128-0.507
				c0.326-1.497,0.498-2.868,0.509-4.071l3,0.027c-0.013,1.409-0.207,2.985-0.578,4.686C-18.271,81.111-18.328,81.339-18.392,81.56z
				 M-38.702,77.624c-0.955-1.331-1.896-2.8-2.794-4.367l2.602-1.492c0.849,1.479,1.733,2.862,2.63,4.111L-38.702,77.624z
				 M-54.525,75.933l-1.107-2.789c1.404-0.557,2.999-1.188,4.719-1.838l1.061,2.807C-51.556,74.756-53.135,75.38-54.525,75.933z
				 M-20.754,74.39c-0.229-1.532-0.788-2.696-1.708-3.558l2.051-2.189c1.412,1.322,2.295,3.106,2.624,5.304L-20.754,74.39z
				 M-47.979,73.415l-1.029-2.818c1.715-0.626,3.291-1.17,4.817-1.661l0.92,2.855C-44.762,72.271-46.302,72.802-47.979,73.415z
				 M-42.493,71.453c-0.773-1.453-1.53-3.008-2.249-4.621l2.74-1.221c0.354,0.794,0.718,1.573,1.088,2.332
				c1.268-0.357,2.489-0.67,3.645-0.933l0.664,2.926c-1.487,0.337-3.093,0.763-4.771,1.266l-0.088-0.297L-42.493,71.453z
				 M-23.763,69.934c-1.107-0.561-2.542-0.888-4.264-0.972l0.146-2.996c2.146,0.104,3.987,0.539,5.473,1.292L-23.763,69.934z
				 M-34.688,69.54l-0.551-2.949c1.888-0.353,3.641-0.563,5.211-0.629l0.123,2.998C-31.332,69.019-32.941,69.214-34.688,69.54z
				 M-45.553,64.959c-0.691-1.632-1.383-3.139-2.056-4.477l2.68-1.348c0.702,1.396,1.422,2.963,2.138,4.654L-45.553,64.959z
				 M-48.518,58.753c-0.854-1.554-1.723-2.916-2.578-4.049l2.393-1.809c0.957,1.266,1.877,2.708,2.814,4.41L-48.518,58.753z
				 M-52.286,53.266c-1.117-1.228-2.258-2.139-3.488-2.785l1.396-2.656c1.545,0.813,2.955,1.932,4.311,3.422L-52.286,53.266z
				 M-57.394,49.791c-1.518-0.506-3.096-0.683-4.575-0.798l0.232-2.99c1.59,0.123,3.462,0.332,5.292,0.942L-57.394,49.791z
				 M-63.953,48.861c-1.437-0.09-3.225-0.201-5.14-0.497l0.458-2.965c1.78,0.275,3.493,0.382,4.868,0.468L-63.953,48.861z
				 M-71.163,47.978c-1.731-0.383-3.377-0.897-5.032-1.574l1.135-2.777c1.496,0.611,2.982,1.076,4.544,1.422L-71.163,47.978z
				 M-78.114,45.548c-1.33-0.643-2.688-1.406-4.036-2.269l-0.501-0.33l1.664-2.496l0.464,0.305c1.239,0.793,2.492,1.498,3.715,2.089
				L-78.114,45.548z M-84.379,41.77c-1.424-1.061-2.76-2.225-3.97-3.459l2.143-2.1c1.102,1.124,2.319,2.185,3.62,3.152
				L-84.379,41.77z M-89.78,36.746c-1.237-1.452-2.256-2.942-3.028-4.431l2.663-1.381c0.667,1.286,1.559,2.587,2.648,3.866
				L-89.78,36.746z M-59.155,34.912c-1.091-1.17-2.203-2.41-3.398-3.793l2.27-1.963c1.17,1.354,2.257,2.567,3.322,3.709
				L-59.155,34.912z M-93.702,30.307c-0.587-1.586-0.885-3.16-0.885-4.678c0-0.299,0.011-0.597,0.034-0.894l2.991,0.23
				c-0.017,0.221-0.025,0.442-0.025,0.663c0,1.161,0.235,2.385,0.698,3.637L-93.702,30.307z M-63.873,29.576
				c-0.891-1.052-1.747-2.081-2.575-3.077l-0.663-0.797l2.305-1.92l0.665,0.799c0.822,0.988,1.672,2.011,2.558,3.056L-63.873,29.576
				z M-68.398,24.164c-1.341-1.59-2.351-2.737-3.274-3.72l2.187-2.055c0.961,1.023,2.004,2.208,3.38,3.841L-68.398,24.164z
				 M-91.255,23.294l-2.879-0.842c0.51-1.745,1.458-3.396,2.815-4.907l2.231,2.006C-90.143,20.725-90.872,21.984-91.255,23.294z
				 M-73.034,19.055c-1.332-1.294-2.525-2.244-3.648-2.904l1.52-2.586c1.333,0.783,2.713,1.875,4.219,3.338L-73.034,19.055z
				 M-87.782,18.278l-1.96-2.271c0.192-0.166,0.391-0.331,0.596-0.494c1.37-1.094,2.663-1.911,3.951-2.499l1.244,2.73
				c-1.046,0.477-2.165,1.188-3.324,2.113C-87.451,17.998-87.619,18.138-87.782,18.278z M-78.251,15.397
				c-1.361-0.499-2.672-0.575-4.067-0.231l-0.716-2.914c1.962-0.48,3.911-0.371,5.817,0.329L-78.251,15.397z"/>
		</g>
		<g>
			<linearGradient id="SVGID_13_" gradientUnits="userSpaceOnUse" x1="-57.5684" y1="36.4268" x2="-53.6797" y2="36.4268">
				<stop  offset="0" style="stop-color:#E68D13"/>
				<stop  offset="1" style="stop-color:#82027E"/>
			</linearGradient>
			<path fill="url(#SVGID_13_)" d="M-55.771,38.371c-0.614-0.597-1.213-1.196-1.797-1.795l2.148-2.094
				c0.564,0.579,1.146,1.159,1.74,1.738L-55.771,38.371z"/>
		</g>
	</g>
</g>
<g>
	<g>
		<defs>
			<path id="SVGID_34_" d="M52.285-92.759c4.71-0.423,11.135,0.948,15.474,2.632c2.118,0.81,4.147,1.837,6.056,3.062
				c0.954,0.617,1.815,1.211,2.691,1.888c0.874,0.681,1.62,1.347,2.436,2.081c3.211,3.003,5.836,6.578,7.736,10.541
				c4.312,9.05,4.892,20.931,0.976,30.275c-1.652,4.111-4.046,7.885-7.058,11.135c-0.464,0.504-0.814,0.78-1.15,1.15
				c-1.146,1.131-2.377,2.176-3.68,3.122c-5.929,4.299-13.005,6.731-20.324,6.982c-9.231,0.323-17.378-2.227-24.375-7.596
				c-0.451-0.351-0.835-0.672-1.258-1.035c-0.408-0.324-0.798-0.672-1.165-1.044c-0.739-0.78-1.573-1.573-2.26-2.341
				c-3.771-4.273-6.47-9.38-7.879-14.902c-1.965-7.835-1.434-16.088,1.521-23.606c0.855-2.086,1.895-4.092,3.103-5.995
				c1.472-2.271,3.185-4.372,5.112-6.27c2.771-2.657,5.951-4.853,9.42-6.5c5.253-2.502,8.873-3.062,14.658-3.579H52.285z
				 M14.269-59.677v6.479c0.086,0.258,0.129,1.667,0.195,2.146c1.332,8.782,5.51,16.884,11.895,23.061
				c1.604,1.533,3.321,2.944,5.138,4.221c3.856,2.71,8.167,4.705,12.729,5.895c1.27,0.352,2.557,0.628,3.857,0.83
				c0.775,0.111,3.926,0.21,4.258,0.332h4.504c0.178-0.079,3.427-0.479,4.048-0.615c3.619-0.69,7.122-1.89,10.404-3.563
				c1.999-1.036,3.918-2.221,5.74-3.544c8.805-6.484,15.191-16.895,16.188-27.89c0.017-0.727,0.074-1.451,0.172-2.172v-3.876
				c-0.086-0.228-0.356-3.538-0.468-4.245c-0.206-1.292-0.487-2.569-0.843-3.827c-2.019-7.205-5.994-13.709-11.486-18.79
				c-2.886-2.664-6.129-4.91-9.636-6.676c-10.761-5.537-24.204-5.334-34.874,0.283c-4.65,2.461-6.712,4.152-10.329,7.599
				c-1.479,1.521-2.856,3.139-4.123,4.842c-2.646,3.627-4.649,7.681-5.925,11.985c-0.535,1.815-0.947,3.665-1.23,5.537
				c-0.029,0.667-0.105,1.332-0.228,1.987H14.269z"/>
		</defs>
		<linearGradient id="SVGID_14_" gradientUnits="userSpaceOnUse" x1="14.2563" y1="-56.334" x2="93.3979" y2="-56.334">
			<stop  offset="0" style="stop-color:#E68D13"/>
			<stop  offset="1" style="stop-color:#82027E"/>
		</linearGradient>
		<use xlink:href="#SVGID_34_"  overflow="visible" fill="url(#SVGID_14_)"/>
		<clipPath id="SVGID_15_">
			<use xlink:href="#SVGID_34_"  overflow="visible"/>
		</clipPath>
	</g>
	<g>
		<defs>
			<path id="SVGID_37_" d="M57.675-50.873c-0.474,2.394-1.754,2.492-1.925,3.04c-0.095,0.816-0.12,1.64-0.075,2.461
				c0,1.335,0.075,1.113-0.688,1.802c-1.441,1.299-3.077-0.307-3.077-0.99c0-0.8,0-1.691,0-2.51c0-1.354-0.332-0.918-0.923-1.581
				c-1.503-1.559-1.457-4.04,0.102-5.542c0.365-0.354,0.797-0.632,1.271-0.82c3.161-1.199,5.795,1.771,5.334,4.152L57.675-50.873z
				 M43.116-60.093c-0.431-2.563-0.079-5.199,1.01-7.553c1.944-4.052,6.712-7.039,11.314-6.131c1.16,0.211,2.276,0.605,3.316,1.172
				c1.813,1.082,3.321,2.619,4.382,4.464c1.223,2.267,1.715,4.866,1.398,7.431c-0.084,0.829,0.071,0.666-1.538,0.656
				c-2.213,0-18.769,0.102-19.907,0L43.116-60.093z M67.483-62.5c0.104-5.175-2.511-8.725-5.015-10.978
				c-3.358-2.884-7.927-3.918-12.201-2.763c-5.068,1.354-8.416,5.465-9.758,9.949c-0.431,1.434-0.362,3.98-0.35,5.655
				c0,0.923-0.13,0.713-0.664,1.229c-0.751,0.67-1.195,1.616-1.23,2.621c0,4.165-0.111,10.091,0.055,14.06
				c-0.061,0.951,0.23,1.894,0.818,2.646c0.527,0.65,1.199,1.169,1.963,1.513c1.181,0.406,11.535,0.271,13.609,0.265
				c2.072-0.006,10.01,0,11.412-0.185c0.706-0.185,1.346-0.564,1.847-1.095c0.592-0.394,0.983-1.024,1.077-1.729
				c0.21-1.812,0.278-3.636,0.202-5.458c0-2.295,0.068-9.229-0.123-10.668c-0.204-1.053-0.831-1.974-1.734-2.548L67.483-62.5z"/>
		</defs>
		<linearGradient id="SVGID_16_" gradientUnits="userSpaceOnUse" x1="38.2285" y1="-57.4902" x2="69.2788" y2="-57.4902">
			<stop  offset="0" style="stop-color:#E68D13"/>
			<stop  offset="1" style="stop-color:#82027E"/>
		</linearGradient>
		<use xlink:href="#SVGID_37_"  overflow="visible" fill="url(#SVGID_16_)"/>
		<clipPath id="SVGID_18_">
			<use xlink:href="#SVGID_37_"  overflow="visible"/>
		</clipPath>
	</g>
</g>
<g>
	<defs>
		<path id="SVGID_40_" d="M-84.638-71.668c-1,0.65-6.35,5.66-8,6.94c-0.43,0.33-1,0.59-1,1.25v41c0,4.12,2.46,6.56,6.55,6.56h61.82
			c4.1,0,6.56-2.46,6.56-6.56v-40.82c0-0.92-0.93-1.38-2-2.32l-7-6.05c-0.109-3.22,0.5-10.34-0.619-12.75
			c-1.721-3.729-5.29-3.41-10.08-3.41c-2.181,0-4.38,0-6.561,0c-1.61,0-1.31-0.33-2.229-1.13c-0.61-0.529-1.16-1-1.811-1.56
			c-1.779-1.49-5.83-5.271-7.18-6.23c-2.221,1.65-6.23,5.5-8.89,7.71c-0.85,0.71-0.74,1.181-2.15,1.221c-2.21,0.05-4.53,0-6.75,0
			c-4.73,0-8.26-0.32-10,3.279c-1.11,2.25-0.57,9.74-0.65,12.88L-84.638-71.668z M-45.638-39.869c1.95-1.8,3.91-3.399,6-5.229
			l11.93-10.53c1.521-1.41,4.57-3.79,5.921-5.149c0.289,1.85,0.079,27.199,0.079,31.369c0,2.46,0.61,8.4-0.939,9.561
			c-1.055-0.752-2.057-1.573-3-2.46c-4.561-3.79-9.78-8.74-14.39-12.58c-1.061-0.891-1.791-1.641-2.891-2.53
			C-43.894-38.163-44.8-38.982-45.638-39.869L-45.638-39.869z M-89.708-19.869c-1.2-1-0.94-2.42-0.94-4.31
			c0-4.91-0.22-35.06,0.09-36.62l5.92,5.14c3.76,3.511,15.74,13.48,17.88,15.78l-20.01,17.65c-0.894,0.866-1.854,1.662-2.87,2.38
			L-89.708-19.869z M-86.018-18.968l15.89-13.72c0.86-0.75,4.63-4.23,5.51-4.23h16.85c0.88,0,2.51,1.66,3,2.08
			c5.15,4.521,10.87,9.13,15.83,13.561c0.915,0.717,1.78,1.496,2.59,2.33h-59.66L-86.018-18.968z M-27.728-59.968l0.06-7.77
			l4.311,3.869c-0.36,0.57-0.57,0.61-1.08,1.051c-0.51,0.439-0.66,0.649-1.061,1l-2.229,1.859V-59.968z M-89.008-63.869
			c1.361-1.379,2.804-2.674,4.32-3.88v7.771c-1.524-1.188-2.958-2.489-4.29-3.891H-89.008z M-61.857-87.869l5.67-5
			c1.979,1.561,3.867,3.229,5.66,5H-61.857L-61.857-87.869z M-79.408-84.728c1.34-0.34,31.63-0.12,35.76-0.12
			c11.51,0,12.93-1.19,12.92,5.06v18c0,3.49,0.42,3.87-0.93,5.061l-15.82,14.14c-3.851,3.65-2.45,2.771-9.271,2.69
			c-1.289,0-4.77,0.319-5.64-0.34l-3.17-2.82c-0.6-0.57-1-0.79-1.6-1.4c-0.45-0.439-1.05-0.939-1.58-1.41l-12.7-11.239
			c-0.44-0.74-0.19-20.67-0.19-23.79c-0.01-2.11,0.45-3.36,2.25-3.811L-79.408-84.728z"/>
	</defs>
	<linearGradient id="SVGID_19_" gradientUnits="userSpaceOnUse" x1="-21.7744" y1="-75.2295" x2="-90.2744" y2="-21.7295">
		<stop  offset="0" style="stop-color:#E68D13"/>
		<stop  offset="1" style="stop-color:#82027E"/>
	</linearGradient>
	<use xlink:href="#SVGID_40_"  overflow="visible" fill="url(#SVGID_19_)"/>
	<clipPath id="SVGID_21_">
		<use xlink:href="#SVGID_40_"  overflow="visible"/>
	</clipPath>
</g>
<g>
	<linearGradient id="SVGID_23_" gradientUnits="userSpaceOnUse" x1="171.689" y1="51.7588" x2="211.2681" y2="51.7588">
		<stop  offset="0" style="stop-color:#E68D13"/>
		<stop  offset="1" style="stop-color:#82027E"/>
	</linearGradient>
	<path fill="url(#SVGID_23_)" d="M193.094,57.474v-2.154c4.72,0.26,9.527-1.404,13.128-5.006c4.285-4.283,5.842-10.266,4.668-15.781
		c-5.516-1.174-11.498,0.383-15.783,4.666c-1.582,1.584-2.79,3.398-3.628,5.336c-0.838-1.938-2.046-3.752-3.628-5.336
		c-4.285-4.283-10.268-5.84-15.783-4.666c-1.174,5.516,0.383,11.498,4.668,15.781c3.651,3.652,8.545,5.314,13.329,4.994v2.164
		c-7.423,0.484-13.888,4.508-17.692,10.391c0,0.596,0.203,1.096,0.188,1.236l4.016,0.031c-0.166-0.318-0.422-0.813-0.482-1.268
		c3.023-4.064,8.111-6.848,13.972-7.26v5.795c0,1.037,0.679,1.879,1.515,1.879s1.515-0.842,1.515-1.879v-5.795
		c5.854,0.416,10.938,3.199,13.969,7.26c0,0-0.237,1.346-0.55,1.502h4.203c0.3-0.4,0.1-1.125,0.076-1.502
		C206.972,61.981,200.511,57.96,193.094,57.474z M197.382,41.472c3.213-3.213,7.347-4.73,10.95-4.383
		c0.349,3.604-1.171,7.738-4.384,10.951c-3.207,3.207-7.341,4.727-10.944,4.377C192.65,48.819,194.169,44.687,197.382,41.472z
		 M189.953,52.417c-3.604,0.35-7.737-1.17-10.944-4.377c-3.213-3.213-4.732-7.348-4.384-10.951c3.604-0.348,7.737,1.17,10.95,4.383
		C188.788,44.687,190.307,48.819,189.953,52.417z"/>
	<g>
		<linearGradient id="SVGID_24_" gradientUnits="userSpaceOnUse" x1="127.1494" y1="35.6543" x2="129.3193" y2="35.6543">
			<stop  offset="0" style="stop-color:#E68D13"/>
			<stop  offset="1" style="stop-color:#82027E"/>
		</linearGradient>
		<path fill="url(#SVGID_24_)" d="M127.64,35.444c-0.211,0.381-0.371,0.771-0.49,1.17c0.459-0.299,0.959-0.57,1.479-0.82
			c0.19-0.379,0.42-0.738,0.69-1.1C128.729,34.925,128.169,35.175,127.64,35.444z"/>
		<linearGradient id="SVGID_26_" gradientUnits="userSpaceOnUse" x1="121.7197" y1="51" x2="171.4893" y2="51">
			<stop  offset="0" style="stop-color:#E68D13"/>
			<stop  offset="1" style="stop-color:#82027E"/>
		</linearGradient>
		<path fill="url(#SVGID_26_)" d="M162.759,41.444c0.04-0.25,0.061-0.5,0.061-0.75v-2.33c0-5.559-8.051-10.059-17.971-10.059
			c-8.109,0-14.97,3-17.209,7.139c-3.641,1.84-5.92,4.5-5.92,7.461v2.34c0,3.029,2.409,5.76,6.219,7.6
			c-0.1,0.42-0.149,0.85-0.149,1.291v2.33c0,2.059,1.101,3.979,3,5.568v1.59c0,5.561,8.05,10.07,17.979,10.07
			c9.92,0,17.971-4.51,17.971-10.07v-2.33c0-0.648-0.11-1.279-0.32-1.889c3.141-1.811,5.07-4.281,5.07-7v-2.34
			C171.489,46.405,167.989,43.194,162.759,41.444z M128.629,35.794c0.19-0.379,0.42-0.738,0.69-1.1
			c2.55-3.389,8.55-5.76,15.529-5.76c9.301,0,16.851,4.221,16.851,9.43c0,0.891-0.22,1.75-0.64,2.57
			c-0.101,0.201-0.211,0.4-0.351,0.6c-0.68,1.08-1.72,2.08-3.03,2.941c-0.539,0.359-1.13,0.689-1.77,1
			c-0.141,0.068-0.28,0.139-0.43,0.199c-0.311,0.15-0.621,0.279-0.95,0.41c-2.74,1.08-6.08,1.709-9.681,1.709
			c-2.58,0-5.029-0.318-7.209-0.898c-0.341-0.09-0.681-0.191-1.011-0.291v-0.01c-0.18-0.061-0.36-0.119-0.54-0.18
			c-0.34-0.109-0.68-0.24-1-0.371c-4.29-1.699-7.1-4.5-7.1-7.68C127.989,37.476,128.209,36.604,128.629,35.794z M122.839,42.905
			c0-2.42,1.631-4.621,4.311-6.291c-0.19,0.57-0.28,1.15-0.28,1.75v2.33c0,2.721,1.93,5.201,5.08,7.01
			c0.25,0.15,0.521,0.301,0.8,0.432h0.01c0.87,0.449,1.82,0.84,2.83,1.18c0.35,0.119,0.721,0.229,1.09,0.34
			c2.45,0.699,5.23,1.1,8.17,1.1c1.84,0,3.61-0.16,5.28-0.439c-0.819,0.359-1.7,0.68-2.63,0.949c-2.07,0.609-4.38,0.99-6.84,1.051
			c-0.32,0.02-0.641,0.029-0.96,0.029c-0.88,0-1.74-0.039-2.591-0.109c-0.529-0.051-1.049-0.111-1.569-0.18
			c-1.979-0.281-3.81-0.762-5.44-1.4c-0.319-0.121-0.629-0.25-0.93-0.391C125.31,48.544,122.839,45.886,122.839,42.905z
			 M128.909,54.136c0-0.281,0.02-0.551,0.07-0.82c1.74,0.729,3.72,1.279,5.869,1.619c0.4,0.061,0.811,0.121,1.221,0.16
			c0.05,0.01,0.09,0.01,0.14,0.02c2.11,4.24,9.06,7.352,17.31,7.352h0.15c-2.359,0.699-5.05,1.1-7.9,1.1
			c-5.6,0-10.56-1.521-13.619-3.871c-0.311-0.24-0.601-0.479-0.87-0.729C129.779,57.544,128.909,55.905,128.909,54.136z
			 M165.619,61.294c0,5.211-7.55,9.432-16.851,9.432c-8.22,0-15.069-3.291-16.56-7.65c3.29,2.109,8.149,3.449,13.56,3.449
			c6.681,0,12.5-2.039,15.601-5.07c1.489-0.398,2.86-0.92,4.08-1.52C165.56,60.374,165.619,60.835,165.619,61.294z M164.999,56.976
			c-0.29,0.139-0.58,0.289-0.891,0.42c-0.159,0.08-0.319,0.148-0.489,0.219c-0.94,0.4-1.96,0.74-3.04,1.021
			c-2.141,0.559-4.54,0.869-7.061,0.869c-5.85,0-11-1.67-14.02-4.199h0.2c5.149,0,9.79-1.211,13.069-3.17
			c0.291-0.16,0.58-0.342,0.851-0.531c1.479-1,2.61-2.18,3.3-3.459c0.34-0.17,0.67-0.361,0.99-0.541c0.26-0.16,0.5-0.311,0.74-0.469
			c2.08-1.4,3.5-3.111,3.979-5c4.66,1.68,7.74,4.6,7.74,7.93C170.369,52.794,168.299,55.245,164.999,56.976z"/>
		<g>
			<g>
				<defs>
					<path id="SVGID_46_" d="M141.624,39.104c0.936-1.141,3.041-3.559,3.41-4.01c0.082-0.115,0.18-0.215,0.293-0.299l0.688,0.758
						c0.674,0.795,1.432,1.775,2.195,2.672l0,0c0.273,0.318,0.54,0.635,0.814,0.93l0.446,0.508h-8.272l0.439-0.586L141.624,39.104z
						 M152.835,41.013l-2.379-2.801l-0.916-1.068c-0.354-0.473-0.734-0.926-1.139-1.354l-0.459-0.555
						c-0.184-0.223-1.176-1.42-1.271-1.477c-0.163-0.256-0.355-0.494-0.574-0.707c-0.227-0.301-0.471-0.59-0.731-0.865l-1.195,1.35
						c-0.152,0.15-0.284,0.32-0.396,0.504c-0.057,0-2.9,3.326-3.002,3.512c-0.252,0.256-0.488,0.529-0.707,0.814
						c-0.235,0.279-0.465,0.533-0.713,0.834l-0.707,0.838c-0.256,0.266-0.492,0.551-0.705,0.854l0,0l-0.102,0.115h15.01
						L152.835,41.013z M146.06,31.837c0.163-0.064,0.334-0.107,0.508-0.127l-0.119,0.566
						C146.265,32.187,146.126,32.028,146.06,31.837z M154.789,39.595c-0.153,0.154-0.331,0.281-0.528,0.373
						c-0.268,0.129-0.809-0.074-1.272-0.178c-0.216-0.043-0.229,0-0.33-0.133c-0.15-0.146-0.278-0.314-0.382-0.496L154.789,39.595
						L154.789,39.595z M150.901,37.577c0.051,0,0,0,0.114-0.031h0.083l2.615-0.18c0.147,0.154,0.287,0.318,0.412,0.49l-2.983,0.045
						c-0.076-0.115-0.165-0.197-0.241-0.307V37.577z M150.399,36.94l3.123-0.635l-0.057,0.525c-0.598,0.063-2.443,0.402-2.877,0.377
						c-0.096-0.109-0.164-0.146-0.189-0.273V36.94z M148.693,34.95c0.096-0.051,1.521-1.273,1.763-1.51c0.051-0.051,0,0,0.063-0.076
						s-0.413-0.4-0.452-0.418c-0.576,0.529-1.111,1.105-1.604,1.717c0,0.076,0.134,0.229,0.242,0.279L148.693,34.95z
						 M148.967,35.272c0.041,0.105,0.109,0.199,0.197,0.27c0.21-0.039,1.909-1.121,2.164-1.273c0.253-0.121,0.487-0.279,0.693-0.471
						l-0.815-0.154l-2.239,1.637V35.272z M148.395,31.259c-0.243,0.754-0.572,1.477-0.979,2.156c-0.178-0.084-0.32-0.227-0.408-0.4
						c-0.069-0.146,0.07-0.395,0.121-0.547c0.121-0.35,0.254-1.049,0.51-1.113c0.035-0.004,0.072-0.004,0.107,0h0.107
						c0.037-0.01,0.072-0.023,0.103-0.045L148.395,31.259z M155.037,39.003c-0.56,0-1.368-0.135-1.973-0.191l-0.993-0.102
						c-0.241,0-0.241,0-0.355-0.152c-0.084-0.082-0.151-0.18-0.198-0.289l3.182,0.131l0.331,0.469v0.135H155.037z M148.12,34.276
						c-0.12-0.08-0.221-0.188-0.292-0.314c-0.058-0.119,0.044-0.195,0.127-0.33c0.235-0.375,1.081-1.787,1.272-1.971
						c0.166,0.088,0.504,0.52,0.439,0.666l-1.018,1.271c-0.156,0.225-0.329,0.439-0.516,0.637L148.12,34.276z M149.921,36.374
						l4.066-1.4c0.012,0.172-0.02,0.344-0.096,0.498c-0.076,0.209-0.089,0.195-0.369,0.266c-0.387,0.096-0.75,0.203-1.132,0.307
						c-0.382,0.102-2.005,0.584-2.278,0.598C150.013,36.583,149.944,36.487,149.921,36.374L149.921,36.374z M149.457,35.841
						c0.042,0.1,0.104,0.191,0.185,0.266l4.104-1.736c-0.129-0.137-0.291-0.236-0.471-0.293c-0.279-0.109-0.338,0-0.592,0.102
						L149.457,35.841z"/>
				</defs>
				<linearGradient id="SVGID_27_" gradientUnits="userSpaceOnUse" x1="137.8389" y1="36.1357" x2="155.0371" y2="36.1357">
					<stop  offset="0" style="stop-color:#E68D13"/>
					<stop  offset="1" style="stop-color:#82027E"/>
				</linearGradient>
				<use xlink:href="#SVGID_46_"  overflow="visible" fill="url(#SVGID_27_)"/>
				<clipPath id="SVGID_29_">
					<use xlink:href="#SVGID_46_"  overflow="visible"/>
				</clipPath>
			</g>
			<g>
				<defs>
					<path id="SVGID_49_" d="M144.901,37.265c-1.781,0.344-1.069,2.145,0.7,1.846c0.636-0.107,1.216-0.586,0.979-1.184
						C146.233,37.354,145.546,37.085,144.901,37.265z"/>
				</defs>
				<linearGradient id="SVGID_30_" gradientUnits="userSpaceOnUse" x1="143.8687" y1="38.1768" x2="146.6348" y2="38.1768">
					<stop  offset="0" style="stop-color:#E68D13"/>
					<stop  offset="1" style="stop-color:#82027E"/>
				</linearGradient>
				<use xlink:href="#SVGID_49_"  overflow="visible" fill="url(#SVGID_30_)"/>
				<clipPath id="SVGID_31_">
					<use xlink:href="#SVGID_49_"  overflow="visible"/>
				</clipPath>
			</g>
			<g>
				<defs>
					<path id="SVGID_52_" d="M144.927,45.097h0.521c0.058-0.24-0.051-3.111-0.102-3.498h-0.451l-0.281,3.404l0.313,0.102V45.097z
						 M138.284,42.235c0.152,0,0.413-0.205,0.541-0.287c0.182-0.094,0.354-0.201,0.516-0.324h-1.102l0.045,0.637V42.235z
						 M147.548,43.354l0.172,0.438c0.242-0.057,0.382-0.139,0.682-0.195c-0.043-0.119-0.098-0.232-0.166-0.34L148,42.935
						c-0.191-0.461-0.427-0.9-0.7-1.316h-0.49l0.738,1.742V43.354z M150.233,41.942l-0.178-0.168
						c-0.07-0.045-0.132-0.102-0.186-0.164h-0.77c0.302,0.32,0.621,0.625,0.955,0.91l0.508,0.439
						c0.195,0.252,0.435,0.469,0.707,0.637c0.232-0.051,0.445-0.174,0.604-0.35c-0.095-0.127-0.21-0.236-0.344-0.32l-0.267-0.215
						c-0.109-0.076,0-0.031-0.16-0.076c0-0.07,0,0-0.076-0.09c-0.248-0.236-0.52-0.449-0.808-0.637L150.233,41.942z M149.075,43.317
						l-1.247-1.719h0.579c0.332,0.334,0.638,0.693,0.916,1.074c0.323,0.287,0.614,0.609,0.865,0.961l-0.967-0.082l-0.178-0.26
						L149.075,43.317z M152.192,42.526c-0.127,0-0.261-0.127-0.368-0.197c-0.108-0.068-0.204-0.127-0.369-0.234
						c-0.243-0.143-0.478-0.303-0.7-0.477c0.514-0.125,1.054-0.029,1.494,0.26l-0.057,0.635V42.526z M141.758,43.583l0.776,0.096
						l0.973-2.068h-0.52c-0.18,0.318-0.39,0.637-0.637,0.967c-0.236,0.322-0.449,0.654-0.637,1.006H141.758z M138.92,43.493
						c-0.147-0.053-0.276-0.152-0.368-0.279c-0.229-0.279-0.045-0.299,0.725-0.848c0.941-0.686,0.891-0.846,1.813-0.742l-2.17,1.844
						V43.493z M139.83,43.679l1.972-2.068h0.599c-0.239,0.363-0.503,0.711-0.788,1.037c-0.146,0.197-0.262,0.33-0.408,0.516
						C140.739,43.761,141.058,43.634,139.83,43.679z M143.839,44.519c-0.102-0.063-0.242-0.172-0.344-0.248
						s-0.293-0.178-0.306-0.287c-0.013-0.107,0.726-2.01,0.802-2.365h0.478l-0.637,2.9H143.839z M146.353,44.704l-0.49-3.094h0.445
						c0.096,0.516,0.35,1.164,0.502,1.719c0.098,0.279,0.178,0.563,0.236,0.854c-0.039,0.094-0.561,0.457-0.726,0.496
						L146.353,44.704z"/>
				</defs>
				<linearGradient id="SVGID_32_" gradientUnits="userSpaceOnUse" x1="138.2393" y1="43.335" x2="152.249" y2="43.335">
					<stop  offset="0" style="stop-color:#E68D13"/>
					<stop  offset="1" style="stop-color:#82027E"/>
				</linearGradient>
				<use xlink:href="#SVGID_52_"  overflow="visible" fill="url(#SVGID_32_)"/>
				<clipPath id="SVGID_33_">
					<use xlink:href="#SVGID_52_"  overflow="visible"/>
				</clipPath>
			</g>
			<g>
				<defs>
					<path id="SVGID_55_" d="M135.478,38.741c0.522,0,2.387-0.172,3.182-0.223c0.229,0,0.286,0,0.406-0.115
						c0.094-0.082,0.166-0.184,0.211-0.299c-0.312,0-3.182,0-3.365,0.107c-0.176,0.146-0.32,0.326-0.426,0.529H135.478z
						 M136.82,40.325c0.294,0.135,0.235,0.172,0.452,0.191l0.344-0.395C137.345,40.161,137.078,40.229,136.82,40.325L136.82,40.325z
						 M140.829,33.032l-0.293-0.299l0,0c-0.155,0.125-0.288,0.277-0.395,0.445c0.176,0.246,0.391,0.461,0.637,0.637l0.204,0.191
						l0.101,0.096l0.135,0.109c0.242,0.273,0.513,0.521,0.807,0.738c0.281-0.168,0.294-0.287,0.147-0.441
						c-0.147-0.15-0.255-0.305-0.414-0.457c-0.276-0.352-0.571-0.688-0.884-1.006L140.829,33.032z M141.917,33.403
						c-0.219-0.248-0.408-0.521-0.566-0.814c-0.057,0-0.4-0.459-0.389-0.598c0.043-0.119,0.117-0.223,0.211-0.307
						c0.209-0.203,0.242-0.158,0.33-0.172c0.164,0.188,0.293,0.404,0.383,0.637c0.031,0.031,0.578,0.969,0.636,1.07
						c0.118,0.17,0.227,0.35,0.325,0.533c0.075,0.146,0.069,0.141-0.058,0.287c-0.056,0.086-0.134,0.158-0.223,0.209
						c-0.237-0.266-0.45-0.555-0.637-0.859L141.917,33.403z M136.967,34.167c0.382-0.809,3.735,1.342,4.296,1.648l-0.23,0.248
						c-0.324-0.072-3.123-1.4-3.613-1.631C137.126,34.3,136.942,34.249,136.967,34.167L136.967,34.167z M137.324,35.599
						c-0.272-0.045-0.538-0.125-0.79-0.236c-0.118-0.189-0.15-0.42-0.089-0.637c0.479,0.127,0.947,0.291,1.399,0.49l0.637,0.234
						l0.324,0.115c0.172,0.059,0.14,0,0.254,0.121c0.115,0.121,1.547,0.541,1.758,0.637l-0.217,0.262l-1.801-0.549
						c-0.5-0.117-0.992-0.271-1.471-0.457L137.324,35.599z M140.326,34.198l0.714,0.527c0.244,0.158,0.473,0.342,0.68,0.547
						l-0.203,0.262c-0.921-0.543-1.813-1.133-2.673-1.768c0.226-0.107,0.47-0.168,0.72-0.18c0.158,0.107,0.255,0.191,0.393,0.293
						C140.097,33.966,140.22,34.073,140.326,34.198L140.326,34.198z M142.813,32.335l0.445,1.061c0.121-0.037,0.064,0,0.167-0.113
						c0.101-0.115,0.292-0.313,0.267-0.484c-0.055-0.256-0.131-0.502-0.229-0.744c0-0.16-0.077-0.49-0.197-0.572
						c-0.121-0.082-0.637-0.172-0.637-0.211c0-0.037,0,0,0,0h-0.197c0,0.186,0.134,0.375,0.197,0.549
						c0.058,0.186,0.139,0.365,0.241,0.535L142.813,32.335z M137.966,36.788l2.157,0.361l0.235-0.285
						c-0.494-0.133-0.996-0.238-1.502-0.318c-0.152-0.063-0.314-0.109-0.477-0.139c-0.338-0.084-1.361-0.326-1.572-0.338
						l0.159,0.566L137.966,36.788L137.966,36.788z M136.579,37.634c0.084-0.182,0.195-0.348,0.331-0.496l2.946,0.299
						c-0.051,0.158-0.135,0.178-0.218,0.326L136.579,37.634z M135.51,39.364c0.093,0.248,0.299,0.436,0.554,0.504l1.966-0.395
						c0.247-0.098,0.444-0.291,0.548-0.535L135.51,39.364z"/>
				</defs>
				<linearGradient id="SVGID_35_" gradientUnits="userSpaceOnUse" x1="135.4775" y1="35.8857" x2="143.6948" y2="35.8857">
					<stop  offset="0" style="stop-color:#E68D13"/>
					<stop  offset="1" style="stop-color:#82027E"/>
				</linearGradient>
				<use xlink:href="#SVGID_55_"  overflow="visible" fill="url(#SVGID_35_)"/>
				<clipPath id="SVGID_36_">
					<use xlink:href="#SVGID_55_"  overflow="visible"/>
				</clipPath>
			</g>
		</g>
	</g>
</g>
<g>
	<linearGradient id="SVGID_38_" gradientUnits="userSpaceOnUse" x1="66.2085" y1="-153.958" x2="93.9038" y2="-153.958">
		<stop  offset="0" style="stop-color:#E68D13"/>
		<stop  offset="1" style="stop-color:#82027E"/>
	</linearGradient>
	<path fill="url(#SVGID_38_)" d="M81.282-149.961v-1.507c3.303,0.183,6.572-0.982,9.092-3.502c2.998-2.998,4.087-7.184,3.266-11.043
		c-3.859-0.822-8.045,0.268-11.044,3.266c-1.107,1.107-1.952,2.377-2.539,3.732c-0.586-1.355-1.431-2.625-2.538-3.732
		c-2.999-2.998-7.185-4.088-11.045-3.266c-0.82,3.859,0.268,8.045,3.266,11.043c2.557,2.556,5.852,3.719,9.199,3.494v1.515
		c-5.193,0.338-9.589,3.154-12.251,7.271c0,0.416,0.142,0.766,0.131,0.865l2.81,0.021c-0.116-0.225-0.068-0.393-0.111-0.711
		c2.115-2.844,5.337-4.68,9.438-4.969v3.766c0,0.727,0.588,1.316,1.174,1.316c0.584,0,1.17-0.59,1.17-1.316v-3.797
		c4.096,0.291,7.348,2.096,9.469,4.938c0,0,0.029,0.828-0.189,0.938h2.941c0.209-0.281,0.068-0.787,0.053-1.051
		C90.897-146.805,86.471-149.619,81.282-149.961z M84.352-160.991c2.087-2.087,4.771-3.074,7.112-2.848
		c0.226,2.341-0.76,5.025-2.847,7.113c-2.084,2.083-4.768,3.069-7.109,2.843C81.28-156.22,82.265-158.904,84.352-160.991z
		 M78.554-153.933c-2.317,0.225-4.976-0.752-7.038-2.814c-2.066-2.066-3.042-4.725-2.818-7.042c2.317-0.225,4.976,0.753,7.041,2.819
		C77.805-158.903,78.782-156.246,78.554-153.933z"/>
	<g>
		<linearGradient id="SVGID_39_" gradientUnits="userSpaceOnUse" x1="19.1792" y1="-179.6787" x2="21.3491" y2="-179.6787">
			<stop  offset="0" style="stop-color:#E68D13"/>
			<stop  offset="1" style="stop-color:#82027E"/>
		</linearGradient>
		<path fill="url(#SVGID_39_)" d="M19.669-179.889c-0.209,0.38-0.369,0.771-0.49,1.17c0.461-0.3,0.961-0.57,1.48-0.82
			c0.189-0.38,0.42-0.739,0.689-1.1C20.759-180.409,20.2-180.159,19.669-179.889z"/>
		<linearGradient id="SVGID_41_" gradientUnits="userSpaceOnUse" x1="13.7495" y1="-164.3335" x2="63.52" y2="-164.3335">
			<stop  offset="0" style="stop-color:#E68D13"/>
			<stop  offset="1" style="stop-color:#82027E"/>
		</linearGradient>
		<path fill="url(#SVGID_41_)" d="M54.79-173.889c0.04-0.25,0.061-0.5,0.061-0.75v-2.33c0-5.56-8.05-10.06-17.97-10.06
			c-8.11,0-14.971,3-17.211,7.14c-3.64,1.84-5.92,4.5-5.92,7.46v2.34c0,3.029,2.41,5.76,6.221,7.6
			c-0.101,0.42-0.15,0.851-0.15,1.291v2.33c0,2.059,1.1,3.979,3,5.569v1.59c0,5.561,8.05,10.07,17.98,10.07
			c9.919,0,17.97-4.51,17.97-10.07v-2.33c0-0.649-0.11-1.28-0.32-1.89c3.141-1.811,5.07-4.28,5.07-7v-2.34
			C63.52-168.929,60.02-172.139,54.79-173.889z M20.66-179.539c0.189-0.38,0.42-0.739,0.689-1.1
			c2.551-3.39,8.551-5.761,15.531-5.761c9.299,0,16.85,4.221,16.85,9.431c0,0.89-0.22,1.75-0.64,2.569
			c-0.101,0.201-0.211,0.4-0.351,0.601c-0.68,1.08-1.72,2.08-3.03,2.94c-0.539,0.359-1.13,0.689-1.77,1
			c-0.141,0.069-0.28,0.14-0.431,0.199c-0.31,0.15-0.619,0.28-0.949,0.41c-2.74,1.08-6.08,1.71-9.68,1.71
			c-2.58,0-5.031-0.319-7.211-0.899c-0.34-0.09-0.68-0.19-1.01-0.291v-0.01c-0.18-0.06-0.359-0.119-0.54-0.18
			c-0.34-0.109-0.68-0.24-1-0.37c-4.29-1.7-7.1-4.5-7.1-7.68C20.02-177.858,20.24-178.729,20.66-179.539z M14.87-172.429
			c0-2.42,1.63-4.62,4.31-6.29c-0.189,0.569-0.279,1.149-0.279,1.75v2.33c0,2.72,1.93,5.2,5.08,7.01c0.25,0.149,0.52,0.3,0.8,0.431
			h0.011c0.869,0.449,1.819,0.84,2.829,1.18c0.351,0.119,0.72,0.229,1.091,0.34c2.449,0.699,5.229,1.1,8.17,1.1
			c1.84,0,3.609-0.16,5.279-0.439c-0.82,0.359-1.699,0.68-2.63,0.949c-2.069,0.61-4.38,0.99-6.84,1.051
			c-0.32,0.02-0.64,0.029-0.96,0.029c-0.881,0-1.74-0.039-2.59-0.109c-0.53-0.051-1.051-0.11-1.57-0.18
			c-1.98-0.281-3.811-0.761-5.439-1.4c-0.32-0.12-0.631-0.25-0.931-0.391C17.339-166.789,14.87-169.448,14.87-172.429z
			 M20.94-161.198c0-0.281,0.021-0.551,0.069-0.82c1.74,0.729,3.721,1.279,5.871,1.619c0.399,0.061,0.81,0.121,1.219,0.16
			c0.051,0.01,0.091,0.01,0.141,0.021c2.109,4.239,9.061,7.351,17.311,7.351H45.7c-2.36,0.699-5.05,1.1-7.899,1.1
			c-5.601,0-10.561-1.521-13.621-3.87c-0.31-0.24-0.6-0.479-0.869-0.729C21.81-157.789,20.94-159.429,20.94-161.198z M57.65-154.039
			c0,5.209-7.55,9.43-16.85,9.43c-8.221,0-15.07-3.291-16.561-7.649c3.29,2.108,8.15,3.448,13.561,3.448
			c6.68,0,12.499-2.038,15.6-5.068c1.489-0.399,2.86-0.92,4.08-1.521C57.59-154.959,57.65-154.499,57.65-154.039z M57.03-158.358
			c-0.29,0.14-0.58,0.289-0.891,0.42c-0.159,0.08-0.319,0.149-0.489,0.22c-0.94,0.399-1.96,0.739-3.04,1.021
			c-2.141,0.56-4.54,0.869-7.06,0.869c-5.851,0-11-1.67-14.021-4.199h0.2c5.15,0,9.79-1.211,13.07-3.17
			c0.289-0.16,0.58-0.341,0.85-0.531c1.48-1,2.61-2.18,3.3-3.459c0.34-0.17,0.67-0.36,0.99-0.541c0.26-0.159,0.5-0.31,0.74-0.469
			c2.08-1.4,3.5-3.111,3.979-5c4.66,1.68,7.74,4.6,7.74,7.93C62.4-162.539,60.33-160.089,57.03-158.358z"/>
		<g>
			<g>
				<defs>
					<path id="SVGID_61_" d="M33.656-176.229c0.936-1.14,3.041-3.558,3.41-4.009c0.08-0.115,0.179-0.216,0.293-0.299l0.687,0.757
						c0.675,0.795,1.432,1.775,2.195,2.673l0,0c0.272,0.318,0.54,0.635,0.813,0.929l0.447,0.508h-8.272l0.438-0.585L33.656-176.229z
						 M44.866-174.32l-2.38-2.801l-0.916-1.068c-0.354-0.474-0.732-0.926-1.139-1.354l-0.457-0.555
						c-0.185-0.222-1.178-1.419-1.273-1.476c-0.162-0.256-0.355-0.494-0.572-0.707c-0.228-0.302-0.472-0.59-0.732-0.865l-1.195,1.35
						c-0.152,0.15-0.285,0.319-0.395,0.503c-0.058,0-2.902,3.326-3.004,3.513c-0.252,0.256-0.488,0.528-0.707,0.813
						c-0.234,0.28-0.463,0.534-0.712,0.835l-0.706,0.838c-0.258,0.266-0.494,0.551-0.706,0.853l0,0l-0.103,0.115h15.011
						L44.866-174.32z M38.089-183.496c0.164-0.064,0.335-0.107,0.51-0.127l-0.12,0.566
						C38.296-183.147,38.157-183.305,38.089-183.496z M46.82-175.739c-0.153,0.154-0.332,0.281-0.527,0.374
						c-0.268,0.129-0.809-0.075-1.273-0.179c-0.217-0.043-0.229,0-0.33-0.132c-0.15-0.146-0.279-0.314-0.382-0.497L46.82-175.739
						L46.82-175.739z M42.932-177.757c0.052,0,0,0,0.114-0.031h0.083l2.616-0.18c0.146,0.155,0.285,0.318,0.412,0.491l-2.984,0.044
						c-0.076-0.114-0.165-0.197-0.241-0.306V-177.757z M42.429-178.394l3.124-0.635l-0.058,0.526
						c-0.598,0.063-2.442,0.402-2.875,0.377c-0.096-0.109-0.166-0.146-0.191-0.273V-178.394z M40.724-180.384
						c0.096-0.051,1.521-1.272,1.762-1.509c0.051-0.052,0,0,0.064-0.076c0.064-0.077-0.414-0.4-0.452-0.419
						c-0.577,0.53-1.112,1.105-1.603,1.717c0,0.077,0.133,0.229,0.241,0.28L40.724-180.384z M40.998-180.061
						c0.041,0.105,0.109,0.198,0.197,0.269c0.211-0.038,1.91-1.12,2.164-1.272c0.254-0.121,0.488-0.28,0.693-0.472l-0.814-0.153
						l-2.24,1.636V-180.061z M40.425-184.075c-0.243,0.754-0.572,1.478-0.98,2.156c-0.176-0.084-0.319-0.226-0.407-0.4
						c-0.069-0.146,0.07-0.394,0.121-0.547c0.122-0.35,0.255-1.049,0.509-1.113c0.036-0.003,0.072-0.003,0.108,0h0.108
						c0.036-0.009,0.07-0.023,0.102-0.045L40.425-184.075z M47.068-176.331c-0.561,0-1.368-0.135-1.973-0.191l-0.992-0.102
						c-0.242,0-0.242,0-0.356-0.152c-0.084-0.082-0.151-0.179-0.198-0.288l3.182,0.13l0.332,0.469v0.135H47.068z M40.152-181.058
						c-0.121-0.08-0.222-0.187-0.293-0.314c-0.057-0.119,0.045-0.195,0.127-0.33c0.234-0.374,1.082-1.787,1.272-1.971
						c0.165,0.088,0.503,0.521,0.439,0.667l-1.019,1.271c-0.155,0.225-0.328,0.438-0.516,0.636L40.152-181.058z M41.952-178.959
						l4.067-1.4c0.012,0.171-0.021,0.343-0.097,0.497c-0.076,0.209-0.089,0.196-0.369,0.267c-0.388,0.096-0.751,0.203-1.132,0.306
						c-0.383,0.102-2.004,0.585-2.277,0.599C42.044-178.751,41.975-178.847,41.952-178.959L41.952-178.959z M41.488-179.493
						c0.043,0.101,0.105,0.192,0.185,0.267l4.104-1.736c-0.128-0.137-0.291-0.237-0.47-0.293c-0.281-0.109-0.338,0-0.594,0.101
						L41.488-179.493z"/>
				</defs>
				<linearGradient id="SVGID_42_" gradientUnits="userSpaceOnUse" x1="29.8687" y1="-179.1978" x2="47.0679" y2="-179.1978">
					<stop  offset="0" style="stop-color:#E68D13"/>
					<stop  offset="1" style="stop-color:#82027E"/>
				</linearGradient>
				<use xlink:href="#SVGID_61_"  overflow="visible" fill="url(#SVGID_42_)"/>
				<clipPath id="SVGID_43_">
					<use xlink:href="#SVGID_61_"  overflow="visible"/>
				</clipPath>
			</g>
			<g>
				<defs>
					<path id="SVGID_64_" d="M36.932-178.068c-1.782,0.344-1.069,2.145,0.7,1.845c0.637-0.107,1.215-0.586,0.979-1.183
						C38.264-177.979,37.578-178.249,36.932-178.068z"/>
				</defs>
				<linearGradient id="SVGID_44_" gradientUnits="userSpaceOnUse" x1="35.8989" y1="-177.1572" x2="38.665" y2="-177.1572">
					<stop  offset="0" style="stop-color:#E68D13"/>
					<stop  offset="1" style="stop-color:#82027E"/>
				</linearGradient>
				<use xlink:href="#SVGID_64_"  overflow="visible" fill="url(#SVGID_44_)"/>
				<clipPath id="SVGID_45_">
					<use xlink:href="#SVGID_64_"  overflow="visible"/>
				</clipPath>
			</g>
			<g>
				<defs>
					<path id="SVGID_67_" d="M36.958-170.236h0.522c0.057-0.241-0.052-3.112-0.103-3.499h-0.452l-0.279,3.404l0.312,0.102V-170.236z
						 M30.315-173.099c0.153,0,0.413-0.205,0.54-0.287c0.182-0.093,0.355-0.201,0.516-0.324h-1.1l0.044,0.637V-173.099z
						 M39.579-171.979l0.172,0.438c0.241-0.057,0.382-0.139,0.681-0.196c-0.043-0.119-0.098-0.231-0.165-0.339l-0.235-0.323
						c-0.191-0.46-0.426-0.9-0.7-1.316h-0.489l0.737,1.742V-171.979z M42.264-173.392l-0.178-0.167
						c-0.069-0.046-0.132-0.102-0.186-0.165h-0.77c0.302,0.32,0.62,0.625,0.955,0.91l0.509,0.439
						c0.195,0.253,0.434,0.469,0.706,0.637c0.233-0.05,0.444-0.174,0.604-0.35c-0.094-0.127-0.211-0.235-0.344-0.319l-0.268-0.216
						c-0.107-0.075,0-0.031-0.158-0.075c0-0.071,0,0-0.077-0.09c-0.249-0.237-0.52-0.449-0.808-0.637L42.264-173.392z
						 M41.105-172.017l-1.246-1.719h0.579c0.332,0.335,0.638,0.694,0.916,1.074c0.323,0.287,0.614,0.609,0.864,0.961l-0.966-0.082
						l-0.178-0.26L41.105-172.017z M44.224-172.807c-0.127,0-0.262-0.127-0.369-0.197c-0.108-0.069-0.204-0.127-0.369-0.235
						c-0.244-0.143-0.478-0.303-0.7-0.477c0.514-0.125,1.054-0.029,1.495,0.261l-0.057,0.635V-172.807z M33.789-171.75l0.776,0.095
						l0.974-2.068h-0.521c-0.179,0.318-0.389,0.637-0.637,0.967c-0.234,0.322-0.447,0.655-0.636,1.007H33.789z M30.951-171.84
						c-0.147-0.054-0.275-0.152-0.369-0.28c-0.229-0.279-0.043-0.298,0.727-0.847c0.94-0.687,0.89-0.847,1.813-0.743l-2.17,1.844
						V-171.84z M31.861-171.655l1.973-2.068h0.598c-0.238,0.363-0.502,0.711-0.789,1.037c-0.146,0.198-0.261,0.33-0.406,0.517
						C32.771-171.573,33.089-171.7,31.861-171.655z M35.869-170.814c-0.102-0.063-0.24-0.172-0.343-0.249
						c-0.103-0.076-0.292-0.177-0.306-0.286c-0.013-0.107,0.727-2.011,0.803-2.366H36.5l-0.637,2.901H35.869z M38.382-170.63
						l-0.49-3.094h0.445c0.096,0.517,0.352,1.165,0.504,1.72c0.098,0.278,0.176,0.563,0.235,0.853
						c-0.039,0.095-0.56,0.457-0.726,0.496L38.382-170.63z"/>
				</defs>
				<linearGradient id="SVGID_47_" gradientUnits="userSpaceOnUse" x1="30.271" y1="-171.9995" x2="44.2808" y2="-171.9995">
					<stop  offset="0" style="stop-color:#E68D13"/>
					<stop  offset="1" style="stop-color:#82027E"/>
				</linearGradient>
				<use xlink:href="#SVGID_67_"  overflow="visible" fill="url(#SVGID_47_)"/>
				<clipPath id="SVGID_48_">
					<use xlink:href="#SVGID_67_"  overflow="visible"/>
				</clipPath>
			</g>
			<g>
				<defs>
					<path id="SVGID_70_" d="M27.509-176.593c0.521,0,2.385-0.172,3.182-0.222c0.229,0,0.285,0,0.406-0.115
						c0.092-0.082,0.164-0.185,0.211-0.299c-0.313,0-3.182,0-3.367,0.107c-0.176,0.146-0.32,0.325-0.426,0.528H27.509z
						 M28.851-175.009c0.293,0.135,0.235,0.172,0.453,0.191l0.342-0.394C29.375-175.173,29.109-175.104,28.851-175.009
						L28.851-175.009z M32.861-182.301l-0.295-0.299l0,0c-0.154,0.125-0.287,0.276-0.393,0.445c0.175,0.245,0.391,0.461,0.635,0.637
						l0.205,0.191l0.101,0.096l0.134,0.108c0.242,0.273,0.514,0.521,0.809,0.738c0.279-0.167,0.293-0.287,0.146-0.441
						c-0.146-0.15-0.255-0.304-0.414-0.456c-0.276-0.352-0.572-0.688-0.885-1.006L32.861-182.301z M33.948-181.93
						c-0.219-0.249-0.409-0.522-0.566-0.814c-0.057,0-0.401-0.459-0.388-0.599c0.043-0.118,0.116-0.223,0.209-0.306
						c0.211-0.204,0.242-0.159,0.332-0.172c0.164,0.188,0.292,0.403,0.382,0.636c0.031,0.032,0.579,0.969,0.636,1.07
						c0.118,0.17,0.227,0.35,0.325,0.533c0.075,0.146,0.069,0.141-0.058,0.287c-0.057,0.087-0.133,0.158-0.223,0.209
						c-0.236-0.266-0.45-0.555-0.637-0.859L33.948-181.93z M28.998-181.167c0.381-0.809,3.734,1.342,4.295,1.648l-0.229,0.248
						c-0.323-0.071-3.123-1.4-3.613-1.63C29.157-181.033,28.972-181.085,28.998-181.167L28.998-181.167z M29.355-179.735
						c-0.272-0.044-0.538-0.124-0.79-0.236c-0.118-0.189-0.149-0.42-0.089-0.636c0.479,0.126,0.947,0.291,1.399,0.49l0.636,0.234
						l0.325,0.114c0.172,0.059,0.14,0,0.255,0.122c0.113,0.121,1.546,0.541,1.756,0.637l-0.217,0.261l-1.8-0.549
						c-0.501-0.116-0.991-0.271-1.47-0.457L29.355-179.735z M32.357-181.136l0.713,0.528c0.246,0.158,0.474,0.342,0.681,0.547
						l-0.203,0.262c-0.921-0.543-1.813-1.133-2.673-1.769c0.226-0.106,0.471-0.167,0.72-0.179c0.158,0.107,0.255,0.19,0.394,0.292
						C32.126-181.367,32.251-181.26,32.357-181.136L32.357-181.136z M34.845-182.999l0.445,1.061c0.121-0.037,0.064,0,0.166-0.113
						c0.102-0.114,0.292-0.313,0.267-0.484c-0.054-0.255-0.131-0.502-0.229-0.743c0-0.16-0.076-0.49-0.196-0.573
						c-0.122-0.081-0.637-0.172-0.637-0.21c0-0.037,0,0,0,0h-0.197c0,0.186,0.134,0.375,0.197,0.548
						c0.058,0.187,0.139,0.366,0.241,0.535L34.845-182.999z M29.998-178.546l2.156,0.361l0.234-0.284
						c-0.493-0.134-0.996-0.239-1.501-0.319c-0.153-0.063-0.313-0.109-0.477-0.139c-0.339-0.083-1.362-0.325-1.572-0.337
						l0.159,0.565L29.998-178.546L29.998-178.546z M28.609-177.699c0.086-0.182,0.197-0.349,0.332-0.497l2.945,0.299
						c-0.051,0.159-0.134,0.179-0.217,0.326L28.609-177.699z M27.541-175.969c0.092,0.248,0.299,0.435,0.555,0.503l1.965-0.394
						c0.246-0.098,0.443-0.291,0.547-0.535L27.541-175.969z"/>
				</defs>
				<linearGradient id="SVGID_50_" gradientUnits="userSpaceOnUse" x1="27.5093" y1="-179.4482" x2="35.7256" y2="-179.4482">
					<stop  offset="0" style="stop-color:#E68D13"/>
					<stop  offset="1" style="stop-color:#82027E"/>
				</linearGradient>
				<use xlink:href="#SVGID_70_"  overflow="visible" fill="url(#SVGID_50_)"/>
				<clipPath id="SVGID_51_">
					<use xlink:href="#SVGID_70_"  overflow="visible"/>
				</clipPath>
			</g>
		</g>
	</g>
</g>
<g>
	<g>
		<linearGradient id="SVGID_53_" gradientUnits="userSpaceOnUse" x1="141.6084" y1="-56.333" x2="191.3789" y2="-56.333">
			<stop  offset="0" style="stop-color:#E68D13"/>
			<stop  offset="1" style="stop-color:#82027E"/>
		</linearGradient>
		<path fill="url(#SVGID_53_)" d="M182.648-55.494c0.04-0.25,0.061-0.5,0.061-0.75v-2.33c0-2.41-1.51-4.62-4.03-6.359
			c0.08-0.29-0.021-0.681-0.03-0.9c-2.67-4.12-7.1-6.93-12.289-7.27v-1.511c3.299,0.181,6.569-0.979,9.09-3.5
			c3-3,4.09-7.18,3.27-11.04c-3.859-0.83-8.051,0.261-11.051,3.261c-1.1,1.109-1.949,2.38-2.54,3.729
			c-0.579-1.35-1.43-2.62-2.529-3.729c-3-3-7.189-4.091-11.05-3.261c-0.82,3.86,0.271,8.04,3.271,11.04
			c2.549,2.551,5.85,3.721,9.199,3.49v1.521c-5.199,0.34-9.59,3.149-12.25,7.27c0,0.1,0.01,0.19,0.02,0.28
			c-1.949,1.13-3.42,2.52-4.26,4.06c-3.64,1.84-5.92,4.5-5.92,7.46v2.34c0,3.03,2.41,5.761,6.221,7.601
			c-0.101,0.42-0.15,0.85-0.15,1.3v2.33c0,2.05,1.1,3.97,3,5.56v1.591c0,5.56,8.05,10.069,17.979,10.069
			c9.92,0,17.971-4.51,17.971-10.069v-2.33c0-0.65-0.11-1.28-0.32-1.891c3.141-1.81,5.07-4.279,5.07-7v-2.34
			C191.379-50.534,187.879-53.744,182.648-55.494z M169.429-84.133c2.09-2.09,4.771-3.08,7.11-2.851
			c0.229,2.341-0.76,5.021-2.84,7.11c-2.09,2.09-4.771,3.07-7.11,2.851C166.359-79.364,167.339-82.053,169.429-84.133z
			 M163.628-77.074c-2.319,0.221-4.969-0.76-7.039-2.819c-2.061-2.07-3.04-4.721-2.811-7.04c2.311-0.23,4.971,0.75,7.041,2.819
			C162.878-82.043,163.858-79.393,163.628-77.074z M166.379-70.654c3.49,0.25,6.359,1.591,8.449,3.75
			c-2.449-0.93-5.34-1.529-8.449-1.689V-70.654z M164.028-70.624v2c-2.83,0.061-5.49,0.49-7.83,1.2
			C158.208-69.253,160.858-70.404,164.028-70.624z M152.358-64.973c0.83-0.5,1.76-0.96,2.77-1.351c2.551-0.989,5.601-1.6,8.9-1.66
			c0.23-0.02,0.471-0.02,0.711-0.02c0.549,0,1.1,0.01,1.64,0.05c3.609,0.19,6.88,1.021,9.46,2.29c0.56,0.271,1.09,0.561,1.569,0.88
			c2.601,1.66,4.181,3.83,4.181,6.21c0,0.891-0.22,1.75-0.64,2.57c-0.101,0.21-0.211,0.4-0.351,0.6c-0.681,1.08-1.72,2.08-3.03,2.94
			c-0.539,0.36-1.13,0.69-1.77,1c-0.141,0.07-0.28,0.14-0.43,0.2c-0.311,0.149-0.621,0.279-0.951,0.41
			c-2.739,1.08-6.079,1.71-9.679,1.71c-2.58,0-5.031-0.32-7.211-0.9c-0.34-0.09-0.68-0.19-1.01-0.29v-0.01
			c-0.18-0.061-0.359-0.12-0.54-0.18c-0.34-0.11-0.68-0.24-1-0.37c-4.29-1.7-7.101-4.5-7.101-7.681c0-0.89,0.221-1.76,0.641-2.569
			c0.189-0.38,0.42-0.73,0.689-1.101C149.969-63.253,151.038-64.183,152.358-64.973z M142.729-54.034c0-2.42,1.63-4.62,4.31-6.29
			c-0.189,0.57-0.279,1.15-0.279,1.75v2.33c0,2.721,1.93,5.2,5.08,7.01c0.25,0.15,0.52,0.301,0.8,0.44h0.01
			c0.87,0.44,1.82,0.83,2.83,1.17c0.351,0.12,0.72,0.23,1.091,0.34c2.449,0.7,5.229,1.101,8.17,1.101c1.839,0,3.609-0.16,5.279-0.44
			c-0.819,0.36-1.7,0.68-2.63,0.95c-2.069,0.61-4.38,0.99-6.84,1.05c-0.32,0.021-0.64,0.03-0.96,0.03c-0.881,0-1.74-0.04-2.59-0.11
			c-0.53-0.05-1.051-0.109-1.57-0.17c-1.98-0.29-3.811-0.77-5.439-1.41c-0.32-0.12-0.631-0.25-0.931-0.39
			C145.198-48.393,142.729-51.043,142.729-54.034z M151.169-37.963c-1.5-1.43-2.37-3.07-2.37-4.83c0-0.29,0.021-0.56,0.069-0.83
			c1.74,0.73,3.721,1.28,5.871,1.62c0.399,0.06,0.81,0.13,1.219,0.16c0.051,0.01,0.091,0.01,0.141,0.02
			c2.109,4.24,9.061,7.36,17.31,7.36h0.15c-2.359,0.69-5.05,1.09-7.899,1.09c-5.601,0-10.561-1.52-13.621-3.87
			C151.729-37.484,151.438-37.713,151.169-37.963z M168.658-26.213c-8.22,0-15.069-3.29-16.56-7.65c3.29,2.11,8.15,3.45,13.561,3.45
			c6.68,0,12.499-2.04,15.6-5.07c1.489-0.39,2.86-0.92,4.08-1.52c0.11,0.44,0.17,0.9,0.17,1.36
			C185.509-30.433,177.959-26.213,168.658-26.213z M184.889-39.963c-0.29,0.14-0.58,0.29-0.891,0.42
			c-0.159,0.08-0.319,0.15-0.489,0.22c-0.94,0.4-1.96,0.74-3.04,1.03c-2.141,0.55-4.54,0.86-7.061,0.86
			c-5.85,0-10.999-1.67-14.02-4.2h0.2c5.15,0,9.79-1.21,13.069-3.16c0.291-0.17,0.58-0.35,0.851-0.54c1.479-1,2.61-2.18,3.3-3.46
			c0.34-0.17,0.67-0.36,0.99-0.54c0.26-0.16,0.5-0.31,0.74-0.46c2.08-1.41,3.5-3.12,3.979-5c4.66,1.67,7.74,4.59,7.74,7.92
			C190.259-44.143,188.188-41.694,184.889-39.963z"/>
		<g>
			<g>
				<defs>
					<path id="SVGID_74_" d="M161.513-57.83c0.936-1.14,3.041-3.558,3.41-4.009c0.082-0.115,0.18-0.216,0.293-0.299l0.688,0.757
						c0.675,0.795,1.432,1.775,2.195,2.673l0,0c0.272,0.318,0.54,0.635,0.813,0.929l0.447,0.508h-8.272l0.439-0.585L161.513-57.83z
						 M172.724-55.92l-2.38-2.801l-0.916-1.068c-0.354-0.474-0.732-0.926-1.139-1.354l-0.457-0.555
						c-0.185-0.222-1.178-1.419-1.273-1.476c-0.162-0.256-0.355-0.494-0.573-0.707c-0.227-0.302-0.471-0.59-0.731-0.865l-1.195,1.35
						c-0.152,0.15-0.284,0.319-0.396,0.503c-0.057,0-2.9,3.326-3.002,3.513c-0.252,0.256-0.488,0.528-0.707,0.813
						c-0.235,0.28-0.465,0.534-0.713,0.835l-0.707,0.838c-0.256,0.266-0.492,0.551-0.705,0.853l0,0l-0.102,0.115h15.01
						L172.724-55.92z M165.948-65.096c0.163-0.064,0.334-0.107,0.509-0.127l-0.12,0.566
						C166.154-64.748,166.015-64.905,165.948-65.096z M174.678-57.339c-0.153,0.154-0.332,0.281-0.527,0.374
						c-0.268,0.129-0.809-0.075-1.273-0.179c-0.217-0.043-0.229,0-0.33-0.132c-0.15-0.146-0.279-0.314-0.382-0.497L174.678-57.339
						L174.678-57.339z M170.79-59.357c0.052,0,0,0,0.114-0.031h0.083l2.616-0.18c0.146,0.155,0.285,0.318,0.412,0.491l-2.984,0.044
						c-0.076-0.114-0.165-0.197-0.241-0.306V-59.357z M170.287-59.994l3.124-0.635l-0.058,0.526
						c-0.598,0.063-2.442,0.402-2.875,0.377c-0.096-0.109-0.166-0.146-0.191-0.273V-59.994z M168.582-61.984
						c0.096-0.051,1.521-1.272,1.762-1.509c0.051-0.052,0,0,0.064-0.076c0.064-0.077-0.414-0.4-0.452-0.419
						c-0.577,0.53-1.112,1.105-1.603,1.717c0,0.077,0.133,0.229,0.241,0.28L168.582-61.984z M168.855-61.661
						c0.041,0.105,0.109,0.198,0.197,0.269c0.211-0.038,1.91-1.12,2.164-1.272c0.254-0.121,0.488-0.28,0.693-0.472l-0.814-0.153
						l-2.24,1.636V-61.661z M168.283-65.675c-0.243,0.754-0.572,1.478-0.98,2.156c-0.176-0.084-0.319-0.226-0.407-0.4
						c-0.069-0.146,0.07-0.394,0.121-0.547c0.122-0.35,0.255-1.049,0.509-1.113c0.036-0.003,0.072-0.003,0.108,0h0.108
						c0.036-0.009,0.07-0.023,0.102-0.045L168.283-65.675z M174.926-57.931c-0.561,0-1.368-0.135-1.973-0.191l-0.992-0.102
						c-0.242,0-0.242,0-0.356-0.152c-0.084-0.082-0.151-0.179-0.198-0.288l3.182,0.13l0.332,0.469v0.135H174.926z M168.01-62.658
						c-0.121-0.08-0.222-0.187-0.293-0.314c-0.057-0.119,0.045-0.195,0.127-0.33c0.234-0.374,1.082-1.787,1.272-1.971
						c0.165,0.088,0.503,0.521,0.439,0.667l-1.019,1.271c-0.155,0.225-0.328,0.438-0.516,0.636L168.01-62.658z M169.81-60.559
						l4.067-1.4c0.012,0.171-0.021,0.343-0.097,0.497c-0.076,0.209-0.089,0.196-0.369,0.267c-0.388,0.096-0.751,0.203-1.132,0.306
						c-0.383,0.102-2.004,0.585-2.277,0.599C169.902-60.351,169.833-60.447,169.81-60.559L169.81-60.559z M169.346-61.093
						c0.043,0.101,0.105,0.192,0.185,0.267l4.104-1.736c-0.128-0.137-0.291-0.237-0.47-0.293c-0.281-0.109-0.338,0-0.594,0.101
						L169.346-61.093z"/>
				</defs>
				<linearGradient id="SVGID_54_" gradientUnits="userSpaceOnUse" x1="157.7275" y1="-60.7979" x2="174.9258" y2="-60.7979">
					<stop  offset="0" style="stop-color:#E68D13"/>
					<stop  offset="1" style="stop-color:#82027E"/>
				</linearGradient>
				<use xlink:href="#SVGID_74_"  overflow="visible" fill="url(#SVGID_54_)"/>
				<clipPath id="SVGID_56_">
					<use xlink:href="#SVGID_74_"  overflow="visible"/>
				</clipPath>
			</g>
			<g>
				<defs>
					<path id="SVGID_77_" d="M164.79-59.668c-1.781,0.344-1.069,2.145,0.7,1.845c0.637-0.107,1.215-0.586,0.979-1.183
						C166.122-59.579,165.435-59.849,164.79-59.668z"/>
				</defs>
				<linearGradient id="SVGID_57_" gradientUnits="userSpaceOnUse" x1="163.7573" y1="-58.7568" x2="166.5229" y2="-58.7568">
					<stop  offset="0" style="stop-color:#E68D13"/>
					<stop  offset="1" style="stop-color:#82027E"/>
				</linearGradient>
				<use xlink:href="#SVGID_77_"  overflow="visible" fill="url(#SVGID_57_)"/>
				<clipPath id="SVGID_58_">
					<use xlink:href="#SVGID_77_"  overflow="visible"/>
				</clipPath>
			</g>
			<g>
				<defs>
					<path id="SVGID_80_" d="M164.815-51.836h0.521c0.058-0.241-0.051-3.112-0.102-3.499h-0.451l-0.281,3.404l0.313,0.102V-51.836z
						 M158.173-54.699c0.152,0,0.413-0.205,0.541-0.287c0.182-0.093,0.354-0.201,0.516-0.324h-1.102l0.045,0.637V-54.699z
						 M167.437-53.58l0.172,0.438c0.241-0.057,0.382-0.139,0.681-0.196c-0.043-0.119-0.098-0.231-0.165-0.339L167.889-54
						c-0.191-0.46-0.426-0.9-0.7-1.316h-0.489l0.737,1.742V-53.58z M170.122-54.992l-0.178-0.167
						c-0.069-0.046-0.132-0.102-0.186-0.165h-0.77c0.302,0.32,0.62,0.625,0.955,0.91l0.509,0.439
						c0.195,0.253,0.434,0.469,0.706,0.637c0.233-0.05,0.444-0.174,0.604-0.35c-0.094-0.127-0.211-0.235-0.344-0.319l-0.268-0.216
						c-0.107-0.075,0-0.031-0.158-0.075c0-0.071,0,0-0.077-0.09c-0.249-0.237-0.52-0.449-0.808-0.637L170.122-54.992z
						 M168.963-53.617l-1.246-1.719h0.579c0.332,0.335,0.638,0.694,0.916,1.074c0.323,0.287,0.614,0.609,0.864,0.961l-0.966-0.082
						l-0.178-0.26L168.963-53.617z M172.082-54.407c-0.127,0-0.262-0.127-0.369-0.197c-0.108-0.069-0.204-0.127-0.369-0.235
						c-0.244-0.143-0.478-0.303-0.7-0.477c0.514-0.125,1.054-0.029,1.495,0.261l-0.057,0.635V-54.407z M161.646-53.35l0.776,0.095
						l0.973-2.068h-0.52c-0.18,0.318-0.39,0.637-0.637,0.967c-0.236,0.322-0.449,0.655-0.637,1.007H161.646z M158.809-53.44
						c-0.147-0.054-0.276-0.152-0.368-0.28c-0.229-0.279-0.045-0.298,0.725-0.847c0.941-0.687,0.891-0.847,1.813-0.743l-2.17,1.844
						V-53.44z M159.719-53.255l1.972-2.068h0.599c-0.239,0.363-0.503,0.711-0.788,1.037c-0.146,0.198-0.262,0.33-0.408,0.517
						C160.628-53.173,160.946-53.3,159.719-53.255z M163.728-52.415c-0.102-0.063-0.242-0.172-0.344-0.249
						c-0.102-0.076-0.293-0.177-0.306-0.286c-0.013-0.107,0.726-2.011,0.802-2.366h0.478l-0.637,2.901H163.728z M166.24-52.23
						l-0.489-3.094h0.444c0.096,0.517,0.352,1.165,0.504,1.72c0.098,0.278,0.176,0.563,0.235,0.853
						c-0.039,0.095-0.56,0.457-0.726,0.496L166.24-52.23z"/>
				</defs>
				<linearGradient id="SVGID_59_" gradientUnits="userSpaceOnUse" x1="158.1279" y1="-53.5996" x2="172.1387" y2="-53.5996">
					<stop  offset="0" style="stop-color:#E68D13"/>
					<stop  offset="1" style="stop-color:#82027E"/>
				</linearGradient>
				<use xlink:href="#SVGID_80_"  overflow="visible" fill="url(#SVGID_59_)"/>
				<clipPath id="SVGID_60_">
					<use xlink:href="#SVGID_80_"  overflow="visible"/>
				</clipPath>
			</g>
			<g>
				<defs>
					<path id="SVGID_83_" d="M155.366-58.193c0.522,0,2.387-0.172,3.182-0.222c0.229,0,0.286,0,0.406-0.115
						c0.094-0.082,0.166-0.185,0.211-0.299c-0.312,0-3.182,0-3.365,0.107c-0.176,0.146-0.32,0.325-0.426,0.528H155.366z
						 M156.709-56.609c0.294,0.135,0.235,0.172,0.452,0.191l0.344-0.394C157.233-56.773,156.967-56.704,156.709-56.609
						L156.709-56.609z M160.718-63.901l-0.293-0.299l0,0c-0.155,0.125-0.288,0.276-0.395,0.445c0.176,0.245,0.391,0.461,0.637,0.637
						l0.204,0.191l0.101,0.096l0.135,0.108c0.242,0.273,0.513,0.521,0.807,0.738c0.281-0.167,0.294-0.287,0.147-0.441
						c-0.147-0.15-0.255-0.304-0.414-0.456c-0.276-0.352-0.571-0.688-0.884-1.006L160.718-63.901z M161.806-63.53
						c-0.219-0.249-0.408-0.522-0.566-0.814c-0.057,0-0.4-0.459-0.389-0.599c0.043-0.118,0.117-0.223,0.211-0.306
						c0.209-0.204,0.242-0.159,0.33-0.172c0.164,0.188,0.293,0.403,0.383,0.636c0.031,0.032,0.578,0.969,0.636,1.07
						c0.118,0.17,0.227,0.35,0.325,0.533c0.075,0.146,0.069,0.141-0.058,0.287c-0.056,0.087-0.134,0.158-0.223,0.209
						c-0.237-0.266-0.45-0.555-0.637-0.859L161.806-63.53z M156.855-62.767c0.382-0.809,3.735,1.342,4.296,1.648l-0.23,0.248
						c-0.324-0.071-3.123-1.4-3.613-1.63C157.015-62.633,156.831-62.685,156.855-62.767L156.855-62.767z M157.213-61.335
						c-0.272-0.044-0.538-0.124-0.79-0.236c-0.118-0.189-0.15-0.42-0.089-0.636c0.479,0.126,0.947,0.291,1.399,0.49l0.637,0.234
						l0.324,0.114c0.172,0.059,0.14,0,0.254,0.122c0.115,0.121,1.547,0.541,1.758,0.637l-0.217,0.261l-1.801-0.549
						c-0.5-0.116-0.992-0.271-1.471-0.457L157.213-61.335z M160.215-62.736l0.714,0.528c0.244,0.158,0.473,0.342,0.68,0.547
						l-0.203,0.262c-0.921-0.543-1.813-1.133-2.673-1.769c0.226-0.106,0.47-0.167,0.72-0.179c0.158,0.107,0.255,0.19,0.393,0.292
						C159.985-62.967,160.108-62.86,160.215-62.736L160.215-62.736z M162.702-64.599l0.445,1.061c0.121-0.037,0.064,0,0.167-0.113
						c0.101-0.114,0.292-0.313,0.267-0.484c-0.055-0.255-0.131-0.502-0.229-0.743c0-0.16-0.077-0.49-0.197-0.573
						c-0.121-0.081-0.637-0.172-0.637-0.21c0-0.037,0,0,0,0h-0.197c0,0.186,0.134,0.375,0.197,0.548
						c0.058,0.187,0.139,0.366,0.241,0.535L162.702-64.599z M157.854-60.146l2.157,0.361l0.235-0.284
						c-0.494-0.134-0.996-0.239-1.502-0.319c-0.152-0.063-0.314-0.109-0.477-0.139c-0.338-0.083-1.361-0.325-1.572-0.337
						l0.159,0.565L157.854-60.146L157.854-60.146z M156.468-59.299c0.084-0.182,0.195-0.349,0.331-0.497l2.946,0.299
						c-0.051,0.159-0.135,0.179-0.218,0.326L156.468-59.299z M155.398-57.569c0.093,0.248,0.299,0.435,0.554,0.503l1.966-0.394
						c0.247-0.098,0.444-0.291,0.548-0.535L155.398-57.569z"/>
				</defs>
				<linearGradient id="SVGID_62_" gradientUnits="userSpaceOnUse" x1="155.3662" y1="-61.0483" x2="163.5835" y2="-61.0483">
					<stop  offset="0" style="stop-color:#E68D13"/>
					<stop  offset="1" style="stop-color:#82027E"/>
				</linearGradient>
				<use xlink:href="#SVGID_83_"  overflow="visible" fill="url(#SVGID_62_)"/>
				<clipPath id="SVGID_63_">
					<use xlink:href="#SVGID_83_"  overflow="visible"/>
				</clipPath>
			</g>
		</g>
	</g>
</g>
</svg>
