<?xml version="1.0" encoding="utf-8"?>
<!-- Generator: Adobe Illustrator 24.3.0, SVG Export Plug-In . SVG Version: 6.00 Build 0)  -->
<svg version="1.1" id="Слой_1" xmlns="http://www.w3.org/2000/svg" xmlns:xlink="http://www.w3.org/1999/xlink" x="0px" y="0px"
	 viewBox="0 0 1200 292.9" style="enable-background:new 0 0 1200 292.9;" xml:space="preserve">
<style type="text/css">
	.st0{fill:#8AA4BF;}
	.st1{fill-rule:evenodd;clip-rule:evenodd;fill:#8AA4BF;}
	.st2{display:none;}
	.st3{fill:#8F6C84;}
</style>
<g>
	<path class="st0" d="M200.1,102.5c-22.4,32-44.9,64-67.4,96c-0.9,1.2-1.8,2.4-2.9,4c-0.9-2-0.9-3.6-1-5.2
		c-1.7-33.8-1.5-67.7,0-101.5c0.2-3.7,1.6-6.2,4.7-8.2c18.2-12,37.1-22.8,56.1-33.5c11.4-6.4,22.9-12.9,34.9-18.2
		c0.2-0.1,0.4-0.4,0.5-0.6h2.7c12.1,5.7,23.9,12,35.6,18.5c10.2,5.7,20.2,11.6,30.4,17.4c1.7,1,2.2,1.6,0.9,3.4
		c-17.1,24.4-33.9,48.9-51.1,73.2c-0.5,0.8-1.1,1.5-1.6,2.3v-49.8h-0.9c-0.6-0.1-1.1,0-1.6,0c-11.7,0-23.3,0-35-0.1
		C202.3,100.3,201.2,100.9,200.1,102.5z"/>
	<path class="st0" d="M324.7,194.6c-0.3,5.8-2.5,9.4-7.4,12.5c-19.4,12.4-39.3,23.7-59.4,34.8c-9.4,5.2-18.8,10.4-28.6,14.8
		c-1.8,0.8-3.3,0.8-5.1-0.2c-21.6-11.6-43-23.5-64.4-35.5c-1.8-1-2-1.6-0.8-3.4c16.8-24,33.4-48.1,50.3-72c0.8-1.1,1.6-2.2,2.3-3.3
		v49.7c0,0.1-0.1,0.1-0.1,0.2c0,0,0.1,0.1,0.1,0.1c0,0,0.1,0.1,0.1,0.1c0.7,0.5,1.4,0.2,2.1,0.2c11.8,0,23.5,0,35.3,0.1
		c1.8,0,2.8-0.6,3.7-2c18.6-26.5,37.2-53,55.8-79.6c4.7-6.7,9.4-13.4,14.2-20.2c1.1,1,1,2.1,1,3.1c1.3,16.3,1.5,32.7,1.6,49.1
		C325.6,160.4,325.4,177.5,324.7,194.6z"/>
	<path class="st0" d="M1046.5,176.3c-1.2,0-1.6,1.1-2.3,1.7c-16,14.8-38.2,17.7-56.1,7.2c-16.5-9.8-24.7-29.4-20.5-49.3
		c3.9-18.2,19.5-32.2,38.3-34.3c14.7-1.7,27.5,2.6,38.6,12.4c1.4,1.3,1.8,2.1,0.4,3.7c-2.9,3.4-5.7,6.9-8.4,10.4
		c-1.1,1.4-1.7,1.5-3,0.1c-6.9-7.2-15.2-11.2-25.5-9.4c-13.2,2.3-22.4,14.4-21.6,28.4c0.9,15.4,12.6,26.8,27,26.2
		c7.7-0.3,14.2-3.7,19.8-8.8c1.6-1.5,2.3-1.1,3.6,0.3c3.2,3.4,5.9,7.3,9.7,10.3C1046.5,175.6,1046.5,176,1046.5,176.3z"/>
	<path class="st0" d="M863.8,143.8c0.1,0.1,0.2,0.2,0.3,0.3c10.5,3.3,16,10,16.5,20.2c0.6,10.3-4.3,18.1-14.1,22.5
		c-4.5,2-9.2,3.2-14,3.2c-14.4,0.2-28.8,0.1-43.2,0.2c-1.8,0-2.1-0.7-2.1-2.3c0-27.6,0-55.3,0-82.9c0-1.7,0.4-2.4,2.3-2.4
		c13.4,0.1,26.8,0,40.2,0.1c6.4,0.1,12.5,1.4,18,4.7c7.3,4.4,10.6,10.9,9.7,19.3c-0.8,8-5.2,13.4-12.6,16.3
		C864.4,143.1,863.9,143.1,863.8,143.8z M838.1,174C838.1,174,838.1,174,838.1,174c2.8,0,5.7,0,8.5,0c3.2-0.1,6.4-0.5,9.2-2.2
		c3.4-2,5-4.9,4.9-8.8c-0.1-3.8-2.1-6.3-5.3-8c-2.3-1.2-4.8-1.7-7.4-1.7c-6.4,0-12.8,0-19.1-0.1c-1.7,0-2.2,0.6-2.2,2.2
		c0.1,5.5,0.1,10.9,0,16.4c0,1.9,0.7,2.3,2.4,2.3C832.1,174,835.1,174,838.1,174z M838,137.8c0-0.1,0-0.1,0-0.2
		c3.5,0,7.1,0.3,10.6-0.1c6.9-0.7,10.7-6.4,8.6-12.6c-1.5-4.6-5.3-6.1-9.6-6.3c-6.4-0.2-12.7-0.1-19.1-0.1c-1.4,0-1.9,0.5-1.9,1.9
		c0.1,5.1,0.1,10.2,0,15.3c0,1.6,0.6,2.1,2.1,2C831.8,137.7,834.9,137.8,838,137.8z"/>
	<path class="st0" d="M630.5,118.4c-2.5,8-5,15.8-7.4,23.6c-4.8,15.3-9.6,30.5-14.3,45.8c-0.5,1.6-1.2,2.4-3,2.3
		c-2.5-0.2-5.1-0.2-7.7,0c-1.8,0.1-2.5-0.6-3-2.3c-9.1-27.6-18.2-55.3-27.4-82.9c-0.7-2.2-0.2-2.7,1.9-2.5c2.5,0.1,4.9,0.2,7.4,0
		c2-0.1,2.8,0.6,3.4,2.5c6.7,22.4,13.6,44.7,20.4,67.1c0.4,1.3,0.9,2.7,1.3,4.2c1.1-0.9,1.1-1.9,1.4-2.8
		c6.9-22.7,13.8-45.4,20.6-68.2c0.6-2.1,1.4-3.1,3.7-2.8c3,0.4,6.7-1.2,8.7,0.6c1.9,1.7,2.1,5.3,2.9,8c6.4,20.9,12.7,41.8,19.1,62.6
		c0.3,0.9,0.6,1.7,1.1,3.2c1.4-4.7,2.7-8.9,4-13c5.9-19.5,11.8-39,17.6-58.5c0.7-2.4,1.7-3.2,4.2-3c2.1,0.2,4.2,0.2,6.3,0
		c2.3-0.2,2.8,0.4,2,2.7c-3.4,10-6.7,20-10.1,30c-5.8,17.4-11.6,34.9-17.3,52.3c-0.6,1.9-1.4,2.9-3.6,2.7c-2.4-0.2-4.9-0.2-7.4,0
		c-1.8,0.1-2.5-0.7-3-2.3c-6.7-22.1-13.5-44.2-20.3-66.2C631.6,120.6,631.5,119.5,630.5,118.4z"/>
	<path class="st0" d="M456.5,169.7c0.7-1.3,0.4-2.3,0.4-3.3c0-20.3,0.1-40.6,0-60.9c0-2.5,0.7-3.4,3.2-3.2c2.2,0.2,4.4,0.1,6.6,0
		c1.6-0.1,2.2,0.6,2,2.1c0,0.5,0,0.9,0,1.4c0,26.9,0,53.8,0.1,80.8c0,2.7-0.6,3.2-3.4,3.6c-6.4,0.8-10.1-1.8-13.7-7
		c-13.5-19.4-27.6-38.4-41.5-57.6c-0.6-0.9-1.3-1.7-2.3-3.2c-0.1,1.6-0.2,2.6-0.2,3.5c0,20.3,0,40.6,0,60.9c0,2.5-0.6,3.5-3.2,3.2
		c-2.2-0.2-4.4-0.1-6.6,0c-1.6,0.1-2.4-0.5-2.2-2.2c0.1-0.4,0-0.9,0-1.4c0-26.9,0-53.8-0.1-80.8c0-2.5,0.6-3.1,3.2-3.5
		c6.6-0.9,10.4,1.8,14.2,7.2c13.5,19.3,27.5,38.3,41.4,57.3C455,167.8,455.6,168.6,456.5,169.7z"/>
	<path class="st0" d="M492.1,146.3c0-13.6,0.1-27.3-0.1-40.9c0-2.3,0.6-2.9,2.9-2.9c18,0.1,36.1,0.1,54.1,0c2.3,0,3.1,0.6,2.9,2.9
		c-0.3,2.6,1.1,5.9-0.6,7.6c-1.6,1.5-4.9,0.4-7.4,0.4c-12.4,0-24.8,0.1-37.2,0c-2.3,0-2.9,0.7-2.8,2.9c0.1,7.2,0.1,14.4,0,21.6
		c0,2.1,0.6,2.6,2.6,2.6c12.6-0.1,25.2,0,37.7-0.1c2.2,0,2.9,0.7,2.7,2.8c-0.2,1.7-0.2,3.5,0,5.2c0.2,2.3-0.5,3.1-3,3.1
		c-12.3-0.1-24.6,0-36.9-0.1c-2.5,0-3.3,0.6-3.2,3.1c0.2,7.3,0.2,14.6,0,21.8c-0.1,2.4,0.5,3.1,3,3.1c14.5-0.1,29,0,43.5-0.1
		c2.4,0,3.4,0.6,3.1,3c-0.3,2.5,1,5.7-0.5,7.4c-1.6,1.7-4.8,0.5-7.4,0.5c-16.9,0.1-33.7,0-50.6,0.1c-2.3,0-2.9-0.7-2.9-2.9
		C492.1,173.6,492.1,160,492.1,146.3z"/>
	<path class="st0" d="M926.1,102.5c11,0,22,0.1,33.1-0.1c2.3,0,3,0.7,2.9,2.9c-0.2,3.6-0.2,7.3,0,10.9c0.1,2.2-0.5,3-2.9,2.9
		c-6.8-0.1-13.7,0-20.5-0.1c-2.4-0.1-3.1,0.5-3.1,3c0.1,21.5,0,43.1,0.1,64.6c0,2.6-0.7,3.5-3.3,3.3c-4.5-0.2-8.9-0.2-13.4,0
		c-2.2,0.1-2.7-0.7-2.7-2.8c0.1-21.5,0-43.1,0-64.6c0-3.5,0-3.5-3.6-3.5c-6.6,0-13.1-0.1-19.7,0.1c-2.5,0.1-3.1-0.8-3-3.1
		c0.2-3.5,0.2-7.1,0-10.6c-0.1-2.4,0.5-3.1,3-3.1C904.1,102.6,915.1,102.5,926.1,102.5z"/>
	<path class="st0" d="M734.3,190.9c-11-0.2-21.7-4.4-31.1-12.3c-1.3-1.1-1.6-1.9-0.7-3.4c1.3-2.1,2.4-4.3,3.3-6.6
		c0.8-1.7,1.3-1.6,2.6-0.4c6.9,6.3,15.1,10.1,24.4,11.1c4.9,0.5,9.7,0.1,14.2-2.1c8.7-4.2,9.8-14.2,2.2-20.2
		c-4-3.1-8.8-4.3-13.4-5.9c-5.3-1.7-10.6-3.3-15.7-5.6c-8.6-4-13.6-10.5-13.5-20.2c0-9.6,4.5-16.6,13.1-20.2
		c15.4-6.6,30.3-4.1,44.5,4.1c1.2,0.7,1.1,1.4,0.6,2.5c-1.2,2.5-2.4,4.9-3.4,7.4c-0.6,1.6-1.3,1.4-2.6,0.7
		c-7.3-4.4-15.2-6.9-23.9-6.7c-3.6,0.1-7.1,0.7-10.2,2.6c-5.6,3.4-6.7,10.9-2.3,15.8c2.4,2.6,5.4,4.3,8.7,5.5
		c7,2.5,14.1,4.9,21.1,7.6c9.5,3.7,15.1,10.4,15.1,21.1c0,10.1-5.2,17.8-15,22C746.9,190,741.3,190.9,734.3,190.9z"/>
	<path class="st3" d="M211.8,192.5h-0.1v-0.1C211.7,192.4,211.8,192.5,211.8,192.5z"/>
</g>
</svg>
