<?xml version="1.0" encoding="utf-8"?>
<!-- Generator: Adobe Illustrator 24.3.0, SVG Export Plug-In . SVG Version: 6.00 Build 0)  -->
<svg version="1.1" id="Слой_1" xmlns="http://www.w3.org/2000/svg" xmlns:xlink="http://www.w3.org/1999/xlink" x="0px" y="0px"
	 viewBox="0 0 1200 292.9" style="enable-background:new 0 0 1200 292.9;" xml:space="preserve">
<style type="text/css">
	.st0{fill:#8AA4BF;}
	.st1{fill-rule:evenodd;clip-rule:evenodd;fill:#8AA4BF;}
	.st2{display:none;}
	.st3{fill:#8F6C84;}
</style>
<g>
	<g>
		<g transform="translate(-72.063 127.8664) scale(.63072)">
			<path class="st0" d="M301.9-3.9h44.5l25.9,66.4l26.3-66.4h43.4l-65.3,157.1h-43.6l17.9-41.6L301.9-3.9z M487.3-6.5
				c-33.5,0-54.6,30-54.6,59.9c0,33.6,23.2,60.3,54,60.3c23,0,31.6-14,31.6-14v10.9h38.9V-3.9h-38.9V6.6
				C518.3,6.6,508.6-6.5,487.3-6.5L487.3-6.5z M495.5,30.3c15.4,0,23.4,12.2,23.4,23.2c0,11.9-8.5,23.5-23.4,23.5
				C483.2,77.1,472,67,472,54C472,40.9,481,30.3,495.5,30.3L495.5,30.3z M570.5,110.6v-165h40.6V6.9c0,0,9.7-13.4,29.9-13.4
				c24.7,0,39.2,18.4,39.2,44.8v72.4h-40.3V48.2c0-8.9-4.2-17.5-13.9-17.5c-9.8,0-14.9,8.7-14.9,17.5v62.4L570.5,110.6z M749.5-6.5
				c-38.3,0-61.2,29.1-61.2,60.4c0,35.5,27.6,59.8,61.3,59.8c32.6,0,61.2-23.2,61.2-59.2C810.8,15,780.9-6.5,749.5-6.5z M749.9,30.6
				c13.5,0,22.9,11.3,22.9,23.3c0,10.3-8.7,22.9-22.9,22.9c-13,0-22.7-10.4-22.7-23C727.1,41.7,735.2,30.6,749.9,30.6z M878.5-6.5
				c-38.3,0-61.2,29.1-61.2,60.4c0,35.5,27.6,59.8,61.3,59.8c32.6,0,61.2-23.2,61.2-59.2C939.8,15,909.9-6.5,878.5-6.5z M878.9,30.6
				c13.5,0,22.9,11.3,22.9,23.3c0,10.3-8.7,22.9-22.9,22.9c-13,0-22.7-10.4-22.7-23C856.1,41.7,864.2,30.6,878.9,30.6z"/>
			<circle class="st0" cx="971.9" cy="86.1" r="27"/>
			<path class="st0" d="M1007.8,49.2h-48.6l43.1-103.6h48.4L1007.8,49.2z"/>
		</g>
		<path class="st1" d="M665.5,92.3c-9.2,2.8-13.5,13.5-8.5,21.3c1.4,2.1,4.3,5,6.4,5.7c2.1,0.7,2.1,0.7,6.4,0.7c3.6,0,4.3,0,6.4-0.7
			c2.8-1.4,5.7-4.3,7.1-7.1c3.6-7.1,0-15.7-7.1-19.2c-2.1-1.4-2.8-1.4-5.7-1.4C667.6,91.6,666.9,91.6,665.5,92.3z M627,93
			c-12.1,2.1-19.9,10-23.5,22.8c-0.7,2.1-0.7,4.3-0.7,7.1v5h-5h-5v10.7v10.7h5h5v25.6v25.6h13.5h13.5v-25.6v-25.6h9.2h9.2v-10.7
			v-10.7h-9.2h-9.2v-2.1c0.7-5,2.8-8.5,7.1-9.2c2.8-0.7,7.1-0.7,10,0.7c1.4,0.7,2.1,0.7,2.1,0.7s0-5,0-11.4V95.2l-2.1-0.7
			c-2.8-1.4-6.4-1.4-11.4-1.4C632,92.3,629.2,93,627,93z M735.2,126.5c-5.7,1.4-10,4.3-12.8,7.8l-1.4,2.1v-4.3v-4.3h-13.5h-13.5
			v36.3v36.3h13.5h13.5v-19.9c0-11.4,0-20.6,0-22.1c0.7-2.8,2.1-5.7,3.6-7.1c3.6-2.8,10-2.1,12.8,1.4c2.1,2.8,2.1,2.8,2.1,25.6v21.3
			H753h13.5v-24.2c0-25.6,0-28.5-1.4-33.4c-1.4-4.3-2.8-7.8-6.4-10.7c-2.8-2.8-5.7-5-10-5.7C745.1,125.8,738,125.8,735.2,126.5z
			 M802.8,125.8c-4.3,0.7-10.7,2.8-14.2,5.7c-7.8,5.7-12.8,14.2-14.9,24.9c-0.7,4.3-0.7,12.1,0,16.4c1.4,6.4,3.6,12.8,7.1,17.1
			c5,6.4,11.4,10.7,19.2,12.1c4.3,0.7,11.4,0.7,14.9-0.7c4.3-1.4,7.1-2.8,10.7-5.7l2.8-2.8v3.6v3.6h13.5h13.5v-36.3v-36.3h-13.5
			h-13.5v3.6v3.6l-2.1-0.7c-3.6-3.6-8.5-6.4-14.2-7.1C809.9,125.8,804.9,125.8,802.8,125.8z M905.9,126.5c-5,0.7-10,4.3-12.8,7.8
			l-1.4,1.4v-4.3v-4.3h-13.5h-13.5v36.3v36.3h13.5h13.5v-20.6c0-22.1,0-22.1,1.4-25.6c1.4-2.8,4.3-4.3,7.1-4.3
			c2.8,0,4.3,0.7,6.4,2.1c2.8,2.8,2.8,2.1,2.8,26.3V199H923h13.5v-26.3c0-26.3,0-26.3-0.7-29.2c-0.7-1.4-1.4-4.3-2.1-6.4
			c-1.4-2.8-2.1-3.6-4.3-5.7c-2.8-2.8-5-4.3-7.8-5.7C916.6,125.8,910.9,125,905.9,126.5z M976.3,126.5c-12.1,2.1-21.3,7.8-27,17.8
			c-1.4,2.8-2.8,6.4-4.3,10c-0.7,3.6-0.7,4.3-0.7,10c0,6.4,0,8.5,2.1,13.5c4.3,12.1,14.2,21.3,27.7,24.2c2.1,0.7,4.3,0.7,9.2,0.7
			c7.1,0,10-0.7,14.9-2.8l2.8-1.4v-12.1v-12.1l-2.1,1.4c-3.6,2.1-5.7,2.8-10,2.8c-4.3,0-6.4,0-9.2-1.4c-2.8-1.4-5-3.6-6.4-6.4
			c-0.7-2.1-0.7-2.1-0.7-5.7c0-2.8,0-3.6,0.7-5.7c2.1-5.7,7.1-8.5,14.2-9.2c5,0,7.1,0,14.2,3.6c0,0,0-5.7,0-12.1v-12.1l-2.1-0.7
			C992,125.8,983.5,125,976.3,126.5z M1037.5,126.5c-20.6,3.6-33.4,21.3-32,42c0.7,7.1,2.8,13.5,6.4,18.5c5,7.8,12.8,12.8,22.8,14.9
			c4.3,0.7,15.7,0.7,20.6,0c7.1-1.4,13.5-5,18.5-10c2.1-2.1,5.7-7.1,5.7-7.1s-5-2.1-11.4-4.3l-11.4-4.3l-1.4,1.4
			c-2.1,2.1-3.6,2.8-6.4,3.6c-7.8,2.1-15.7-2.1-17.1-9.2v-1.4h24.9h24.9v-6.4c0-4.3,0-7.1-0.7-8.5c-1.4-8.5-5-14.2-10-19.9
			c-5-5-10.7-7.8-18.5-9.2C1049.6,125.8,1041.1,125.8,1037.5,126.5z M656.2,164.2v36.3h13.5h13.5v-36.3v-36.3h-13.5h-13.5V164.2z
			 M1048.2,146.4c2.1,0.7,2.8,1.4,5,2.8c1.4,1.4,2.8,2.8,2.8,5v1.4h-12.1c-13.5,0-12.8,0-11.4-2.8
			C1034.7,147.8,1041.1,145,1048.2,146.4z M818.4,149.9c3.6,0.7,7.8,4.3,9.2,7.8c3.6,7.8,0,17.1-8.5,19.9c-2.8,0.7-7.1,0.7-10,0
			c-4.3-1.4-8.5-5-9.2-9.2c-0.7-2.1-0.7-2.8-0.7-5c0-2.8,0-3.6,1.4-5.7C803.5,151.4,810.6,148.5,818.4,149.9z"/>
	</g>
</g>
</svg>
