<?xml version="1.0" encoding="utf-8"?>
<!-- Generator: Adobe Illustrator 24.3.0, SVG Export Plug-In . SVG Version: 6.00 Build 0)  -->
<svg version="1.1" id="Слой_1" xmlns="http://www.w3.org/2000/svg" xmlns:xlink="http://www.w3.org/1999/xlink" x="0px" y="0px"
	 viewBox="0 0 286.7 292.9" style="enable-background:new 0 0 286.7 292.9;" xml:space="preserve">
<style type="text/css">
	.st0{fill:#8AA4BF;}
	.st1{fill-rule:evenodd;clip-rule:evenodd;fill:#8AA4BF;}
	.st2{display:none;}
	.st3{fill:#8F6C84;}
</style>
<path class="st0" d="M233.8,204.8c-9.5,9.6-18.7,19.4-28.5,28.7c-10.2,9.8-23,5.1-34.7,4.7c-4.9-0.2-4-5-1.1-7.8
	c4.9-4.7,14-15.5,13.4-16.6c-3.3,0-6.5-0.1-9.8,0c-17.6,0.5-33.4-5.1-47.9-14.5c-9.9-6.4-19.6-13.1-28.8-20.3
	c-14.2-11.1-29.9-17-48.1-15.8c-4.1,0.3-14.8,0-15.7-0.2V130c0.4,0,0.7,0,1.1,0.1c33.3,5.1,58.3-11,82.7-30.6
	c18.8-15.2,41.3-22.3,67.1-20.7c-3.3-6.9-9-10.2-13-15c-2.1-2.4-4.1-5.1-2.6-8.4c1.5-3.3,4.9-2,7.4-2c16.2,0.1,28.9,2.3,39.2,15.2
	c5.6,7,12.4,13.1,18.8,19.3c6,5.8,5.7,11.1-0.2,16.8c-8.9,8.7-17.6,17.7-26.3,26.6c-10.6,10.8-23.7,7.6-36.2,6.1
	c-5.8-0.7-4.1-5.5-0.9-8.5c4.8-4.3,10.1-8.2,15.2-12.3c-14.4-4.9-26.1-3.2-37.1,2.7c-12.3,6.5-22.8,15.6-34.1,23.6
	c-2.5,1.8-4.4,4.1-0.9,6.4c14.7,9.6,27.5,22.4,44.5,28.3c8.1,2.8,16.8,3.4,27.6,1.5c-5.2-5.3-9.6-9.7-14-14.3
	c-1.9-1.9-4.5-3.8-3.2-7c1.2-3.1,4.4-2.8,7.1-3.1c15.2-1.5,28.7,0.6,38.8,13.9c5.6,7.4,12.9,13.5,19.5,20.1
	C238.6,194,239.5,199.2,233.8,204.8z"/>
</svg>
