<svg xmlns="http://www.w3.org/2000/svg" xml:space="preserve"
     version="1.1" style="shape-rendering:geometricPrecision; text-rendering:geometricPrecision; image-rendering:optimizeQuality; fill-rule:evenodd; clip-rule:evenodd"
viewBox="0 0 3001.4 3001.4">
 <defs>
  <style type="text/css">
    .fil4 {fill:none}
    .fil3 {fill:#072369}
    .fil5 {fill:#0C152B}
    .fil6 {fill:#072369}
    .fil1 {fill:url(#id6)}
    .fil2 {fill:url(#id7)}
  </style>
   <mask id="id0">
  <linearGradient id="id1" gradientUnits="userSpaceOnUse" x1="2630.63" y1="921.36" x2="105.13" y2="-198.74">
   <stop offset="0" style="stop-opacity:0; stop-color:white"/>
   <stop offset="1" style="stop-opacity:1; stop-color:white"/>
  </linearGradient>
    <rect style="fill:url(#id1)" x="973.61" y="72.47" width="2018.88" height="1201.84"/>
   </mask>
   <mask id="id2">
  <linearGradient id="id3" gradientUnits="userSpaceOnUse" x1="1516.28" y1="2363.62" x2="-1329.71" y2="-636.77">
   <stop offset="0" style="stop-opacity:0; stop-color:white"/>
   <stop offset="1" style="stop-opacity:1; stop-color:white"/>
  </linearGradient>
    <rect style="fill:url(#id3)" x="339.42" y="458.6" width="1635.88" height="1906.47"/>
   </mask>
   <mask id="id4">
  <linearGradient id="id5" gradientUnits="userSpaceOnUse" x1="116.7" y1="1678.85" x2="4735.9" y2="3171.57">
   <stop offset="0" style="stop-opacity:0; stop-color:white"/>
   <stop offset="1" style="stop-opacity:1; stop-color:white"/>
  </linearGradient>
    <rect style="fill:url(#id5)" x="116.7" y="620.98" width="2158.48" height="2115.75"/>
   </mask>
  <linearGradient id="id6" gradientUnits="userSpaceOnUse" x1="339.43" y1="1182.55" x2="2992.49" y2="1182.55">
   <stop offset="0" style="stop-opacity:1; stop-color:#FEF758"/>
   <stop offset="1" style="stop-opacity:1; stop-color:#FF10DB"/>
  </linearGradient>
  <linearGradient id="id7" gradientUnits="userSpaceOnUse" x1="0.01" y1="1753.5" x2="2885.42" y2="1753.5">
   <stop offset="0" style="stop-opacity:1; stop-color:#9C68FF"/>
   <stop offset="1" style="stop-opacity:1; stop-color:#5A00FF"/>
  </linearGradient>
 </defs>
 <g id="Слой_x0020_1">
  <metadata id="CorelCorpID_0Corel-Layer"/>
  <path class="fil1" d="M1064.78 589.76c482.71,-632.6 1715.7,71.67 1927.71,684.55 -39.85,-528.5 -602.5,-1321.78 -1476.21,-1272.08 -1689.62,96.1 -1443.85,2429.1 0,2361.39 258.52,0.03 459.45,-227.05 460.42,-463.87 1.27,-310 -245.76,-435.51 -460.42,-458.47 -333.61,-35.67 -539.92,-273.6 -545.42,-545.42 -1.94,-96.26 5.83,-160.37 93.93,-306.1z"/>
  <path class="fil2" d="M1516.28 505.96c-242.15,0.24 -388.87,196.26 -389.25,389.91 -0.26,136.99 110.54,362.59 389.25,389.25 851.31,81.44 781.66,1204.78 0,1247.02 -836.12,45.17 -1640.8,-839.45 -1223.53,-1911.15 -801.48,1212.28 187.73,2424.71 1223.53,2379.17 1399.21,-61.51 1369.88,-1926.38 70.16,-2056.96 -67.43,-6.78 -71.21,-41.78 -70.16,-70.9 1.33,-36.91 23.18,-70.72 70.16,-70.9 233.13,-0.97 515.37,72.44 797.66,356.11 343.84,345.52 462.8,943.74 94.44,1512.86 1097.49,-1405.78 -300.64,-2184.02 -962.26,-2164.39z"/>
  <path class="fil3" style="mask:url(#id0)" d="M1064.78 589.76c482.71,-632.6 1715.7,71.67 1927.71,684.55 -26.28,-348.57 -279.85,-806.6 -700.07,-1062.7 -596.12,-275.53 -1291.13,-175.1 -1318.81,603.49 7.13,-61.14 29.42,-123.18 91.17,-225.34z"/>
  <path class="fil4" d="M1586.44 943.19c-245.81,-39.59 -177.29,-253.66 27.43,-251.2 938.01,11.28 1535.38,983.32 864.67,1978.35"/>
  <path class="fil3" style="mask:url(#id2)" d="M1975.29 1932.49c-856.96,86.94 -1588.66,-496.31 -1404.49,-1473.89 -531.7,701.71 -118.26,1954.91 945.48,1905.02 246.58,0.03 440.76,-206.55 459.02,-431.13z"/>
  <path class="fil5" style="mask:url(#id4)" d="M1516.28 2532.13c-836.12,45.17 -1640.8,-839.45 -1223.53,-1911.15 -365.99,709.25 -164.37,1698.07 633.6,2019.08 505.51,203.33 1201,110.11 1334.61,-512.88 71.63,-334.01 -126.77,-707.29 -609.74,-818.82 706.27,181.14 602.75,1183.9 -134.94,1223.77z"/>
  <path class="fil6" d="M2384.1 1157.49c343.84,345.52 462.8,943.74 94.44,1512.86 670.71,-995.04 73.34,-1967.08 -864.67,-1978.35 -195.78,-2.35 -266.99,193.33 -57.84,245.05 -38.21,-12.96 -40.6,-40.84 -39.74,-64.76 1.33,-36.91 23.18,-70.72 70.16,-70.9 233.13,-0.97 515.37,72.44 797.66,356.11z"/>
 </g>
</svg>
