<?xml version="1.0" encoding="utf-8"?>
<!-- Generator: Adobe Illustrator 24.3.0, SVG Export Plug-In . SVG Version: 6.00 Build 0)  -->
<svg version="1.1" id="Слой_1" xmlns="http://www.w3.org/2000/svg" xmlns:xlink="http://www.w3.org/1999/xlink" x="0px" y="0px"
	 viewBox="0 0 1200 292.9" style="enable-background:new 0 0 1200 292.9;" xml:space="preserve">
<style type="text/css">
	.st0{fill:#8AA4BF;}
	.st1{fill-rule:evenodd;clip-rule:evenodd;fill:#8AA4BF;}
	.st2{display:none;}
	.st3{fill:#8F6C84;}
</style>
<g>
	<path class="st0" d="M246.8,84.9c0,11.7,0,23.1,0,35c1.6-0.5,2.7-0.7,3.8-1.2c12-5.6,23.5-4.5,33.4,4c10.9,9.4,12.3,22.1,8.6,35.2
		c-3.4,12.2-12.4,18.6-24.7,20.5c-8.8,1.4-17.3-0.3-25.6-3.5c-3.2-1.3-4.8-3.3-4.7-7.2c0.2-24.2,0.1-48.4,0.1-72.6
		C237.6,86.7,237.6,86.7,246.8,84.9z M246.8,148.6C246.8,148.6,246.8,148.6,246.8,148.6c0,2.5,0,5,0,7.5c0,13.1,1,14.1,14.2,14.4
		c0.4,0,0.7,0,1.1,0c10.2,0,17.7-4.6,20.9-12.6c3.8-9.7,1.6-22.1-5.1-28.3c-6.7-6.1-16.7-7.1-25.9-2.9c-3.9,1.8-5.7,4.2-5.3,8.6
		C247.1,139.7,246.8,144.2,246.8,148.6z"/>
	<path class="st0" d="M841.4,174.8c0,9,0,17.1,0,25.1c-7.9,2.9-9.3,1.9-9.3-5.9c0-22.7,0-45.4,0-68.2c0-8.8,0-8.8,9-7.8
		c0.2,1.5,0.3,3,0.6,5c3.8-2,7.1-4.5,10.8-5.8c15.9-5.5,30.5,2.8,34.5,19.3c4.3,17.4-2.5,33.7-16.9,40c-7.5,3.3-15.2,2.8-22.9,0.4
		C845.5,176.6,843.9,175.8,841.4,174.8z M841.3,149.7c0,4.3-0.1,8.5,0.1,12.8c0.1,1.4,0.5,3.5,1.5,4.1c10.6,6.7,27.1,6.7,33.2-7.4
		c3.3-7.6,3.7-15.5,0.6-23.3c-3.1-7.8-10.2-12.1-18.6-11.5c-11.1,0.8-16.8,6.8-16.8,17.8C841.3,144.8,841.3,147.2,841.3,149.7z"/>
	<path class="st0" d="M361.7,147.5c-8.4,0-16.5,0-24.7,0c-8.1,0-16.2,0-24.3,0c-0.1,14.3,8.2,23.5,21.4,23
		c7.5-0.3,14.9-2.3,22.4-3.6c1.7,6.7,1.3,7.7-5.9,9.7c-12.5,3.4-25,4.4-36.3-3.7c-11.6-8.2-15.6-28.2-8.4-41.5
		c7.2-13.3,23.8-19.5,37.9-14.2C355.3,121.5,362.4,133.2,361.7,147.5z M313.3,140.4c12.8,0,25.7,0,38.5,0
		c0.5-9.1-5.9-15.8-15.6-16.7C324,122.7,314.3,129.6,313.3,140.4z"/>
	<path class="st0" d="M941.5,147.4c-0.1-18.9,12.4-31.8,30.9-31.9c18.8-0.1,31.9,12.9,32,31.7c0.2,18-12.8,31.7-30.1,31.8
		C954.1,179.1,941.6,167.1,941.5,147.4z M972.9,123.7c-13.1-0.1-22.2,9.3-22.3,23.2c-0.1,13.8,8.9,23.9,21.6,24.1
		c13.6,0.2,22.7-9.4,22.8-23.9C995.1,133.2,986.2,123.8,972.9,123.7z"/>
	<path class="st0" d="M822.4,118.5c-3.1,7.4-6.1,14.5-9.1,21.6c-7.7,18.3-15.7,36.5-23,54.9c-2.2,5.6-5.3,7.3-11.6,5.6
		c2.2-5.4,3.9-10.9,6.5-15.9c3.5-6.4,2.8-11.9-0.3-18.4c-6.9-14.7-12.9-30-19.2-45c-0.4-0.9-0.4-2-0.6-3c9.1-1.3,9.1-1.3,12.3,6.5
		c5.2,12.7,10.5,25.4,16.4,39.7c2.9-6.7,5.1-12,7.4-17.3c3.4-8,7.2-15.9,9.9-24.1C813.1,116.9,816.8,117,822.4,118.5z"/>
	<path class="st0" d="M716,126.8c-12.8-3.7-25.2-5.6-34.3,6.5c-5.9,7.9-6,17-1.5,25.7c3.3,6.3,8.9,10.6,16,11
		c6.6,0.4,13.3-0.7,20-1.2c1.5,7.4,1.1,8-6.5,9.3c-10.9,1.9-21.4,1-30.4-5.9c-10.7-8.1-14.2-22.1-9.8-36.1
		c3.7-11.8,14.6-19.9,28.1-20.6c4-0.2,8.2,0.2,12.2,0.8C717.4,117.6,717.7,118.4,716,126.8z"/>
	<path class="st0" d="M933.3,166.5c1.5,7.5,1.2,8-5.5,9.9c-1.4,0.4-2.8,0.6-4.2,0.8c-13.8,1.9-18.6-2.4-18.7-16.4
		c0-11.5,0-23,0-34.9c-3.6-0.2-6.7-0.4-11.2-0.6c6.8-7.9,12.8-15,19.9-23.3c0.3,6,0.5,10.6,0.8,15.6c6.3,0,12.3,0,18.1,0
		c2.2,7.4,1.8,8-5.4,8.1c-2,0-3.9,0-5.9,0c-7.3-0.1-7.3-0.1-7.3,7c0,9.4,0,18.8,0.1,28.2c0.1,7.2,2,8.7,9.2,7.7
		C926.8,168.2,930,167.2,933.3,166.5z"/>
	<path class="st0" d="M729.3,118c3.3,0,6,0,9.2,0c0,3.8,0,7.5,0,11.2c0.3,0.3,0.7,0.7,1,1c4.6-8.8,11.7-13.6,21.9-14.1
		c0.1,2.2,0.6,4.6,0.2,6.7c-0.3,1.4-2,3.4-3.2,3.6c-12.7,1.8-19.1,10.9-19.5,24c-0.2,7.6-0.1,15.3,0,22.9c0.1,3.6-2.1,3.5-4.6,3.4
		c-2.2-0.1-4.9,0.7-4.9-3C729.3,155.2,729.3,136.8,729.3,118z"/>
	<g>
		<polygon class="st0" points="479.4,49.7 479.4,85.9 433.7,85.9 433.7,207.8 479.4,207.8 479.4,243.1 394.6,243.1 394.6,49.7 		"/>
		<polygon class="st0" points="548.9,243.1 548.9,206.9 594.6,206.9 594.6,85.1 548.9,85.1 548.9,49.7 633.7,49.7 633.7,243.1 		"/>
		<polygon class="st0" points="450.7,116.8 450.7,134.4 468.8,134.4 468.8,158.9 450.7,158.9 450.7,175.7 509,175.7 509,159.5 
			491.2,159.5 491.2,134.3 509,134.3 509,116.8 		"/>
		<polyline class="st0" points="521.5,116.8 540.2,116.8 560.2,144.9 560.2,116.8 579.3,116.8 579.3,175.7 561,175.7 541.7,150.1 
			541.7,175.7 521.5,175.7 		"/>
	</g>
</g>
</svg>
