<?xml version="1.0" encoding="utf-8"?>
<!-- Generator: Adobe Illustrator 24.3.0, SVG Export Plug-In . SVG Version: 6.00 Build 0)  -->
<svg version="1.1" id="Слой_1" xmlns="http://www.w3.org/2000/svg" xmlns:xlink="http://www.w3.org/1999/xlink" x="0px" y="0px"
	 viewBox="0 0 121.6 106" style="enable-background:new 0 0 121.6 106;" xml:space="preserve">
<style type="text/css">
	.st0{fill:#3A299E;fill-opacity:0.5;}
	.st1{fill:#9D93CF;}
</style>
<g>
	<g>
		<path class="st1" d="M14.7,31.2c0.1-0.4,0.1-0.7,0.2-1.1c0.4-1.4,1.3-2.5,2.6-3.2c2-1.2,4.1-2.4,6.1-3.5c4.6-2.7,9.1-5.3,13.7-8
			c0.6-0.4,1.3-0.6,2-0.6c0.8,0,1.7,0,2.5,0c0.3,0,0.6,0.1,0.8,0.2c0.8,0.3,1.4,0.8,2.1,1.2c5.9,3.4,11.7,6.9,17.6,10.3
			c1.7,1,2.7,2.5,3,4.4c0,0.3,0.1,0.6,0.1,0.9c0,2.6,0,5.3,0,7.9c0,0.1,0,0.2-0.2,0.3c-3,1.7-5.9,3.4-8.9,5.1c0,0-0.1,0-0.2,0.1
			c0-0.1,0-0.2,0-0.3c0-2.5,0-5.1,0-7.6c0-1.6-0.6-3-1.7-4.2c-0.5-0.5-1.1-0.9-1.8-1.3c-3.2-2-6.5-4-9.7-5.9c-1.9-1.1-4-1.2-5.9-0.1
			c-3.4,2-6.9,3.9-10.3,6c-1.9,1.1-2.9,2.9-3,5.1c0,4,0,8,0,12.1c0,2.2,1,3.9,2.8,5c3.4,2.1,6.9,4.2,10.3,6.2c1.9,1.1,4,1.2,6,0
			c4.4-2.6,8.7-5.2,13-7.8c2.1-1.3,4.3-2.4,6.5-3.6c3.9-2.1,7.6-4.4,11.4-6.6c1.6-0.9,3.1-1.9,4.8-2.8c2-1.1,4.1-1.2,6.1,0
			c6.2,3.6,12.3,7.2,18.5,10.7c0.7,0.4,1.5,0.8,2,1.4c1.2,1.2,1.8,2.6,1.8,4.2c0,7.7,0,15.3,0,23c0,2.2-1,3.9-2.9,5
			c-3.7,2.2-7.5,4.4-11.3,6.5c-2.7,1.6-5.4,3.1-8.1,4.7c-0.4,0.2-0.8,0.4-1.3,0.5c-0.1,0-0.2,0-0.3,0c-1,0-2.1,0-3.1,0
			c-0.4,0-0.7-0.2-1.1-0.4c-1.5-0.9-3-1.7-4.6-2.6c-5-2.9-10.1-5.8-15.1-8.8c-1.9-1.1-3-2.9-3-5.2c0-2.6,0-5.1,0-7.7
			c0-0.1,0-0.2,0.2-0.3c2.9-1.7,5.9-3.4,8.8-5.1c0.1,0,0.1-0.1,0.2-0.1c0,0.1,0,0.2,0,0.3c0,2.4,0,4.9,0,7.3c0,2.4,1,4.1,3.1,5.3
			c3.4,2,6.7,3.9,10.1,5.8c2,1.1,4.1,1.2,6.1,0c3.3-1.9,6.5-3.9,9.8-5.8c1.6-0.9,2.6-2.3,2.9-4.1c0.1-0.4,0.1-0.8,0.1-1.2
			c0-3.9,0-7.9,0-11.8c0-2.3-1-4.1-3-5.2c-3.4-2-6.7-4-10.2-5.9c-2-1.1-4.1-1.2-6.1,0C66.7,57,55,63.9,43.2,70.7
			c-2,1.2-4.1,1.2-6.2,0c-6.4-3.7-12.8-7.4-19.2-11.2c-1.7-1-2.8-2.5-3-4.6c0,0,0-0.1,0-0.1C14.7,47,14.7,39.1,14.7,31.2z"/>
	</g>
</g>
</svg>
