<svg width="2560" height="293" viewBox="0 0 2560 293" fill="none" xmlns="http://www.w3.org/2000/svg">
<path fill-rule="evenodd" clip-rule="evenodd" d="M0 119.858L106.667 134.219C213.333 148.58 255.667 181.541 469 159.999C682.333 138.458 713 28.999 940 10.9994C1167 -7.00015 1241.17 105.497 1454.5 119.858C1667.83 134.219 1737.5 -0.00024414 1962 2.66803e-10C2186.5 0.000244141 2560 119.858 2560 119.858V292.189H2453.33C2346.67 292.189 2133.33 292.189 1920 292.189C1706.67 292.189 1493.33 292.189 1280 292.189C1066.67 292.189 853.333 292.189 640 292.189C426.667 292.189 213.333 292.189 106.667 292.189H0V119.858Z" fill="#F5FCFE"/>
</svg>
