<?xml version="1.0" encoding="utf-8"?>
<!-- Generator: Adobe Illustrator 24.3.0, SVG Export Plug-In . SVG Version: 6.00 Build 0)  -->
<svg version="1.1" id="Слой_1" xmlns="http://www.w3.org/2000/svg" xmlns:xlink="http://www.w3.org/1999/xlink" x="0px" y="0px"
	 viewBox="0 0 119.44 119.94" style="enable-background:new 0 0 119.44 119.94;" xml:space="preserve">
<style type="text/css">
	.st0{fill:url(#SVGID_1_);}
	.st1{fill:url(#SVGID_2_);}
	.st2{fill:url(#SVGID_3_);}
</style>
<g>
	<linearGradient id="SVGID_1_" gradientUnits="userSpaceOnUse" x1="22.7756" y1="80.0783" x2="96.6679" y2="80.0783">
		<stop  offset="0" style="stop-color:#E68E16"/>
		<stop  offset="1" style="stop-color:#7E217D"/>
	</linearGradient>
	<path class="st0" d="M75.86,73.62c0.65-0.43,1.21-0.8,1.77-1.17c2.98-1.99,5.94-4,8.94-5.96c3.84-2.51,8.79-0.55,9.92,3.89
		c0.65,2.58-0.43,5.3-2.79,6.89c-3.86,2.6-7.74,5.18-11.62,7.77c-2.71,1.81-5.43,3.6-8.12,5.44c-0.63,0.43-1.26,0.63-2.03,0.62
		c-7.94-0.02-15.89,0-23.83-0.02c-0.63,0-1.05,0.05-1.22,0.78c-0.13,0.58-0.58,1.02-1.07,1.38c-1.42,1.03-2.82,2.07-4.26,3.07
		c-1.61,1.12-3.48,0.84-4.63-0.74c-4.49-6.17-8.95-12.35-13.41-18.54c-1.19-1.65-0.88-3.47,0.74-4.69c1.36-1.02,2.73-2.02,4.1-3.01
		c1.4-1,2.92-0.93,4.2,0.23c0.33,0.3,0.49,0.28,0.77-0.02c0.51-0.55,1.06-1.08,1.59-1.61c5.79-5.73,14.49-6.37,21-1.47
		c0.87,0.65,1.72,0.94,2.8,0.92c3.37-0.06,6.74,0.11,10.1-0.05C73.06,67.11,75.78,69.79,75.86,73.62z M59.04,88.18
		c4.07,0,8.13-0.01,12.2,0.01c0.54,0,0.98-0.13,1.42-0.43c4.47-3,8.95-5.98,13.43-8.97c2.01-1.35,4.04-2.68,6.04-4.05
		c1.17-0.81,1.62-1.98,1.47-3.38c-0.15-1.38-0.93-2.33-2.2-2.85c-1.24-0.5-2.36-0.21-3.43,0.52c-4.75,3.21-9.52,6.4-14.27,9.61
		c-0.59,0.4-1.18,0.58-1.88,0.57c-5.52-0.01-11.04-0.01-16.56-0.01c-0.35,0-0.7,0.02-1.04-0.11c-0.66-0.24-1-0.72-0.99-1.42
		c0.01-0.7,0.37-1.18,1.05-1.36c0.28-0.08,0.58-0.09,0.88-0.09c1.35-0.01,2.69,0,4.04,0c3.42,0,6.84,0,10.26,0
		c0.48,0,0.97,0.01,1.44-0.16c1.36-0.48,2.15-1.79,1.95-3.26c-0.19-1.38-1.39-2.46-2.86-2.47c-3.53-0.02-7.06-0.11-10.58,0.03
		c-2.18,0.09-4.1-0.22-5.66-1.85c-0.07-0.08-0.17-0.13-0.26-0.19c-5.03-3.42-11.81-2.87-16.23,1.31c-0.74,0.7-1.43,1.47-2.19,2.15
		c-0.47,0.41-0.43,0.7-0.08,1.18C38.5,77.82,42,82.7,45.49,87.6c0.32,0.45,0.66,0.6,1.2,0.59C50.81,88.17,54.93,88.18,59.04,88.18z
		 M44.05,90.51c-0.08-0.11-0.16-0.25-0.26-0.38c-4.35-6.03-8.7-12.05-13.04-18.08c-0.34-0.47-0.62-0.49-1.06-0.17
		c-1.21,0.9-2.43,1.79-3.66,2.65c-0.43,0.3-0.49,0.55-0.17,0.97c0.81,1.08,1.58,2.18,2.37,3.27c3.51,4.87,7.03,9.73,10.52,14.62
		c0.46,0.65,0.79,0.68,1.39,0.2c1.12-0.88,2.3-1.69,3.45-2.53C43.79,90.93,44.04,90.83,44.05,90.51z"/>
	<linearGradient id="SVGID_2_" gradientUnits="userSpaceOnUse" x1="52.1764" y1="42.2041" x2="90.616" y2="42.2041">
		<stop  offset="0" style="stop-color:#E68E16"/>
		<stop  offset="1" style="stop-color:#7E217D"/>
	</linearGradient>
	<path class="st1" d="M90.61,42.26c0,1.11,0.01,2.21,0,3.32c-0.01,1.09-0.54,1.62-1.64,1.66c-0.51,0.02-1.02,0-1.53,0.01
		c-0.71,0.01-1.25,0.28-1.54,0.96c-0.29,0.68-0.12,1.26,0.38,1.77c0.4,0.4,0.8,0.8,1.18,1.22c0.6,0.68,0.64,1.47,0.03,2.11
		c-1.66,1.7-3.33,3.38-5.03,5.03c-0.6,0.58-1.4,0.55-2.04-0.02c-0.45-0.39-0.86-0.82-1.28-1.23c-0.49-0.47-1.04-0.66-1.69-0.39
		c-0.68,0.28-0.98,0.81-1.01,1.52c-0.02,0.54,0,1.08-0.01,1.62c-0.03,1.06-0.55,1.61-1.59,1.61c-2.29,0.01-4.58,0.02-6.87,0
		c-0.99-0.01-1.54-0.57-1.57-1.57c-0.02-0.57,0-1.13-0.01-1.7c-0.01-0.69-0.33-1.18-0.96-1.45c-0.65-0.29-1.21-0.13-1.7,0.34
		c-0.39,0.37-0.76,0.76-1.16,1.13c-0.79,0.74-1.58,0.76-2.35,0.01c-1.59-1.57-3.17-3.15-4.74-4.75c-0.8-0.82-0.78-1.55,0.02-2.4
		c0.37-0.39,0.76-0.77,1.13-1.16c0.45-0.48,0.56-1.05,0.33-1.65c-0.23-0.61-0.72-0.94-1.36-0.98c-0.62-0.04-1.24,0-1.86-0.03
		c-0.95-0.05-1.52-0.57-1.53-1.52c-0.03-2.32-0.03-4.64,0-6.96c0.01-0.98,0.61-1.53,1.59-1.57c0.59-0.02,1.18,0,1.78-0.01
		c0.67-0.01,1.12-0.37,1.36-0.96c0.23-0.56,0.18-1.12-0.25-1.59c-0.42-0.46-0.87-0.88-1.28-1.34c-0.68-0.76-0.69-1.51,0.02-2.22
		c1.64-1.64,3.3-3.26,4.97-4.86c0.75-0.72,1.53-0.69,2.27,0.04c0.36,0.36,0.69,0.75,1.05,1.12c0.48,0.49,1.06,0.65,1.7,0.38
		c0.62-0.26,0.96-0.76,0.98-1.45c0.01-0.57-0.01-1.13,0.01-1.7c0.03-0.96,0.53-1.58,1.47-1.59c2.37-0.04,4.74-0.04,7.11,0
		c0.96,0.02,1.43,0.61,1.46,1.59c0.01,0.49,0.01,0.97,0,1.46c-0.01,0.77,0.25,1.39,1,1.69c0.71,0.28,1.31,0.07,1.83-0.47
		c0.37-0.39,0.75-0.77,1.16-1.13c0.69-0.61,1.45-0.62,2.09,0.02c1.68,1.68,3.34,3.37,4.97,5.09c0.65,0.68,0.6,1.49-0.05,2.16
		c-0.39,0.41-0.83,0.77-1.23,1.17c-0.48,0.46-0.58,1.04-0.35,1.64c0.24,0.6,0.71,0.95,1.37,0.96c0.62,0.02,1.24-0.01,1.86,0.02
		c0.98,0.05,1.54,0.62,1.55,1.6C90.63,39.94,90.61,41.1,90.61,42.26z M84.31,32.14c-0.09-0.1-0.19-0.22-0.31-0.33
		c-0.72-0.73-1.46-1.44-2.16-2.18c-0.29-0.3-0.46-0.29-0.78-0.01c-1.4,1.22-3.01,1.56-4.73,0.85c-1.75-0.72-2.68-2.11-2.82-4
		c-0.03-0.45-0.21-0.52-0.59-0.52c-0.97,0.02-1.94,0.03-2.91-0.01c-0.49-0.02-0.65,0.14-0.69,0.63c-0.15,1.86-1.12,3.21-2.84,3.88
		c-1.72,0.67-3.34,0.35-4.72-0.91c-0.3-0.28-0.46-0.22-0.71,0.03c-0.71,0.74-1.42,1.47-2.17,2.17c-0.36,0.34-0.35,0.53-0.01,0.89
		c0.88,0.96,1.24,2.14,1.11,3.43c-0.23,2.2-1.86,3.84-4.06,4.02c-0.67,0.06-0.79,0.31-0.77,0.9c0.04,0.83,0.04,1.67,0,2.51
		c-0.02,0.54,0.06,0.82,0.72,0.83c0.87,0.02,1.67,0.38,2.37,0.93c2.05,1.61,2.33,4.47,0.64,6.55c-0.17,0.22-0.56,0.38-0.15,0.76
		c0.81,0.76,1.58,1.55,2.34,2.34c0.26,0.27,0.42,0.19,0.66-0.02c1.42-1.25,3.05-1.61,4.8-0.87c1.74,0.73,2.68,2.1,2.78,4.01
		c0.02,0.38,0.14,0.52,0.52,0.51c1.05-0.02,2.1-0.02,3.15,0c0.37,0.01,0.5-0.1,0.52-0.49c0.13-1.88,1.03-3.29,2.78-4.02
		c1.75-0.73,3.38-0.4,4.8,0.86c0.29,0.25,0.45,0.27,0.72-0.01c0.72-0.76,1.46-1.51,2.23-2.23c0.32-0.3,0.26-0.48,0-0.78
		c-1.21-1.41-1.54-3.02-0.83-4.75c0.71-1.73,2.08-2.65,3.92-2.8c0.53-0.04,0.61-0.23,0.6-0.68c-0.03-0.86-0.06-1.73,0.01-2.59
		c0.05-0.66-0.16-0.84-0.81-0.91c-1.77-0.19-3.07-1.14-3.73-2.81c-0.68-1.7-0.35-3.28,0.81-4.68C84.12,32.49,84.3,32.39,84.31,32.14
		z"/>
	<linearGradient id="SVGID_3_" gradientUnits="userSpaceOnUse" x1="61.9677" y1="42.2297" x2="80.866" y2="42.2297">
		<stop  offset="0" style="stop-color:#E68E16"/>
		<stop  offset="1" style="stop-color:#7E217D"/>
	</linearGradient>
	<path class="st2" d="M61.97,42.15c0.06-5.3,4.28-9.44,9.58-9.39c5.16,0.05,9.37,4.35,9.32,9.52c-0.06,5.26-4.38,9.5-9.6,9.42
		C66.12,51.62,61.91,47.3,61.97,42.15z M77.89,42.23c0-3.59-2.88-6.52-6.42-6.53c-3.6-0.01-6.53,2.9-6.55,6.5
		c-0.01,3.61,2.91,6.53,6.52,6.51C75.02,48.7,77.88,45.82,77.89,42.23z"/>
</g>
</svg>
