<svg width="1440" height="315" viewBox="0 0 1440 315" fill="none" xmlns="http://www.w3.org/2000/svg">
<path fill-rule="evenodd" clip-rule="evenodd" d="M-0.0107422 172.8L59.9893 158.4C119.989 144 239.989 115.2 359.989 151.2C479.989 187.2 599.989 288 719.989 309.6C839.989 331.2 959.989 273.6 1079.99 259.2C1199.99 244.8 1319.99 273.6 1379.99 288L1439.99 302.4V0.00012207H1379.99C1319.99 0.00012207 1199.99 0.00012207 1079.99 0.00012207C959.989 0.00012207 839.989 0.00012207 719.989 0.00012207C599.989 0.00012207 479.989 0.00012207 359.989 0.00012207C239.989 0.00012207 119.989 0.00012207 59.9893 0.00012207H-0.0107422L-0.0107422 172.8Z" fill="#181350"/>
</svg>
