<svg width="1440" height="315" viewBox="0 0 1440 315" fill="none" xmlns="http://www.w3.org/2000/svg">
<g clip-path="url(#clip0_720_533)">
<path fill-rule="evenodd" clip-rule="evenodd" d="M1440.01 142.2L1380.01 156.6C1320.01 171 1200.01 199.8 1080.01 163.8C960.012 127.8 840.012 27.0001 720.012 5.40012C600.012 -16.1999 480.012 41.4001 360.011 55.8001C240.011 70.2001 120.011 41.4001 60.011 27.0001L0.0109863 12.6001V315H60.011C120.011 315 240.011 315 360.011 315C480.012 315 600.012 315 720.012 315C840.012 315 960.012 315 1080.01 315C1200.01 315 1320.01 315 1380.01 315H1440.01V142.2Z" fill="white"/>
</g>
<defs>
<clipPath id="clip0_720_533">
<rect width="1440" height="315" fill="white" transform="translate(1440 315) rotate(-180)"/>
</clipPath>
</defs>
</svg>
